%TF.GenerationSoftware,KiCad,Pcbnew,7.0.7*%
%TF.CreationDate,2023-12-18T21:45:11-05:00*%
%TF.ProjectId,central_hub,63656e74-7261-46c5-9f68-75622e6b6963,rev?*%
%TF.SameCoordinates,Original*%
%TF.FileFunction,Drillmap*%
%TF.FilePolarity,Positive*%
%FSLAX45Y45*%
G04 Gerber Fmt 4.5, Leading zero omitted, Abs format (unit mm)*
G04 Created by KiCad (PCBNEW 7.0.7) date 2023-12-18 21:45:11*
%MOMM*%
%LPD*%
G01*
G04 APERTURE LIST*
%ADD10C,0.200000*%
%ADD11C,0.030000*%
%ADD12C,0.040000*%
%ADD13C,0.060000*%
%ADD14C,0.080000*%
%ADD15C,0.100000*%
G04 APERTURE END LIST*
D10*
X5850317Y-4040721D02*
X16654317Y-4040721D01*
X16654317Y-10214721D01*
X5850317Y-10214721D01*
X5850317Y-4040721D01*
D11*
X8385000Y-7860000D02*
X8415000Y-7890000D01*
X8415000Y-7860000D02*
X8385000Y-7890000D01*
X8390000Y-7765000D02*
X8420000Y-7795000D01*
X8420000Y-7765000D02*
X8390000Y-7795000D01*
X9202500Y-8212500D02*
X9232500Y-8242500D01*
X9232500Y-8212500D02*
X9202500Y-8242500D01*
X9202500Y-8712500D02*
X9232500Y-8742500D01*
X9232500Y-8712500D02*
X9202500Y-8742500D01*
X10273000Y-7855000D02*
X10303000Y-7885000D01*
X10303000Y-7855000D02*
X10273000Y-7885000D01*
X10274000Y-7765000D02*
X10304000Y-7795000D01*
X10304000Y-7765000D02*
X10274000Y-7795000D01*
X11440317Y-5718221D02*
X11470317Y-5748221D01*
X11470317Y-5718221D02*
X11440317Y-5748221D01*
X11440317Y-6148221D02*
X11470317Y-6178221D01*
X11470317Y-6148221D02*
X11440317Y-6178221D01*
X12010317Y-7000721D02*
X12040317Y-7030721D01*
X12040317Y-7000721D02*
X12010317Y-7030721D01*
X12010317Y-7125721D02*
X12040317Y-7155721D01*
X12040317Y-7125721D02*
X12010317Y-7155721D01*
X12010317Y-7250721D02*
X12040317Y-7280721D01*
X12040317Y-7250721D02*
X12010317Y-7280721D01*
X12010317Y-7375721D02*
X12040317Y-7405721D01*
X12040317Y-7375721D02*
X12010317Y-7405721D01*
X12055317Y-8495721D02*
X12085317Y-8525721D01*
X12085317Y-8495721D02*
X12055317Y-8525721D01*
X12062817Y-8635721D02*
X12092817Y-8665721D01*
X12092817Y-8635721D02*
X12062817Y-8665721D01*
X12362817Y-8635721D02*
X12392817Y-8665721D01*
X12392817Y-8635721D02*
X12362817Y-8665721D01*
X12435317Y-4995721D02*
X12465317Y-5025721D01*
X12465317Y-4995721D02*
X12435317Y-5025721D01*
X12445317Y-5525721D02*
X12475317Y-5555721D01*
X12475317Y-5525721D02*
X12445317Y-5555721D01*
X12525000Y-5735000D02*
X12555000Y-5765000D01*
X12555000Y-5735000D02*
X12525000Y-5765000D01*
X12572760Y-8895721D02*
X12602760Y-8925721D01*
X12602760Y-8895721D02*
X12572760Y-8925721D01*
X12610000Y-5900000D02*
X12640000Y-5930000D01*
X12640000Y-5900000D02*
X12610000Y-5930000D01*
X12690000Y-6060721D02*
X12720000Y-6090721D01*
X12720000Y-6060721D02*
X12690000Y-6090721D01*
X12775000Y-7005000D02*
X12805000Y-7035000D01*
X12805000Y-7005000D02*
X12775000Y-7035000D01*
X12785317Y-8005000D02*
X12815317Y-8035000D01*
X12815317Y-8005000D02*
X12785317Y-8035000D01*
X12875317Y-4995721D02*
X12905317Y-5025721D01*
X12905317Y-4995721D02*
X12875317Y-5025721D01*
X12885317Y-5525721D02*
X12915317Y-5555721D01*
X12915317Y-5525721D02*
X12885317Y-5555721D01*
X12905317Y-8005721D02*
X12935317Y-8035721D01*
X12935317Y-8005721D02*
X12905317Y-8035721D01*
X13058328Y-7375721D02*
X13088328Y-7405721D01*
X13088328Y-7375721D02*
X13058328Y-7405721D01*
X13159400Y-7128214D02*
X13189400Y-7158214D01*
X13189400Y-7128214D02*
X13159400Y-7158214D01*
X13242817Y-8670721D02*
X13272817Y-8700721D01*
X13272817Y-8670721D02*
X13242817Y-8700721D01*
X13245000Y-8325000D02*
X13275000Y-8355000D01*
X13275000Y-8325000D02*
X13245000Y-8355000D01*
X13245317Y-8585721D02*
X13275317Y-8615721D01*
X13275317Y-8585721D02*
X13245317Y-8615721D01*
X13260317Y-7250721D02*
X13290317Y-7280721D01*
X13290317Y-7250721D02*
X13260317Y-7280721D01*
X13445000Y-4995000D02*
X13475000Y-5025000D01*
X13475000Y-4995000D02*
X13445000Y-5025000D01*
X13455000Y-5525000D02*
X13485000Y-5555000D01*
X13485000Y-5525000D02*
X13455000Y-5555000D01*
X13455000Y-6035000D02*
X13485000Y-6065000D01*
X13485000Y-6035000D02*
X13455000Y-6065000D01*
X13465000Y-6585000D02*
X13495000Y-6615000D01*
X13495000Y-6585000D02*
X13465000Y-6615000D01*
X13475000Y-7105000D02*
X13505000Y-7135000D01*
X13505000Y-7105000D02*
X13475000Y-7135000D01*
X13560000Y-8510000D02*
X13590000Y-8540000D01*
X13590000Y-8510000D02*
X13560000Y-8540000D01*
X13560000Y-8635000D02*
X13590000Y-8665000D01*
X13590000Y-8635000D02*
X13560000Y-8665000D01*
X13560000Y-8860000D02*
X13590000Y-8890000D01*
X13590000Y-8860000D02*
X13560000Y-8890000D01*
X13560000Y-8985000D02*
X13590000Y-9015000D01*
X13590000Y-8985000D02*
X13560000Y-9015000D01*
X13810000Y-8510000D02*
X13840000Y-8540000D01*
X13840000Y-8510000D02*
X13810000Y-8540000D01*
X13810000Y-8635000D02*
X13840000Y-8665000D01*
X13840000Y-8635000D02*
X13810000Y-8665000D01*
X13810000Y-8860000D02*
X13840000Y-8890000D01*
X13840000Y-8860000D02*
X13810000Y-8890000D01*
X13810000Y-8985000D02*
X13840000Y-9015000D01*
X13840000Y-8985000D02*
X13810000Y-9015000D01*
X14060000Y-8510000D02*
X14090000Y-8540000D01*
X14090000Y-8510000D02*
X14060000Y-8540000D01*
X14060000Y-8635000D02*
X14090000Y-8665000D01*
X14090000Y-8635000D02*
X14060000Y-8665000D01*
X14060000Y-8860000D02*
X14090000Y-8890000D01*
X14090000Y-8860000D02*
X14060000Y-8890000D01*
X14060000Y-8985000D02*
X14090000Y-9015000D01*
X14090000Y-8985000D02*
X14060000Y-9015000D01*
X14255000Y-4995000D02*
X14285000Y-5025000D01*
X14285000Y-4995000D02*
X14255000Y-5025000D01*
X14305000Y-4615000D02*
X14335000Y-4645000D01*
X14335000Y-4615000D02*
X14305000Y-4645000D01*
X14310000Y-8510000D02*
X14340000Y-8540000D01*
X14340000Y-8510000D02*
X14310000Y-8540000D01*
X14310000Y-8635000D02*
X14340000Y-8665000D01*
X14340000Y-8635000D02*
X14310000Y-8665000D01*
X14310000Y-8860000D02*
X14340000Y-8890000D01*
X14340000Y-8860000D02*
X14310000Y-8890000D01*
X14310000Y-8985000D02*
X14340000Y-9015000D01*
X14340000Y-8985000D02*
X14310000Y-9015000D01*
X14320000Y-6030000D02*
X14350000Y-6060000D01*
X14350000Y-6030000D02*
X14320000Y-6060000D01*
X14325000Y-6585000D02*
X14355000Y-6615000D01*
X14355000Y-6585000D02*
X14325000Y-6615000D01*
X14325000Y-7105000D02*
X14355000Y-7135000D01*
X14355000Y-7105000D02*
X14325000Y-7135000D01*
X14335000Y-5525000D02*
X14365000Y-5555000D01*
X14365000Y-5525000D02*
X14335000Y-5555000D01*
X14455000Y-4695000D02*
X14485000Y-4725000D01*
X14485000Y-4695000D02*
X14455000Y-4725000D01*
X14560000Y-8510000D02*
X14590000Y-8540000D01*
X14590000Y-8510000D02*
X14560000Y-8540000D01*
X14560000Y-8635000D02*
X14590000Y-8665000D01*
X14590000Y-8635000D02*
X14560000Y-8665000D01*
X14560000Y-8860000D02*
X14590000Y-8890000D01*
X14590000Y-8860000D02*
X14560000Y-8890000D01*
X14560000Y-8985000D02*
X14590000Y-9015000D01*
X14590000Y-8985000D02*
X14560000Y-9015000D01*
X14810000Y-8510000D02*
X14840000Y-8540000D01*
X14840000Y-8510000D02*
X14810000Y-8540000D01*
X14810000Y-8635000D02*
X14840000Y-8665000D01*
X14840000Y-8635000D02*
X14810000Y-8665000D01*
X14810000Y-8860000D02*
X14840000Y-8890000D01*
X14840000Y-8860000D02*
X14810000Y-8890000D01*
X14810000Y-8985000D02*
X14840000Y-9015000D01*
X14840000Y-8985000D02*
X14810000Y-9015000D01*
X15060000Y-8510000D02*
X15090000Y-8540000D01*
X15090000Y-8510000D02*
X15060000Y-8540000D01*
X15060000Y-8635000D02*
X15090000Y-8665000D01*
X15090000Y-8635000D02*
X15060000Y-8665000D01*
X15060000Y-8860000D02*
X15090000Y-8890000D01*
X15090000Y-8860000D02*
X15060000Y-8890000D01*
X15060000Y-8985000D02*
X15090000Y-9015000D01*
X15090000Y-8985000D02*
X15060000Y-9015000D01*
X15310000Y-8510000D02*
X15340000Y-8540000D01*
X15340000Y-8510000D02*
X15310000Y-8540000D01*
X15310000Y-8635000D02*
X15340000Y-8665000D01*
X15340000Y-8635000D02*
X15310000Y-8665000D01*
X15310000Y-8860000D02*
X15340000Y-8890000D01*
X15340000Y-8860000D02*
X15310000Y-8890000D01*
X15310000Y-8985000D02*
X15340000Y-9015000D01*
X15340000Y-8985000D02*
X15310000Y-9015000D01*
X15460000Y-8564000D02*
X15490000Y-8594000D01*
X15490000Y-8564000D02*
X15460000Y-8594000D01*
X15463000Y-8939000D02*
X15493000Y-8969000D01*
X15493000Y-8939000D02*
X15463000Y-8969000D01*
X15466000Y-9229000D02*
X15496000Y-9259000D01*
X15496000Y-9229000D02*
X15466000Y-9259000D01*
X15560000Y-8985000D02*
X15590000Y-9015000D01*
X15590000Y-8985000D02*
X15560000Y-9015000D01*
X15810000Y-8985000D02*
X15840000Y-9015000D01*
X15840000Y-8985000D02*
X15810000Y-9015000D01*
X15841000Y-8560000D02*
X15871000Y-8590000D01*
X15871000Y-8560000D02*
X15841000Y-8590000D01*
X16065000Y-8477000D02*
X16095000Y-8507000D01*
X16095000Y-8477000D02*
X16065000Y-8507000D01*
X16066000Y-9114000D02*
X16096000Y-9144000D01*
X16096000Y-9114000D02*
X16066000Y-9144000D01*
X16070000Y-8660000D02*
X16100000Y-8690000D01*
X16100000Y-8660000D02*
X16070000Y-8690000D01*
X16071000Y-8885000D02*
X16101000Y-8915000D01*
X16101000Y-8885000D02*
X16071000Y-8915000D01*
D12*
X6170000Y-6800000D02*
G75*
G03*
X6170000Y-6800000I-20000J0D01*
G01*
X6170000Y-7050000D02*
G75*
G03*
X6170000Y-7050000I-20000J0D01*
G01*
X6170000Y-7300000D02*
G75*
G03*
X6170000Y-7300000I-20000J0D01*
G01*
X6170000Y-7550000D02*
G75*
G03*
X6170000Y-7550000I-20000J0D01*
G01*
X6170000Y-7800000D02*
G75*
G03*
X6170000Y-7800000I-20000J0D01*
G01*
X6170000Y-8050000D02*
G75*
G03*
X6170000Y-8050000I-20000J0D01*
G01*
X6170000Y-8950000D02*
G75*
G03*
X6170000Y-8950000I-20000J0D01*
G01*
X6170000Y-9200000D02*
G75*
G03*
X6170000Y-9200000I-20000J0D01*
G01*
X6170000Y-9450000D02*
G75*
G03*
X6170000Y-9450000I-20000J0D01*
G01*
X6320000Y-4750000D02*
G75*
G03*
X6320000Y-4750000I-20000J0D01*
G01*
X6320000Y-5000000D02*
G75*
G03*
X6320000Y-5000000I-20000J0D01*
G01*
X6420000Y-6800000D02*
G75*
G03*
X6420000Y-6800000I-20000J0D01*
G01*
X6420000Y-7050000D02*
G75*
G03*
X6420000Y-7050000I-20000J0D01*
G01*
X6420000Y-7300000D02*
G75*
G03*
X6420000Y-7300000I-20000J0D01*
G01*
X6420000Y-7550000D02*
G75*
G03*
X6420000Y-7550000I-20000J0D01*
G01*
X6420000Y-7800000D02*
G75*
G03*
X6420000Y-7800000I-20000J0D01*
G01*
X6420000Y-8050000D02*
G75*
G03*
X6420000Y-8050000I-20000J0D01*
G01*
X6420000Y-8950000D02*
G75*
G03*
X6420000Y-8950000I-20000J0D01*
G01*
X6420000Y-9200000D02*
G75*
G03*
X6420000Y-9200000I-20000J0D01*
G01*
X6420000Y-9450000D02*
G75*
G03*
X6420000Y-9450000I-20000J0D01*
G01*
X6420000Y-9700000D02*
G75*
G03*
X6420000Y-9700000I-20000J0D01*
G01*
X6420000Y-9950000D02*
G75*
G03*
X6420000Y-9950000I-20000J0D01*
G01*
X6500317Y-6380721D02*
G75*
G03*
X6500317Y-6380721I-20000J0D01*
G01*
X6500317Y-6590721D02*
G75*
G03*
X6500317Y-6590721I-20000J0D01*
G01*
X6502000Y-6485581D02*
G75*
G03*
X6502000Y-6485581I-20000J0D01*
G01*
X6570000Y-4250000D02*
G75*
G03*
X6570000Y-4250000I-20000J0D01*
G01*
X6570000Y-4500000D02*
G75*
G03*
X6570000Y-4500000I-20000J0D01*
G01*
X6570000Y-4750000D02*
G75*
G03*
X6570000Y-4750000I-20000J0D01*
G01*
X6570000Y-5000000D02*
G75*
G03*
X6570000Y-5000000I-20000J0D01*
G01*
X6670000Y-6800000D02*
G75*
G03*
X6670000Y-6800000I-20000J0D01*
G01*
X6670000Y-7050000D02*
G75*
G03*
X6670000Y-7050000I-20000J0D01*
G01*
X6670000Y-7300000D02*
G75*
G03*
X6670000Y-7300000I-20000J0D01*
G01*
X6670000Y-7550000D02*
G75*
G03*
X6670000Y-7550000I-20000J0D01*
G01*
X6670000Y-7800000D02*
G75*
G03*
X6670000Y-7800000I-20000J0D01*
G01*
X6670000Y-8050000D02*
G75*
G03*
X6670000Y-8050000I-20000J0D01*
G01*
X6670000Y-8950000D02*
G75*
G03*
X6670000Y-8950000I-20000J0D01*
G01*
X6670000Y-9200000D02*
G75*
G03*
X6670000Y-9200000I-20000J0D01*
G01*
X6670000Y-9450000D02*
G75*
G03*
X6670000Y-9450000I-20000J0D01*
G01*
X6670000Y-9700000D02*
G75*
G03*
X6670000Y-9700000I-20000J0D01*
G01*
X6670000Y-9950000D02*
G75*
G03*
X6670000Y-9950000I-20000J0D01*
G01*
X6820000Y-4250000D02*
G75*
G03*
X6820000Y-4250000I-20000J0D01*
G01*
X6820000Y-4500000D02*
G75*
G03*
X6820000Y-4500000I-20000J0D01*
G01*
X6820000Y-4750000D02*
G75*
G03*
X6820000Y-4750000I-20000J0D01*
G01*
X6820000Y-5000000D02*
G75*
G03*
X6820000Y-5000000I-20000J0D01*
G01*
X6920000Y-6800000D02*
G75*
G03*
X6920000Y-6800000I-20000J0D01*
G01*
X6920000Y-7050000D02*
G75*
G03*
X6920000Y-7050000I-20000J0D01*
G01*
X6920000Y-7300000D02*
G75*
G03*
X6920000Y-7300000I-20000J0D01*
G01*
X6920000Y-7550000D02*
G75*
G03*
X6920000Y-7550000I-20000J0D01*
G01*
X6920000Y-7800000D02*
G75*
G03*
X6920000Y-7800000I-20000J0D01*
G01*
X6920000Y-8050000D02*
G75*
G03*
X6920000Y-8050000I-20000J0D01*
G01*
X6920000Y-8950000D02*
G75*
G03*
X6920000Y-8950000I-20000J0D01*
G01*
X6920000Y-9200000D02*
G75*
G03*
X6920000Y-9200000I-20000J0D01*
G01*
X6920000Y-9450000D02*
G75*
G03*
X6920000Y-9450000I-20000J0D01*
G01*
X6920000Y-9700000D02*
G75*
G03*
X6920000Y-9700000I-20000J0D01*
G01*
X6920000Y-9950000D02*
G75*
G03*
X6920000Y-9950000I-20000J0D01*
G01*
X7050000Y-8534000D02*
G75*
G03*
X7050000Y-8534000I-20000J0D01*
G01*
X7070000Y-4250000D02*
G75*
G03*
X7070000Y-4250000I-20000J0D01*
G01*
X7070000Y-4500000D02*
G75*
G03*
X7070000Y-4500000I-20000J0D01*
G01*
X7070000Y-4750000D02*
G75*
G03*
X7070000Y-4750000I-20000J0D01*
G01*
X7127000Y-5088721D02*
G75*
G03*
X7127000Y-5088721I-20000J0D01*
G01*
X7170000Y-6800000D02*
G75*
G03*
X7170000Y-6800000I-20000J0D01*
G01*
X7170000Y-7050000D02*
G75*
G03*
X7170000Y-7050000I-20000J0D01*
G01*
X7170000Y-7300000D02*
G75*
G03*
X7170000Y-7300000I-20000J0D01*
G01*
X7170000Y-7550000D02*
G75*
G03*
X7170000Y-7550000I-20000J0D01*
G01*
X7170000Y-7800000D02*
G75*
G03*
X7170000Y-7800000I-20000J0D01*
G01*
X7170000Y-8050000D02*
G75*
G03*
X7170000Y-8050000I-20000J0D01*
G01*
X7170000Y-8950000D02*
G75*
G03*
X7170000Y-8950000I-20000J0D01*
G01*
X7170000Y-9200000D02*
G75*
G03*
X7170000Y-9200000I-20000J0D01*
G01*
X7170000Y-9450000D02*
G75*
G03*
X7170000Y-9450000I-20000J0D01*
G01*
X7170000Y-9700000D02*
G75*
G03*
X7170000Y-9700000I-20000J0D01*
G01*
X7170000Y-9950000D02*
G75*
G03*
X7170000Y-9950000I-20000J0D01*
G01*
X7267000Y-5088721D02*
G75*
G03*
X7267000Y-5088721I-20000J0D01*
G01*
X7320000Y-4250000D02*
G75*
G03*
X7320000Y-4250000I-20000J0D01*
G01*
X7320000Y-4500000D02*
G75*
G03*
X7320000Y-4500000I-20000J0D01*
G01*
X7320000Y-4750000D02*
G75*
G03*
X7320000Y-4750000I-20000J0D01*
G01*
X7417000Y-5088721D02*
G75*
G03*
X7417000Y-5088721I-20000J0D01*
G01*
X7417000Y-5198721D02*
G75*
G03*
X7417000Y-5198721I-20000J0D01*
G01*
X7420000Y-6800000D02*
G75*
G03*
X7420000Y-6800000I-20000J0D01*
G01*
X7420000Y-7050000D02*
G75*
G03*
X7420000Y-7050000I-20000J0D01*
G01*
X7420000Y-7300000D02*
G75*
G03*
X7420000Y-7300000I-20000J0D01*
G01*
X7420000Y-7550000D02*
G75*
G03*
X7420000Y-7550000I-20000J0D01*
G01*
X7420000Y-7800000D02*
G75*
G03*
X7420000Y-7800000I-20000J0D01*
G01*
X7420000Y-8050000D02*
G75*
G03*
X7420000Y-8050000I-20000J0D01*
G01*
X7420000Y-8300000D02*
G75*
G03*
X7420000Y-8300000I-20000J0D01*
G01*
X7420000Y-8950000D02*
G75*
G03*
X7420000Y-8950000I-20000J0D01*
G01*
X7420000Y-9200000D02*
G75*
G03*
X7420000Y-9200000I-20000J0D01*
G01*
X7420000Y-9450000D02*
G75*
G03*
X7420000Y-9450000I-20000J0D01*
G01*
X7420000Y-9700000D02*
G75*
G03*
X7420000Y-9700000I-20000J0D01*
G01*
X7420000Y-9950000D02*
G75*
G03*
X7420000Y-9950000I-20000J0D01*
G01*
X7570000Y-4250000D02*
G75*
G03*
X7570000Y-4250000I-20000J0D01*
G01*
X7570000Y-4500000D02*
G75*
G03*
X7570000Y-4500000I-20000J0D01*
G01*
X7570000Y-4750000D02*
G75*
G03*
X7570000Y-4750000I-20000J0D01*
G01*
X7670000Y-6800000D02*
G75*
G03*
X7670000Y-6800000I-20000J0D01*
G01*
X7670000Y-7050000D02*
G75*
G03*
X7670000Y-7050000I-20000J0D01*
G01*
X7670000Y-7300000D02*
G75*
G03*
X7670000Y-7300000I-20000J0D01*
G01*
X7670000Y-7550000D02*
G75*
G03*
X7670000Y-7550000I-20000J0D01*
G01*
X7670000Y-7800000D02*
G75*
G03*
X7670000Y-7800000I-20000J0D01*
G01*
X7670000Y-8050000D02*
G75*
G03*
X7670000Y-8050000I-20000J0D01*
G01*
X7670000Y-8300000D02*
G75*
G03*
X7670000Y-8300000I-20000J0D01*
G01*
X7670000Y-8950000D02*
G75*
G03*
X7670000Y-8950000I-20000J0D01*
G01*
X7670000Y-9200000D02*
G75*
G03*
X7670000Y-9200000I-20000J0D01*
G01*
X7670000Y-9450000D02*
G75*
G03*
X7670000Y-9450000I-20000J0D01*
G01*
X7670000Y-9700000D02*
G75*
G03*
X7670000Y-9700000I-20000J0D01*
G01*
X7670000Y-9950000D02*
G75*
G03*
X7670000Y-9950000I-20000J0D01*
G01*
X7820000Y-4250000D02*
G75*
G03*
X7820000Y-4250000I-20000J0D01*
G01*
X7820000Y-4500000D02*
G75*
G03*
X7820000Y-4500000I-20000J0D01*
G01*
X7820000Y-4750000D02*
G75*
G03*
X7820000Y-4750000I-20000J0D01*
G01*
X7820000Y-5000000D02*
G75*
G03*
X7820000Y-5000000I-20000J0D01*
G01*
X7842000Y-5438721D02*
G75*
G03*
X7842000Y-5438721I-20000J0D01*
G01*
X7842000Y-5713721D02*
G75*
G03*
X7842000Y-5713721I-20000J0D01*
G01*
X7920000Y-6800000D02*
G75*
G03*
X7920000Y-6800000I-20000J0D01*
G01*
X7920000Y-8050000D02*
G75*
G03*
X7920000Y-8050000I-20000J0D01*
G01*
X7920000Y-8950000D02*
G75*
G03*
X7920000Y-8950000I-20000J0D01*
G01*
X7920000Y-9200000D02*
G75*
G03*
X7920000Y-9200000I-20000J0D01*
G01*
X7920000Y-9450000D02*
G75*
G03*
X7920000Y-9450000I-20000J0D01*
G01*
X7920000Y-9700000D02*
G75*
G03*
X7920000Y-9700000I-20000J0D01*
G01*
X7920000Y-9950000D02*
G75*
G03*
X7920000Y-9950000I-20000J0D01*
G01*
X8050000Y-7806250D02*
G75*
G03*
X8050000Y-7806250I-20000J0D01*
G01*
X8070000Y-4250000D02*
G75*
G03*
X8070000Y-4250000I-20000J0D01*
G01*
X8070000Y-4500000D02*
G75*
G03*
X8070000Y-4500000I-20000J0D01*
G01*
X8070000Y-4750000D02*
G75*
G03*
X8070000Y-4750000I-20000J0D01*
G01*
X8070000Y-5000000D02*
G75*
G03*
X8070000Y-5000000I-20000J0D01*
G01*
X8092000Y-5213721D02*
G75*
G03*
X8092000Y-5213721I-20000J0D01*
G01*
X8092000Y-5438721D02*
G75*
G03*
X8092000Y-5438721I-20000J0D01*
G01*
X8092000Y-5713721D02*
G75*
G03*
X8092000Y-5713721I-20000J0D01*
G01*
X8152500Y-8822500D02*
G75*
G03*
X8152500Y-8822500I-20000J0D01*
G01*
X8170000Y-6800000D02*
G75*
G03*
X8170000Y-6800000I-20000J0D01*
G01*
X8170000Y-8050000D02*
G75*
G03*
X8170000Y-8050000I-20000J0D01*
G01*
X8170000Y-8950000D02*
G75*
G03*
X8170000Y-8950000I-20000J0D01*
G01*
X8170000Y-9200000D02*
G75*
G03*
X8170000Y-9200000I-20000J0D01*
G01*
X8170000Y-9450000D02*
G75*
G03*
X8170000Y-9450000I-20000J0D01*
G01*
X8170000Y-9700000D02*
G75*
G03*
X8170000Y-9700000I-20000J0D01*
G01*
X8170000Y-9950000D02*
G75*
G03*
X8170000Y-9950000I-20000J0D01*
G01*
X8320000Y-4250000D02*
G75*
G03*
X8320000Y-4250000I-20000J0D01*
G01*
X8320000Y-4500000D02*
G75*
G03*
X8320000Y-4500000I-20000J0D01*
G01*
X8320000Y-4750000D02*
G75*
G03*
X8320000Y-4750000I-20000J0D01*
G01*
X8320000Y-5000000D02*
G75*
G03*
X8320000Y-5000000I-20000J0D01*
G01*
X8342000Y-5213721D02*
G75*
G03*
X8342000Y-5213721I-20000J0D01*
G01*
X8342000Y-5438721D02*
G75*
G03*
X8342000Y-5438721I-20000J0D01*
G01*
X8420000Y-6550000D02*
G75*
G03*
X8420000Y-6550000I-20000J0D01*
G01*
X8420000Y-6800000D02*
G75*
G03*
X8420000Y-6800000I-20000J0D01*
G01*
X8420000Y-8950000D02*
G75*
G03*
X8420000Y-8950000I-20000J0D01*
G01*
X8420000Y-9200000D02*
G75*
G03*
X8420000Y-9200000I-20000J0D01*
G01*
X8420000Y-9450000D02*
G75*
G03*
X8420000Y-9450000I-20000J0D01*
G01*
X8420000Y-9700000D02*
G75*
G03*
X8420000Y-9700000I-20000J0D01*
G01*
X8420000Y-9950000D02*
G75*
G03*
X8420000Y-9950000I-20000J0D01*
G01*
X8476455Y-5818769D02*
G75*
G03*
X8476455Y-5818769I-20000J0D01*
G01*
X8477000Y-5668721D02*
G75*
G03*
X8477000Y-5668721I-20000J0D01*
G01*
X8570000Y-4250000D02*
G75*
G03*
X8570000Y-4250000I-20000J0D01*
G01*
X8570000Y-4500000D02*
G75*
G03*
X8570000Y-4500000I-20000J0D01*
G01*
X8570000Y-4750000D02*
G75*
G03*
X8570000Y-4750000I-20000J0D01*
G01*
X8570000Y-5000000D02*
G75*
G03*
X8570000Y-5000000I-20000J0D01*
G01*
X8592000Y-5213721D02*
G75*
G03*
X8592000Y-5213721I-20000J0D01*
G01*
X8642000Y-5818721D02*
G75*
G03*
X8642000Y-5818721I-20000J0D01*
G01*
X8670000Y-6550000D02*
G75*
G03*
X8670000Y-6550000I-20000J0D01*
G01*
X8670000Y-6800000D02*
G75*
G03*
X8670000Y-6800000I-20000J0D01*
G01*
X8670000Y-8950000D02*
G75*
G03*
X8670000Y-8950000I-20000J0D01*
G01*
X8670000Y-9200000D02*
G75*
G03*
X8670000Y-9200000I-20000J0D01*
G01*
X8670000Y-9450000D02*
G75*
G03*
X8670000Y-9450000I-20000J0D01*
G01*
X8670000Y-9700000D02*
G75*
G03*
X8670000Y-9700000I-20000J0D01*
G01*
X8670000Y-9950000D02*
G75*
G03*
X8670000Y-9950000I-20000J0D01*
G01*
X8817000Y-5213721D02*
G75*
G03*
X8817000Y-5213721I-20000J0D01*
G01*
X8820000Y-4250000D02*
G75*
G03*
X8820000Y-4250000I-20000J0D01*
G01*
X8820000Y-4500000D02*
G75*
G03*
X8820000Y-4500000I-20000J0D01*
G01*
X8820000Y-4750000D02*
G75*
G03*
X8820000Y-4750000I-20000J0D01*
G01*
X8820000Y-5000000D02*
G75*
G03*
X8820000Y-5000000I-20000J0D01*
G01*
X8920000Y-6550000D02*
G75*
G03*
X8920000Y-6550000I-20000J0D01*
G01*
X8920000Y-6800000D02*
G75*
G03*
X8920000Y-6800000I-20000J0D01*
G01*
X8920000Y-8950000D02*
G75*
G03*
X8920000Y-8950000I-20000J0D01*
G01*
X8920000Y-9200000D02*
G75*
G03*
X8920000Y-9200000I-20000J0D01*
G01*
X8920000Y-9450000D02*
G75*
G03*
X8920000Y-9450000I-20000J0D01*
G01*
X8920000Y-9700000D02*
G75*
G03*
X8920000Y-9700000I-20000J0D01*
G01*
X8920000Y-9950000D02*
G75*
G03*
X8920000Y-9950000I-20000J0D01*
G01*
X8987500Y-8615000D02*
G75*
G03*
X8987500Y-8615000I-20000J0D01*
G01*
X9070000Y-4250000D02*
G75*
G03*
X9070000Y-4250000I-20000J0D01*
G01*
X9070000Y-4500000D02*
G75*
G03*
X9070000Y-4500000I-20000J0D01*
G01*
X9070000Y-4750000D02*
G75*
G03*
X9070000Y-4750000I-20000J0D01*
G01*
X9070000Y-5000000D02*
G75*
G03*
X9070000Y-5000000I-20000J0D01*
G01*
X9170000Y-8950000D02*
G75*
G03*
X9170000Y-8950000I-20000J0D01*
G01*
X9170000Y-9200000D02*
G75*
G03*
X9170000Y-9200000I-20000J0D01*
G01*
X9170000Y-9450000D02*
G75*
G03*
X9170000Y-9450000I-20000J0D01*
G01*
X9170000Y-9700000D02*
G75*
G03*
X9170000Y-9700000I-20000J0D01*
G01*
X9170000Y-9950000D02*
G75*
G03*
X9170000Y-9950000I-20000J0D01*
G01*
X9320000Y-4250000D02*
G75*
G03*
X9320000Y-4250000I-20000J0D01*
G01*
X9320000Y-4500000D02*
G75*
G03*
X9320000Y-4500000I-20000J0D01*
G01*
X9320000Y-4750000D02*
G75*
G03*
X9320000Y-4750000I-20000J0D01*
G01*
X9320000Y-5000000D02*
G75*
G03*
X9320000Y-5000000I-20000J0D01*
G01*
X9320000Y-6400000D02*
G75*
G03*
X9320000Y-6400000I-20000J0D01*
G01*
X9320000Y-6650000D02*
G75*
G03*
X9320000Y-6650000I-20000J0D01*
G01*
X9365000Y-8137500D02*
G75*
G03*
X9365000Y-8137500I-20000J0D01*
G01*
X9365000Y-8460000D02*
G75*
G03*
X9365000Y-8460000I-20000J0D01*
G01*
X9410000Y-7975000D02*
G75*
G03*
X9410000Y-7975000I-20000J0D01*
G01*
X9420000Y-8950000D02*
G75*
G03*
X9420000Y-8950000I-20000J0D01*
G01*
X9420000Y-9200000D02*
G75*
G03*
X9420000Y-9200000I-20000J0D01*
G01*
X9420000Y-9450000D02*
G75*
G03*
X9420000Y-9450000I-20000J0D01*
G01*
X9420000Y-9700000D02*
G75*
G03*
X9420000Y-9700000I-20000J0D01*
G01*
X9420000Y-9950000D02*
G75*
G03*
X9420000Y-9950000I-20000J0D01*
G01*
X9515317Y-5305721D02*
G75*
G03*
X9515317Y-5305721I-20000J0D01*
G01*
X9570000Y-4250000D02*
G75*
G03*
X9570000Y-4250000I-20000J0D01*
G01*
X9570000Y-4500000D02*
G75*
G03*
X9570000Y-4500000I-20000J0D01*
G01*
X9570000Y-5650000D02*
G75*
G03*
X9570000Y-5650000I-20000J0D01*
G01*
X9570000Y-5900000D02*
G75*
G03*
X9570000Y-5900000I-20000J0D01*
G01*
X9570000Y-6150000D02*
G75*
G03*
X9570000Y-6150000I-20000J0D01*
G01*
X9570000Y-6400000D02*
G75*
G03*
X9570000Y-6400000I-20000J0D01*
G01*
X9570000Y-6650000D02*
G75*
G03*
X9570000Y-6650000I-20000J0D01*
G01*
X9650317Y-4750721D02*
G75*
G03*
X9650317Y-4750721I-20000J0D01*
G01*
X9670000Y-9950000D02*
G75*
G03*
X9670000Y-9950000I-20000J0D01*
G01*
X9785000Y-7600000D02*
G75*
G03*
X9785000Y-7600000I-20000J0D01*
G01*
X9820000Y-4250000D02*
G75*
G03*
X9820000Y-4250000I-20000J0D01*
G01*
X9820000Y-4500000D02*
G75*
G03*
X9820000Y-4500000I-20000J0D01*
G01*
X9820000Y-5650000D02*
G75*
G03*
X9820000Y-5650000I-20000J0D01*
G01*
X9820000Y-5900000D02*
G75*
G03*
X9820000Y-5900000I-20000J0D01*
G01*
X9820000Y-6150000D02*
G75*
G03*
X9820000Y-6150000I-20000J0D01*
G01*
X9820000Y-6400000D02*
G75*
G03*
X9820000Y-6400000I-20000J0D01*
G01*
X9820000Y-6650000D02*
G75*
G03*
X9820000Y-6650000I-20000J0D01*
G01*
X9920000Y-9950000D02*
G75*
G03*
X9920000Y-9950000I-20000J0D01*
G01*
X10070000Y-4250000D02*
G75*
G03*
X10070000Y-4250000I-20000J0D01*
G01*
X10070000Y-4500000D02*
G75*
G03*
X10070000Y-4500000I-20000J0D01*
G01*
X10070000Y-4750000D02*
G75*
G03*
X10070000Y-4750000I-20000J0D01*
G01*
X10070000Y-5000000D02*
G75*
G03*
X10070000Y-5000000I-20000J0D01*
G01*
X10070000Y-5650000D02*
G75*
G03*
X10070000Y-5650000I-20000J0D01*
G01*
X10070000Y-5900000D02*
G75*
G03*
X10070000Y-5900000I-20000J0D01*
G01*
X10070000Y-6400000D02*
G75*
G03*
X10070000Y-6400000I-20000J0D01*
G01*
X10070000Y-6650000D02*
G75*
G03*
X10070000Y-6650000I-20000J0D01*
G01*
X10080317Y-5490721D02*
G75*
G03*
X10080317Y-5490721I-20000J0D01*
G01*
X10170000Y-9950000D02*
G75*
G03*
X10170000Y-9950000I-20000J0D01*
G01*
X10177500Y-8965000D02*
G75*
G03*
X10177500Y-8965000I-20000J0D01*
G01*
X10255000Y-7600000D02*
G75*
G03*
X10255000Y-7600000I-20000J0D01*
G01*
X10320000Y-4250000D02*
G75*
G03*
X10320000Y-4250000I-20000J0D01*
G01*
X10320000Y-4500000D02*
G75*
G03*
X10320000Y-4500000I-20000J0D01*
G01*
X10320000Y-4750000D02*
G75*
G03*
X10320000Y-4750000I-20000J0D01*
G01*
X10320000Y-5000000D02*
G75*
G03*
X10320000Y-5000000I-20000J0D01*
G01*
X10320000Y-5650000D02*
G75*
G03*
X10320000Y-5650000I-20000J0D01*
G01*
X10320000Y-5900000D02*
G75*
G03*
X10320000Y-5900000I-20000J0D01*
G01*
X10320000Y-6150000D02*
G75*
G03*
X10320000Y-6150000I-20000J0D01*
G01*
X10320000Y-6400000D02*
G75*
G03*
X10320000Y-6400000I-20000J0D01*
G01*
X10320000Y-6650000D02*
G75*
G03*
X10320000Y-6650000I-20000J0D01*
G01*
X10357500Y-8965000D02*
G75*
G03*
X10357500Y-8965000I-20000J0D01*
G01*
X10364500Y-7987000D02*
G75*
G03*
X10364500Y-7987000I-20000J0D01*
G01*
X10420000Y-9950000D02*
G75*
G03*
X10420000Y-9950000I-20000J0D01*
G01*
X10480000Y-8705000D02*
G75*
G03*
X10480000Y-8705000I-20000J0D01*
G01*
X10570000Y-4250000D02*
G75*
G03*
X10570000Y-4250000I-20000J0D01*
G01*
X10570000Y-4500000D02*
G75*
G03*
X10570000Y-4500000I-20000J0D01*
G01*
X10570000Y-4750000D02*
G75*
G03*
X10570000Y-4750000I-20000J0D01*
G01*
X10570000Y-5000000D02*
G75*
G03*
X10570000Y-5000000I-20000J0D01*
G01*
X10570000Y-5650000D02*
G75*
G03*
X10570000Y-5650000I-20000J0D01*
G01*
X10570000Y-5900000D02*
G75*
G03*
X10570000Y-5900000I-20000J0D01*
G01*
X10570000Y-6150000D02*
G75*
G03*
X10570000Y-6150000I-20000J0D01*
G01*
X10570000Y-6400000D02*
G75*
G03*
X10570000Y-6400000I-20000J0D01*
G01*
X10570000Y-6650000D02*
G75*
G03*
X10570000Y-6650000I-20000J0D01*
G01*
X10670000Y-9950000D02*
G75*
G03*
X10670000Y-9950000I-20000J0D01*
G01*
X10720317Y-5290721D02*
G75*
G03*
X10720317Y-5290721I-20000J0D01*
G01*
X10760317Y-5160721D02*
G75*
G03*
X10760317Y-5160721I-20000J0D01*
G01*
X10820000Y-4250000D02*
G75*
G03*
X10820000Y-4250000I-20000J0D01*
G01*
X10820000Y-4500000D02*
G75*
G03*
X10820000Y-4500000I-20000J0D01*
G01*
X10820000Y-6400000D02*
G75*
G03*
X10820000Y-6400000I-20000J0D01*
G01*
X10820000Y-6650000D02*
G75*
G03*
X10820000Y-6650000I-20000J0D01*
G01*
X10950317Y-4900721D02*
G75*
G03*
X10950317Y-4900721I-20000J0D01*
G01*
X11000317Y-4730721D02*
G75*
G03*
X11000317Y-4730721I-20000J0D01*
G01*
X11050317Y-5670721D02*
G75*
G03*
X11050317Y-5670721I-20000J0D01*
G01*
X11070000Y-4250000D02*
G75*
G03*
X11070000Y-4250000I-20000J0D01*
G01*
X11070000Y-6400000D02*
G75*
G03*
X11070000Y-6400000I-20000J0D01*
G01*
X11070000Y-6650000D02*
G75*
G03*
X11070000Y-6650000I-20000J0D01*
G01*
X11070317Y-5450721D02*
G75*
G03*
X11070317Y-5450721I-20000J0D01*
G01*
X11090000Y-7600721D02*
G75*
G03*
X11090000Y-7600721I-20000J0D01*
G01*
X11105720Y-8140508D02*
G75*
G03*
X11105720Y-8140508I-20000J0D01*
G01*
X11140317Y-4560721D02*
G75*
G03*
X11140317Y-4560721I-20000J0D01*
G01*
X11320000Y-4250000D02*
G75*
G03*
X11320000Y-4250000I-20000J0D01*
G01*
X11320000Y-6400000D02*
G75*
G03*
X11320000Y-6400000I-20000J0D01*
G01*
X11320000Y-6650000D02*
G75*
G03*
X11320000Y-6650000I-20000J0D01*
G01*
X11442817Y-8280721D02*
G75*
G03*
X11442817Y-8280721I-20000J0D01*
G01*
X11540317Y-4820721D02*
G75*
G03*
X11540317Y-4820721I-20000J0D01*
G01*
X11570000Y-6400000D02*
G75*
G03*
X11570000Y-6400000I-20000J0D01*
G01*
X11570000Y-6650000D02*
G75*
G03*
X11570000Y-6650000I-20000J0D01*
G01*
X11630317Y-8160721D02*
G75*
G03*
X11630317Y-8160721I-20000J0D01*
G01*
X11760317Y-5150721D02*
G75*
G03*
X11760317Y-5150721I-20000J0D01*
G01*
X11760317Y-7770721D02*
G75*
G03*
X11760317Y-7770721I-20000J0D01*
G01*
X11810317Y-4950721D02*
G75*
G03*
X11810317Y-4950721I-20000J0D01*
G01*
X11820000Y-6400000D02*
G75*
G03*
X11820000Y-6400000I-20000J0D01*
G01*
X11820000Y-6650000D02*
G75*
G03*
X11820000Y-6650000I-20000J0D01*
G01*
X11900000Y-5290000D02*
G75*
G03*
X11900000Y-5290000I-20000J0D01*
G01*
X11922817Y-8290721D02*
G75*
G03*
X11922817Y-8290721I-20000J0D01*
G01*
X11970000Y-4750000D02*
G75*
G03*
X11970000Y-4750000I-20000J0D01*
G01*
X11970000Y-5000000D02*
G75*
G03*
X11970000Y-5000000I-20000J0D01*
G01*
X12050000Y-6830000D02*
G75*
G03*
X12050000Y-6830000I-20000J0D01*
G01*
X12220000Y-4750000D02*
G75*
G03*
X12220000Y-4750000I-20000J0D01*
G01*
X12220000Y-5000000D02*
G75*
G03*
X12220000Y-5000000I-20000J0D01*
G01*
X12220317Y-9240721D02*
G75*
G03*
X12220317Y-9240721I-20000J0D01*
G01*
X12340000Y-5290000D02*
G75*
G03*
X12340000Y-5290000I-20000J0D01*
G01*
X12795317Y-9353221D02*
G75*
G03*
X12795317Y-9353221I-20000J0D01*
G01*
X12802817Y-8870721D02*
G75*
G03*
X12802817Y-8870721I-20000J0D01*
G01*
X12900000Y-5290000D02*
G75*
G03*
X12900000Y-5290000I-20000J0D01*
G01*
X12962817Y-8870721D02*
G75*
G03*
X12962817Y-8870721I-20000J0D01*
G01*
X12975317Y-9353221D02*
G75*
G03*
X12975317Y-9353221I-20000J0D01*
G01*
X13180000Y-6830000D02*
G75*
G03*
X13180000Y-6830000I-20000J0D01*
G01*
X13427817Y-8935721D02*
G75*
G03*
X13427817Y-8935721I-20000J0D01*
G01*
X13480000Y-5210000D02*
G75*
G03*
X13480000Y-5210000I-20000J0D01*
G01*
X13500000Y-6830000D02*
G75*
G03*
X13500000Y-6830000I-20000J0D01*
G01*
X13500000Y-9380000D02*
G75*
G03*
X13500000Y-9380000I-20000J0D01*
G01*
X13632817Y-9090721D02*
G75*
G03*
X13632817Y-9090721I-20000J0D01*
G01*
X13720000Y-9200000D02*
G75*
G03*
X13720000Y-9200000I-20000J0D01*
G01*
X13720000Y-9450000D02*
G75*
G03*
X13720000Y-9450000I-20000J0D01*
G01*
X13720000Y-9700000D02*
G75*
G03*
X13720000Y-9700000I-20000J0D01*
G01*
X13720000Y-9950000D02*
G75*
G03*
X13720000Y-9950000I-20000J0D01*
G01*
X13970000Y-9200000D02*
G75*
G03*
X13970000Y-9200000I-20000J0D01*
G01*
X13970000Y-9450000D02*
G75*
G03*
X13970000Y-9450000I-20000J0D01*
G01*
X13970000Y-9700000D02*
G75*
G03*
X13970000Y-9700000I-20000J0D01*
G01*
X13970000Y-9950000D02*
G75*
G03*
X13970000Y-9950000I-20000J0D01*
G01*
X14140000Y-4840000D02*
G75*
G03*
X14140000Y-4840000I-20000J0D01*
G01*
X14140000Y-5390000D02*
G75*
G03*
X14140000Y-5390000I-20000J0D01*
G01*
X14140000Y-5870000D02*
G75*
G03*
X14140000Y-5870000I-20000J0D01*
G01*
X14140000Y-6430000D02*
G75*
G03*
X14140000Y-6430000I-20000J0D01*
G01*
X14140000Y-6970000D02*
G75*
G03*
X14140000Y-6970000I-20000J0D01*
G01*
X14150000Y-6830000D02*
G75*
G03*
X14150000Y-6830000I-20000J0D01*
G01*
X14220000Y-7850000D02*
G75*
G03*
X14220000Y-7850000I-20000J0D01*
G01*
X14220000Y-8100000D02*
G75*
G03*
X14220000Y-8100000I-20000J0D01*
G01*
X14220000Y-8350000D02*
G75*
G03*
X14220000Y-8350000I-20000J0D01*
G01*
X14220000Y-9200000D02*
G75*
G03*
X14220000Y-9200000I-20000J0D01*
G01*
X14220000Y-9450000D02*
G75*
G03*
X14220000Y-9450000I-20000J0D01*
G01*
X14220000Y-9700000D02*
G75*
G03*
X14220000Y-9700000I-20000J0D01*
G01*
X14220000Y-9950000D02*
G75*
G03*
X14220000Y-9950000I-20000J0D01*
G01*
X14280000Y-5210000D02*
G75*
G03*
X14280000Y-5210000I-20000J0D01*
G01*
X14410000Y-5390000D02*
G75*
G03*
X14410000Y-5390000I-20000J0D01*
G01*
X14420000Y-5880000D02*
G75*
G03*
X14420000Y-5880000I-20000J0D01*
G01*
X14430000Y-6430000D02*
G75*
G03*
X14430000Y-6430000I-20000J0D01*
G01*
X14450000Y-6970000D02*
G75*
G03*
X14450000Y-6970000I-20000J0D01*
G01*
X14470000Y-7850000D02*
G75*
G03*
X14470000Y-7850000I-20000J0D01*
G01*
X14470000Y-8100000D02*
G75*
G03*
X14470000Y-8100000I-20000J0D01*
G01*
X14470000Y-8350000D02*
G75*
G03*
X14470000Y-8350000I-20000J0D01*
G01*
X14470000Y-9200000D02*
G75*
G03*
X14470000Y-9200000I-20000J0D01*
G01*
X14470000Y-9450000D02*
G75*
G03*
X14470000Y-9450000I-20000J0D01*
G01*
X14470000Y-9700000D02*
G75*
G03*
X14470000Y-9700000I-20000J0D01*
G01*
X14470000Y-9950000D02*
G75*
G03*
X14470000Y-9950000I-20000J0D01*
G01*
X14720000Y-7850000D02*
G75*
G03*
X14720000Y-7850000I-20000J0D01*
G01*
X14720000Y-8100000D02*
G75*
G03*
X14720000Y-8100000I-20000J0D01*
G01*
X14720000Y-8350000D02*
G75*
G03*
X14720000Y-8350000I-20000J0D01*
G01*
X14720000Y-9200000D02*
G75*
G03*
X14720000Y-9200000I-20000J0D01*
G01*
X14720000Y-9450000D02*
G75*
G03*
X14720000Y-9450000I-20000J0D01*
G01*
X14720000Y-9700000D02*
G75*
G03*
X14720000Y-9700000I-20000J0D01*
G01*
X14720000Y-9950000D02*
G75*
G03*
X14720000Y-9950000I-20000J0D01*
G01*
X14970000Y-7850000D02*
G75*
G03*
X14970000Y-7850000I-20000J0D01*
G01*
X14970000Y-8100000D02*
G75*
G03*
X14970000Y-8100000I-20000J0D01*
G01*
X14970000Y-8350000D02*
G75*
G03*
X14970000Y-8350000I-20000J0D01*
G01*
X14970000Y-9200000D02*
G75*
G03*
X14970000Y-9200000I-20000J0D01*
G01*
X14970000Y-9450000D02*
G75*
G03*
X14970000Y-9450000I-20000J0D01*
G01*
X14970000Y-9700000D02*
G75*
G03*
X14970000Y-9700000I-20000J0D01*
G01*
X14970000Y-9950000D02*
G75*
G03*
X14970000Y-9950000I-20000J0D01*
G01*
X15220000Y-7850000D02*
G75*
G03*
X15220000Y-7850000I-20000J0D01*
G01*
X15220000Y-8100000D02*
G75*
G03*
X15220000Y-8100000I-20000J0D01*
G01*
X15220000Y-8350000D02*
G75*
G03*
X15220000Y-8350000I-20000J0D01*
G01*
X15220000Y-9200000D02*
G75*
G03*
X15220000Y-9200000I-20000J0D01*
G01*
X15220000Y-9450000D02*
G75*
G03*
X15220000Y-9450000I-20000J0D01*
G01*
X15220000Y-9700000D02*
G75*
G03*
X15220000Y-9700000I-20000J0D01*
G01*
X15220000Y-9950000D02*
G75*
G03*
X15220000Y-9950000I-20000J0D01*
G01*
X15470000Y-8100000D02*
G75*
G03*
X15470000Y-8100000I-20000J0D01*
G01*
X15470000Y-8350000D02*
G75*
G03*
X15470000Y-8350000I-20000J0D01*
G01*
X15470000Y-9700000D02*
G75*
G03*
X15470000Y-9700000I-20000J0D01*
G01*
X15470000Y-9950000D02*
G75*
G03*
X15470000Y-9950000I-20000J0D01*
G01*
X15560317Y-5210000D02*
G75*
G03*
X15560317Y-5210000I-20000J0D01*
G01*
X15598000Y-9507000D02*
G75*
G03*
X15598000Y-9507000I-20000J0D01*
G01*
X15720000Y-9700000D02*
G75*
G03*
X15720000Y-9700000I-20000J0D01*
G01*
X15720000Y-9950000D02*
G75*
G03*
X15720000Y-9950000I-20000J0D01*
G01*
X15770000Y-4450000D02*
G75*
G03*
X15770000Y-4450000I-20000J0D01*
G01*
X15770000Y-4700000D02*
G75*
G03*
X15770000Y-4700000I-20000J0D01*
G01*
X15774000Y-9508000D02*
G75*
G03*
X15774000Y-9508000I-20000J0D01*
G01*
X15970000Y-9450000D02*
G75*
G03*
X15970000Y-9450000I-20000J0D01*
G01*
X15970000Y-9700000D02*
G75*
G03*
X15970000Y-9700000I-20000J0D01*
G01*
X15970000Y-9950000D02*
G75*
G03*
X15970000Y-9950000I-20000J0D01*
G01*
X16020000Y-4450000D02*
G75*
G03*
X16020000Y-4450000I-20000J0D01*
G01*
X16020000Y-4700000D02*
G75*
G03*
X16020000Y-4700000I-20000J0D01*
G01*
X16020000Y-4950000D02*
G75*
G03*
X16020000Y-4950000I-20000J0D01*
G01*
X16220000Y-9450000D02*
G75*
G03*
X16220000Y-9450000I-20000J0D01*
G01*
X16270000Y-4700000D02*
G75*
G03*
X16270000Y-4700000I-20000J0D01*
G01*
X16270000Y-4950000D02*
G75*
G03*
X16270000Y-4950000I-20000J0D01*
G01*
D13*
X16028000Y-8348500D02*
X16028000Y-8408500D01*
X15998000Y-8378500D02*
X16058000Y-8378500D01*
D10*
X15973000Y-8408500D02*
X16083000Y-8408500D01*
X16083000Y-8408500D02*
G75*
G03*
X16083000Y-8348500I0J30000D01*
G01*
X16083000Y-8348500D02*
X15973000Y-8348500D01*
X15973000Y-8348500D02*
G75*
G03*
X15973000Y-8408500I0J-30000D01*
G01*
D13*
X16028000Y-9213500D02*
X16028000Y-9273500D01*
X15998000Y-9243500D02*
X16058000Y-9243500D01*
D10*
X15973000Y-9273500D02*
X16083000Y-9273500D01*
X16083000Y-9273500D02*
G75*
G03*
X16083000Y-9213500I0J30000D01*
G01*
X16083000Y-9213500D02*
X15973000Y-9213500D01*
X15973000Y-9213500D02*
G75*
G03*
X15973000Y-9273500I0J-30000D01*
G01*
D13*
X16446000Y-8348500D02*
X16446000Y-8408500D01*
X16416000Y-8378500D02*
X16476000Y-8378500D01*
D10*
X16391000Y-8408500D02*
X16501000Y-8408500D01*
X16501000Y-8408500D02*
G75*
G03*
X16501000Y-8348500I0J30000D01*
G01*
X16501000Y-8348500D02*
X16391000Y-8348500D01*
X16391000Y-8348500D02*
G75*
G03*
X16391000Y-8408500I0J-30000D01*
G01*
D13*
X16446000Y-9213500D02*
X16446000Y-9273500D01*
X16416000Y-9243500D02*
X16476000Y-9243500D01*
D10*
X16391000Y-9273500D02*
X16501000Y-9273500D01*
X16501000Y-9273500D02*
G75*
G03*
X16501000Y-9213500I0J30000D01*
G01*
X16501000Y-9213500D02*
X16391000Y-9213500D01*
X16391000Y-9213500D02*
G75*
G03*
X16391000Y-9273500I0J-30000D01*
G01*
D14*
X10028285Y-9488285D02*
X10028285Y-9431716D01*
X9971716Y-9431716D01*
X9971716Y-9488285D01*
X10028285Y-9488285D01*
X10516285Y-9488285D02*
X10516285Y-9431716D01*
X10459716Y-9431716D01*
X10459716Y-9488285D01*
X10516285Y-9488285D01*
X12648101Y-9889005D02*
X12648101Y-9832436D01*
X12591532Y-9832436D01*
X12591532Y-9889005D01*
X12648101Y-9889005D01*
X13136101Y-9889005D02*
X13136101Y-9832436D01*
X13079532Y-9832436D01*
X13079532Y-9889005D01*
X13136101Y-9889005D01*
D15*
X6120000Y-8450000D02*
X6170000Y-8400000D01*
X6120000Y-8350000D01*
X6070000Y-8400000D01*
X6120000Y-8450000D01*
X6120000Y-8704000D02*
X6170000Y-8654000D01*
X6120000Y-8604000D01*
X6070000Y-8654000D01*
X6120000Y-8704000D01*
X6150317Y-5434221D02*
X6200317Y-5384221D01*
X6150317Y-5334221D01*
X6100317Y-5384221D01*
X6150317Y-5434221D01*
X6150317Y-5688221D02*
X6200317Y-5638221D01*
X6150317Y-5588221D01*
X6100317Y-5638221D01*
X6150317Y-5688221D01*
X10943817Y-10010721D02*
X10993817Y-9960721D01*
X10943817Y-9910721D01*
X10893817Y-9960721D01*
X10943817Y-10010721D01*
X11197817Y-10010721D02*
X11247817Y-9960721D01*
X11197817Y-9910721D01*
X11147817Y-9960721D01*
X11197817Y-10010721D01*
X11451817Y-10010721D02*
X11501817Y-9960721D01*
X11451817Y-9910721D01*
X11401817Y-9960721D01*
X11451817Y-10010721D01*
X11705817Y-10010721D02*
X11755817Y-9960721D01*
X11705817Y-9910721D01*
X11655817Y-9960721D01*
X11705817Y-10010721D01*
X11849500Y-4250000D02*
X11899500Y-4200000D01*
X11849500Y-4150000D01*
X11799500Y-4200000D01*
X11849500Y-4250000D01*
X12103500Y-4250000D02*
X12153500Y-4200000D01*
X12103500Y-4150000D01*
X12053500Y-4200000D01*
X12103500Y-4250000D01*
X12357500Y-4250000D02*
X12407500Y-4200000D01*
X12357500Y-4150000D01*
X12307500Y-4200000D01*
X12357500Y-4250000D01*
X12611500Y-4250000D02*
X12661500Y-4200000D01*
X12611500Y-4150000D01*
X12561500Y-4200000D01*
X12611500Y-4250000D01*
X12865500Y-4250000D02*
X12915500Y-4200000D01*
X12865500Y-4150000D01*
X12815500Y-4200000D01*
X12865500Y-4250000D01*
X13119500Y-4250000D02*
X13169500Y-4200000D01*
X13119500Y-4150000D01*
X13069500Y-4200000D01*
X13119500Y-4250000D01*
X13373500Y-4250000D02*
X13423500Y-4200000D01*
X13373500Y-4150000D01*
X13323500Y-4200000D01*
X13373500Y-4250000D01*
X13627500Y-4250000D02*
X13677500Y-4200000D01*
X13627500Y-4150000D01*
X13577500Y-4200000D01*
X13627500Y-4250000D01*
X14050000Y-4250000D02*
X14100000Y-4200000D01*
X14050000Y-4150000D01*
X14000000Y-4200000D01*
X14050000Y-4250000D01*
X14304000Y-4250000D02*
X14354000Y-4200000D01*
X14304000Y-4150000D01*
X14254000Y-4200000D01*
X14304000Y-4250000D01*
X14558000Y-4250000D02*
X14608000Y-4200000D01*
X14558000Y-4150000D01*
X14508000Y-4200000D01*
X14558000Y-4250000D01*
X14812000Y-4250000D02*
X14862000Y-4200000D01*
X14812000Y-4150000D01*
X14762000Y-4200000D01*
X14812000Y-4250000D01*
X15266000Y-4250000D02*
X15316000Y-4200000D01*
X15266000Y-4150000D01*
X15216000Y-4200000D01*
X15266000Y-4250000D01*
X15520000Y-4250000D02*
X15570000Y-4200000D01*
X15520000Y-4150000D01*
X15470000Y-4200000D01*
X15520000Y-4250000D01*
X15774000Y-4250000D02*
X15824000Y-4200000D01*
X15774000Y-4150000D01*
X15724000Y-4200000D01*
X15774000Y-4250000D01*
X16410317Y-7583221D02*
X16460317Y-7533221D01*
X16410317Y-7483221D01*
X16360317Y-7533221D01*
X16410317Y-7583221D01*
X16410317Y-7837221D02*
X16460317Y-7787221D01*
X16410317Y-7737221D01*
X16360317Y-7787221D01*
X16410317Y-7837221D01*
X16420317Y-5275221D02*
X16470317Y-5225221D01*
X16420317Y-5175221D01*
X16370317Y-5225221D01*
X16420317Y-5275221D01*
X16420317Y-5529221D02*
X16470317Y-5479221D01*
X16420317Y-5429221D01*
X16370317Y-5479221D01*
X16420317Y-5529221D01*
X16420317Y-5783221D02*
X16470317Y-5733221D01*
X16420317Y-5683221D01*
X16370317Y-5733221D01*
X16420317Y-5783221D01*
X16420317Y-6037221D02*
X16470317Y-5987221D01*
X16420317Y-5937221D01*
X16370317Y-5987221D01*
X16420317Y-6037221D01*
X16420317Y-6291221D02*
X16470317Y-6241221D01*
X16420317Y-6191221D01*
X16370317Y-6241221D01*
X16420317Y-6291221D01*
X16420317Y-6545221D02*
X16470317Y-6495221D01*
X16420317Y-6445221D01*
X16370317Y-6495221D01*
X16420317Y-6545221D01*
X16420317Y-6799221D02*
X16470317Y-6749221D01*
X16420317Y-6699221D01*
X16370317Y-6749221D01*
X16420317Y-6799221D01*
X16420317Y-7053221D02*
X16470317Y-7003221D01*
X16420317Y-6953221D01*
X16370317Y-7003221D01*
X16420317Y-7053221D01*
D10*
X6101093Y-10536204D02*
X6101093Y-10336204D01*
X6101093Y-10336204D02*
X6148712Y-10336204D01*
X6148712Y-10336204D02*
X6177284Y-10345728D01*
X6177284Y-10345728D02*
X6196332Y-10364776D01*
X6196332Y-10364776D02*
X6205855Y-10383823D01*
X6205855Y-10383823D02*
X6215379Y-10421919D01*
X6215379Y-10421919D02*
X6215379Y-10450490D01*
X6215379Y-10450490D02*
X6205855Y-10488585D01*
X6205855Y-10488585D02*
X6196332Y-10507633D01*
X6196332Y-10507633D02*
X6177284Y-10526681D01*
X6177284Y-10526681D02*
X6148712Y-10536204D01*
X6148712Y-10536204D02*
X6101093Y-10536204D01*
X6301093Y-10536204D02*
X6301093Y-10402871D01*
X6301093Y-10440966D02*
X6310617Y-10421919D01*
X6310617Y-10421919D02*
X6320141Y-10412395D01*
X6320141Y-10412395D02*
X6339189Y-10402871D01*
X6339189Y-10402871D02*
X6358236Y-10402871D01*
X6424903Y-10536204D02*
X6424903Y-10402871D01*
X6424903Y-10336204D02*
X6415379Y-10345728D01*
X6415379Y-10345728D02*
X6424903Y-10355252D01*
X6424903Y-10355252D02*
X6434427Y-10345728D01*
X6434427Y-10345728D02*
X6424903Y-10336204D01*
X6424903Y-10336204D02*
X6424903Y-10355252D01*
X6548712Y-10536204D02*
X6529665Y-10526681D01*
X6529665Y-10526681D02*
X6520141Y-10507633D01*
X6520141Y-10507633D02*
X6520141Y-10336204D01*
X6653474Y-10536204D02*
X6634427Y-10526681D01*
X6634427Y-10526681D02*
X6624903Y-10507633D01*
X6624903Y-10507633D02*
X6624903Y-10336204D01*
X6882046Y-10536204D02*
X6882046Y-10336204D01*
X6882046Y-10336204D02*
X6948713Y-10479062D01*
X6948713Y-10479062D02*
X7015379Y-10336204D01*
X7015379Y-10336204D02*
X7015379Y-10536204D01*
X7196332Y-10536204D02*
X7196332Y-10431443D01*
X7196332Y-10431443D02*
X7186808Y-10412395D01*
X7186808Y-10412395D02*
X7167760Y-10402871D01*
X7167760Y-10402871D02*
X7129665Y-10402871D01*
X7129665Y-10402871D02*
X7110617Y-10412395D01*
X7196332Y-10526681D02*
X7177284Y-10536204D01*
X7177284Y-10536204D02*
X7129665Y-10536204D01*
X7129665Y-10536204D02*
X7110617Y-10526681D01*
X7110617Y-10526681D02*
X7101093Y-10507633D01*
X7101093Y-10507633D02*
X7101093Y-10488585D01*
X7101093Y-10488585D02*
X7110617Y-10469538D01*
X7110617Y-10469538D02*
X7129665Y-10460014D01*
X7129665Y-10460014D02*
X7177284Y-10460014D01*
X7177284Y-10460014D02*
X7196332Y-10450490D01*
X7291570Y-10402871D02*
X7291570Y-10602871D01*
X7291570Y-10412395D02*
X7310617Y-10402871D01*
X7310617Y-10402871D02*
X7348713Y-10402871D01*
X7348713Y-10402871D02*
X7367760Y-10412395D01*
X7367760Y-10412395D02*
X7377284Y-10421919D01*
X7377284Y-10421919D02*
X7386808Y-10440966D01*
X7386808Y-10440966D02*
X7386808Y-10498109D01*
X7386808Y-10498109D02*
X7377284Y-10517157D01*
X7377284Y-10517157D02*
X7367760Y-10526681D01*
X7367760Y-10526681D02*
X7348713Y-10536204D01*
X7348713Y-10536204D02*
X7310617Y-10536204D01*
X7310617Y-10536204D02*
X7291570Y-10526681D01*
X7472522Y-10517157D02*
X7482046Y-10526681D01*
X7482046Y-10526681D02*
X7472522Y-10536204D01*
X7472522Y-10536204D02*
X7462998Y-10526681D01*
X7462998Y-10526681D02*
X7472522Y-10517157D01*
X7472522Y-10517157D02*
X7472522Y-10536204D01*
X7472522Y-10412395D02*
X7482046Y-10421919D01*
X7482046Y-10421919D02*
X7472522Y-10431443D01*
X7472522Y-10431443D02*
X7462998Y-10421919D01*
X7462998Y-10421919D02*
X7472522Y-10412395D01*
X7472522Y-10412395D02*
X7472522Y-10431443D01*
D11*
X5810317Y-10849721D02*
X5840317Y-10879721D01*
X5840317Y-10849721D02*
X5810317Y-10879721D01*
D10*
X6139189Y-10756204D02*
X6158236Y-10756204D01*
X6158236Y-10756204D02*
X6177284Y-10765728D01*
X6177284Y-10765728D02*
X6186808Y-10775252D01*
X6186808Y-10775252D02*
X6196332Y-10794300D01*
X6196332Y-10794300D02*
X6205855Y-10832395D01*
X6205855Y-10832395D02*
X6205855Y-10880014D01*
X6205855Y-10880014D02*
X6196332Y-10918109D01*
X6196332Y-10918109D02*
X6186808Y-10937157D01*
X6186808Y-10937157D02*
X6177284Y-10946681D01*
X6177284Y-10946681D02*
X6158236Y-10956204D01*
X6158236Y-10956204D02*
X6139189Y-10956204D01*
X6139189Y-10956204D02*
X6120141Y-10946681D01*
X6120141Y-10946681D02*
X6110617Y-10937157D01*
X6110617Y-10937157D02*
X6101093Y-10918109D01*
X6101093Y-10918109D02*
X6091570Y-10880014D01*
X6091570Y-10880014D02*
X6091570Y-10832395D01*
X6091570Y-10832395D02*
X6101093Y-10794300D01*
X6101093Y-10794300D02*
X6110617Y-10775252D01*
X6110617Y-10775252D02*
X6120141Y-10765728D01*
X6120141Y-10765728D02*
X6139189Y-10756204D01*
X6291570Y-10937157D02*
X6301093Y-10946681D01*
X6301093Y-10946681D02*
X6291570Y-10956204D01*
X6291570Y-10956204D02*
X6282046Y-10946681D01*
X6282046Y-10946681D02*
X6291570Y-10937157D01*
X6291570Y-10937157D02*
X6291570Y-10956204D01*
X6367760Y-10756204D02*
X6491570Y-10756204D01*
X6491570Y-10756204D02*
X6424903Y-10832395D01*
X6424903Y-10832395D02*
X6453474Y-10832395D01*
X6453474Y-10832395D02*
X6472522Y-10841919D01*
X6472522Y-10841919D02*
X6482046Y-10851443D01*
X6482046Y-10851443D02*
X6491570Y-10870490D01*
X6491570Y-10870490D02*
X6491570Y-10918109D01*
X6491570Y-10918109D02*
X6482046Y-10937157D01*
X6482046Y-10937157D02*
X6472522Y-10946681D01*
X6472522Y-10946681D02*
X6453474Y-10956204D01*
X6453474Y-10956204D02*
X6396332Y-10956204D01*
X6396332Y-10956204D02*
X6377284Y-10946681D01*
X6377284Y-10946681D02*
X6367760Y-10937157D01*
X6615379Y-10756204D02*
X6634427Y-10756204D01*
X6634427Y-10756204D02*
X6653474Y-10765728D01*
X6653474Y-10765728D02*
X6662998Y-10775252D01*
X6662998Y-10775252D02*
X6672522Y-10794300D01*
X6672522Y-10794300D02*
X6682046Y-10832395D01*
X6682046Y-10832395D02*
X6682046Y-10880014D01*
X6682046Y-10880014D02*
X6672522Y-10918109D01*
X6672522Y-10918109D02*
X6662998Y-10937157D01*
X6662998Y-10937157D02*
X6653474Y-10946681D01*
X6653474Y-10946681D02*
X6634427Y-10956204D01*
X6634427Y-10956204D02*
X6615379Y-10956204D01*
X6615379Y-10956204D02*
X6596332Y-10946681D01*
X6596332Y-10946681D02*
X6586808Y-10937157D01*
X6586808Y-10937157D02*
X6577284Y-10918109D01*
X6577284Y-10918109D02*
X6567760Y-10880014D01*
X6567760Y-10880014D02*
X6567760Y-10832395D01*
X6567760Y-10832395D02*
X6577284Y-10794300D01*
X6577284Y-10794300D02*
X6586808Y-10775252D01*
X6586808Y-10775252D02*
X6596332Y-10765728D01*
X6596332Y-10765728D02*
X6615379Y-10756204D01*
X6805855Y-10756204D02*
X6824903Y-10756204D01*
X6824903Y-10756204D02*
X6843951Y-10765728D01*
X6843951Y-10765728D02*
X6853474Y-10775252D01*
X6853474Y-10775252D02*
X6862998Y-10794300D01*
X6862998Y-10794300D02*
X6872522Y-10832395D01*
X6872522Y-10832395D02*
X6872522Y-10880014D01*
X6872522Y-10880014D02*
X6862998Y-10918109D01*
X6862998Y-10918109D02*
X6853474Y-10937157D01*
X6853474Y-10937157D02*
X6843951Y-10946681D01*
X6843951Y-10946681D02*
X6824903Y-10956204D01*
X6824903Y-10956204D02*
X6805855Y-10956204D01*
X6805855Y-10956204D02*
X6786808Y-10946681D01*
X6786808Y-10946681D02*
X6777284Y-10937157D01*
X6777284Y-10937157D02*
X6767760Y-10918109D01*
X6767760Y-10918109D02*
X6758236Y-10880014D01*
X6758236Y-10880014D02*
X6758236Y-10832395D01*
X6758236Y-10832395D02*
X6767760Y-10794300D01*
X6767760Y-10794300D02*
X6777284Y-10775252D01*
X6777284Y-10775252D02*
X6786808Y-10765728D01*
X6786808Y-10765728D02*
X6805855Y-10756204D01*
X6958236Y-10956204D02*
X6958236Y-10822871D01*
X6958236Y-10841919D02*
X6967760Y-10832395D01*
X6967760Y-10832395D02*
X6986808Y-10822871D01*
X6986808Y-10822871D02*
X7015379Y-10822871D01*
X7015379Y-10822871D02*
X7034427Y-10832395D01*
X7034427Y-10832395D02*
X7043951Y-10851443D01*
X7043951Y-10851443D02*
X7043951Y-10956204D01*
X7043951Y-10851443D02*
X7053474Y-10832395D01*
X7053474Y-10832395D02*
X7072522Y-10822871D01*
X7072522Y-10822871D02*
X7101093Y-10822871D01*
X7101093Y-10822871D02*
X7120141Y-10832395D01*
X7120141Y-10832395D02*
X7129665Y-10851443D01*
X7129665Y-10851443D02*
X7129665Y-10956204D01*
X7224903Y-10956204D02*
X7224903Y-10822871D01*
X7224903Y-10841919D02*
X7234427Y-10832395D01*
X7234427Y-10832395D02*
X7253474Y-10822871D01*
X7253474Y-10822871D02*
X7282046Y-10822871D01*
X7282046Y-10822871D02*
X7301094Y-10832395D01*
X7301094Y-10832395D02*
X7310617Y-10851443D01*
X7310617Y-10851443D02*
X7310617Y-10956204D01*
X7310617Y-10851443D02*
X7320141Y-10832395D01*
X7320141Y-10832395D02*
X7339189Y-10822871D01*
X7339189Y-10822871D02*
X7367760Y-10822871D01*
X7367760Y-10822871D02*
X7386808Y-10832395D01*
X7386808Y-10832395D02*
X7396332Y-10851443D01*
X7396332Y-10851443D02*
X7396332Y-10956204D01*
X7786808Y-10746681D02*
X7615379Y-11003823D01*
X8043951Y-10756204D02*
X8062998Y-10756204D01*
X8062998Y-10756204D02*
X8082046Y-10765728D01*
X8082046Y-10765728D02*
X8091570Y-10775252D01*
X8091570Y-10775252D02*
X8101094Y-10794300D01*
X8101094Y-10794300D02*
X8110617Y-10832395D01*
X8110617Y-10832395D02*
X8110617Y-10880014D01*
X8110617Y-10880014D02*
X8101094Y-10918109D01*
X8101094Y-10918109D02*
X8091570Y-10937157D01*
X8091570Y-10937157D02*
X8082046Y-10946681D01*
X8082046Y-10946681D02*
X8062998Y-10956204D01*
X8062998Y-10956204D02*
X8043951Y-10956204D01*
X8043951Y-10956204D02*
X8024903Y-10946681D01*
X8024903Y-10946681D02*
X8015379Y-10937157D01*
X8015379Y-10937157D02*
X8005856Y-10918109D01*
X8005856Y-10918109D02*
X7996332Y-10880014D01*
X7996332Y-10880014D02*
X7996332Y-10832395D01*
X7996332Y-10832395D02*
X8005856Y-10794300D01*
X8005856Y-10794300D02*
X8015379Y-10775252D01*
X8015379Y-10775252D02*
X8024903Y-10765728D01*
X8024903Y-10765728D02*
X8043951Y-10756204D01*
X8196332Y-10937157D02*
X8205856Y-10946681D01*
X8205856Y-10946681D02*
X8196332Y-10956204D01*
X8196332Y-10956204D02*
X8186808Y-10946681D01*
X8186808Y-10946681D02*
X8196332Y-10937157D01*
X8196332Y-10937157D02*
X8196332Y-10956204D01*
X8329665Y-10756204D02*
X8348713Y-10756204D01*
X8348713Y-10756204D02*
X8367760Y-10765728D01*
X8367760Y-10765728D02*
X8377284Y-10775252D01*
X8377284Y-10775252D02*
X8386808Y-10794300D01*
X8386808Y-10794300D02*
X8396332Y-10832395D01*
X8396332Y-10832395D02*
X8396332Y-10880014D01*
X8396332Y-10880014D02*
X8386808Y-10918109D01*
X8386808Y-10918109D02*
X8377284Y-10937157D01*
X8377284Y-10937157D02*
X8367760Y-10946681D01*
X8367760Y-10946681D02*
X8348713Y-10956204D01*
X8348713Y-10956204D02*
X8329665Y-10956204D01*
X8329665Y-10956204D02*
X8310617Y-10946681D01*
X8310617Y-10946681D02*
X8301094Y-10937157D01*
X8301094Y-10937157D02*
X8291570Y-10918109D01*
X8291570Y-10918109D02*
X8282046Y-10880014D01*
X8282046Y-10880014D02*
X8282046Y-10832395D01*
X8282046Y-10832395D02*
X8291570Y-10794300D01*
X8291570Y-10794300D02*
X8301094Y-10775252D01*
X8301094Y-10775252D02*
X8310617Y-10765728D01*
X8310617Y-10765728D02*
X8329665Y-10756204D01*
X8586808Y-10956204D02*
X8472522Y-10956204D01*
X8529665Y-10956204D02*
X8529665Y-10756204D01*
X8529665Y-10756204D02*
X8510618Y-10784776D01*
X8510618Y-10784776D02*
X8491570Y-10803823D01*
X8491570Y-10803823D02*
X8472522Y-10813347D01*
X8777284Y-10956204D02*
X8662999Y-10956204D01*
X8720141Y-10956204D02*
X8720141Y-10756204D01*
X8720141Y-10756204D02*
X8701094Y-10784776D01*
X8701094Y-10784776D02*
X8682046Y-10803823D01*
X8682046Y-10803823D02*
X8662999Y-10813347D01*
X8891570Y-10841919D02*
X8872522Y-10832395D01*
X8872522Y-10832395D02*
X8862999Y-10822871D01*
X8862999Y-10822871D02*
X8853475Y-10803823D01*
X8853475Y-10803823D02*
X8853475Y-10794300D01*
X8853475Y-10794300D02*
X8862999Y-10775252D01*
X8862999Y-10775252D02*
X8872522Y-10765728D01*
X8872522Y-10765728D02*
X8891570Y-10756204D01*
X8891570Y-10756204D02*
X8929665Y-10756204D01*
X8929665Y-10756204D02*
X8948713Y-10765728D01*
X8948713Y-10765728D02*
X8958237Y-10775252D01*
X8958237Y-10775252D02*
X8967760Y-10794300D01*
X8967760Y-10794300D02*
X8967760Y-10803823D01*
X8967760Y-10803823D02*
X8958237Y-10822871D01*
X8958237Y-10822871D02*
X8948713Y-10832395D01*
X8948713Y-10832395D02*
X8929665Y-10841919D01*
X8929665Y-10841919D02*
X8891570Y-10841919D01*
X8891570Y-10841919D02*
X8872522Y-10851443D01*
X8872522Y-10851443D02*
X8862999Y-10860966D01*
X8862999Y-10860966D02*
X8853475Y-10880014D01*
X8853475Y-10880014D02*
X8853475Y-10918109D01*
X8853475Y-10918109D02*
X8862999Y-10937157D01*
X8862999Y-10937157D02*
X8872522Y-10946681D01*
X8872522Y-10946681D02*
X8891570Y-10956204D01*
X8891570Y-10956204D02*
X8929665Y-10956204D01*
X8929665Y-10956204D02*
X8948713Y-10946681D01*
X8948713Y-10946681D02*
X8958237Y-10937157D01*
X8958237Y-10937157D02*
X8967760Y-10918109D01*
X8967760Y-10918109D02*
X8967760Y-10880014D01*
X8967760Y-10880014D02*
X8958237Y-10860966D01*
X8958237Y-10860966D02*
X8948713Y-10851443D01*
X8948713Y-10851443D02*
X8929665Y-10841919D01*
X9043951Y-10756204D02*
X9043951Y-10794300D01*
X9120141Y-10756204D02*
X9120141Y-10794300D01*
X9415380Y-11032395D02*
X9405856Y-11022871D01*
X9405856Y-11022871D02*
X9386808Y-10994300D01*
X9386808Y-10994300D02*
X9377284Y-10975252D01*
X9377284Y-10975252D02*
X9367761Y-10946681D01*
X9367761Y-10946681D02*
X9358237Y-10899062D01*
X9358237Y-10899062D02*
X9358237Y-10860966D01*
X9358237Y-10860966D02*
X9367761Y-10813347D01*
X9367761Y-10813347D02*
X9377284Y-10784776D01*
X9377284Y-10784776D02*
X9386808Y-10765728D01*
X9386808Y-10765728D02*
X9405856Y-10737157D01*
X9405856Y-10737157D02*
X9415380Y-10727633D01*
X9520141Y-10841919D02*
X9501094Y-10832395D01*
X9501094Y-10832395D02*
X9491570Y-10822871D01*
X9491570Y-10822871D02*
X9482046Y-10803823D01*
X9482046Y-10803823D02*
X9482046Y-10794300D01*
X9482046Y-10794300D02*
X9491570Y-10775252D01*
X9491570Y-10775252D02*
X9501094Y-10765728D01*
X9501094Y-10765728D02*
X9520141Y-10756204D01*
X9520141Y-10756204D02*
X9558237Y-10756204D01*
X9558237Y-10756204D02*
X9577284Y-10765728D01*
X9577284Y-10765728D02*
X9586808Y-10775252D01*
X9586808Y-10775252D02*
X9596332Y-10794300D01*
X9596332Y-10794300D02*
X9596332Y-10803823D01*
X9596332Y-10803823D02*
X9586808Y-10822871D01*
X9586808Y-10822871D02*
X9577284Y-10832395D01*
X9577284Y-10832395D02*
X9558237Y-10841919D01*
X9558237Y-10841919D02*
X9520141Y-10841919D01*
X9520141Y-10841919D02*
X9501094Y-10851443D01*
X9501094Y-10851443D02*
X9491570Y-10860966D01*
X9491570Y-10860966D02*
X9482046Y-10880014D01*
X9482046Y-10880014D02*
X9482046Y-10918109D01*
X9482046Y-10918109D02*
X9491570Y-10937157D01*
X9491570Y-10937157D02*
X9501094Y-10946681D01*
X9501094Y-10946681D02*
X9520141Y-10956204D01*
X9520141Y-10956204D02*
X9558237Y-10956204D01*
X9558237Y-10956204D02*
X9577284Y-10946681D01*
X9577284Y-10946681D02*
X9586808Y-10937157D01*
X9586808Y-10937157D02*
X9596332Y-10918109D01*
X9596332Y-10918109D02*
X9596332Y-10880014D01*
X9596332Y-10880014D02*
X9586808Y-10860966D01*
X9586808Y-10860966D02*
X9577284Y-10851443D01*
X9577284Y-10851443D02*
X9558237Y-10841919D01*
X9767761Y-10756204D02*
X9729665Y-10756204D01*
X9729665Y-10756204D02*
X9710618Y-10765728D01*
X9710618Y-10765728D02*
X9701094Y-10775252D01*
X9701094Y-10775252D02*
X9682046Y-10803823D01*
X9682046Y-10803823D02*
X9672522Y-10841919D01*
X9672522Y-10841919D02*
X9672522Y-10918109D01*
X9672522Y-10918109D02*
X9682046Y-10937157D01*
X9682046Y-10937157D02*
X9691570Y-10946681D01*
X9691570Y-10946681D02*
X9710618Y-10956204D01*
X9710618Y-10956204D02*
X9748713Y-10956204D01*
X9748713Y-10956204D02*
X9767761Y-10946681D01*
X9767761Y-10946681D02*
X9777284Y-10937157D01*
X9777284Y-10937157D02*
X9786808Y-10918109D01*
X9786808Y-10918109D02*
X9786808Y-10870490D01*
X9786808Y-10870490D02*
X9777284Y-10851443D01*
X9777284Y-10851443D02*
X9767761Y-10841919D01*
X9767761Y-10841919D02*
X9748713Y-10832395D01*
X9748713Y-10832395D02*
X9710618Y-10832395D01*
X9710618Y-10832395D02*
X9691570Y-10841919D01*
X9691570Y-10841919D02*
X9682046Y-10851443D01*
X9682046Y-10851443D02*
X9672522Y-10870490D01*
X10024903Y-10956204D02*
X10024903Y-10756204D01*
X10110618Y-10956204D02*
X10110618Y-10851443D01*
X10110618Y-10851443D02*
X10101094Y-10832395D01*
X10101094Y-10832395D02*
X10082046Y-10822871D01*
X10082046Y-10822871D02*
X10053475Y-10822871D01*
X10053475Y-10822871D02*
X10034427Y-10832395D01*
X10034427Y-10832395D02*
X10024903Y-10841919D01*
X10234427Y-10956204D02*
X10215380Y-10946681D01*
X10215380Y-10946681D02*
X10205856Y-10937157D01*
X10205856Y-10937157D02*
X10196332Y-10918109D01*
X10196332Y-10918109D02*
X10196332Y-10860966D01*
X10196332Y-10860966D02*
X10205856Y-10841919D01*
X10205856Y-10841919D02*
X10215380Y-10832395D01*
X10215380Y-10832395D02*
X10234427Y-10822871D01*
X10234427Y-10822871D02*
X10262999Y-10822871D01*
X10262999Y-10822871D02*
X10282046Y-10832395D01*
X10282046Y-10832395D02*
X10291570Y-10841919D01*
X10291570Y-10841919D02*
X10301094Y-10860966D01*
X10301094Y-10860966D02*
X10301094Y-10918109D01*
X10301094Y-10918109D02*
X10291570Y-10937157D01*
X10291570Y-10937157D02*
X10282046Y-10946681D01*
X10282046Y-10946681D02*
X10262999Y-10956204D01*
X10262999Y-10956204D02*
X10234427Y-10956204D01*
X10415380Y-10956204D02*
X10396332Y-10946681D01*
X10396332Y-10946681D02*
X10386808Y-10927633D01*
X10386808Y-10927633D02*
X10386808Y-10756204D01*
X10567761Y-10946681D02*
X10548713Y-10956204D01*
X10548713Y-10956204D02*
X10510618Y-10956204D01*
X10510618Y-10956204D02*
X10491570Y-10946681D01*
X10491570Y-10946681D02*
X10482046Y-10927633D01*
X10482046Y-10927633D02*
X10482046Y-10851443D01*
X10482046Y-10851443D02*
X10491570Y-10832395D01*
X10491570Y-10832395D02*
X10510618Y-10822871D01*
X10510618Y-10822871D02*
X10548713Y-10822871D01*
X10548713Y-10822871D02*
X10567761Y-10832395D01*
X10567761Y-10832395D02*
X10577284Y-10851443D01*
X10577284Y-10851443D02*
X10577284Y-10870490D01*
X10577284Y-10870490D02*
X10482046Y-10889538D01*
X10653475Y-10946681D02*
X10672523Y-10956204D01*
X10672523Y-10956204D02*
X10710618Y-10956204D01*
X10710618Y-10956204D02*
X10729665Y-10946681D01*
X10729665Y-10946681D02*
X10739189Y-10927633D01*
X10739189Y-10927633D02*
X10739189Y-10918109D01*
X10739189Y-10918109D02*
X10729665Y-10899062D01*
X10729665Y-10899062D02*
X10710618Y-10889538D01*
X10710618Y-10889538D02*
X10682046Y-10889538D01*
X10682046Y-10889538D02*
X10662999Y-10880014D01*
X10662999Y-10880014D02*
X10653475Y-10860966D01*
X10653475Y-10860966D02*
X10653475Y-10851443D01*
X10653475Y-10851443D02*
X10662999Y-10832395D01*
X10662999Y-10832395D02*
X10682046Y-10822871D01*
X10682046Y-10822871D02*
X10710618Y-10822871D01*
X10710618Y-10822871D02*
X10729665Y-10832395D01*
X10805856Y-11032395D02*
X10815380Y-11022871D01*
X10815380Y-11022871D02*
X10834427Y-10994300D01*
X10834427Y-10994300D02*
X10843951Y-10975252D01*
X10843951Y-10975252D02*
X10853475Y-10946681D01*
X10853475Y-10946681D02*
X10862999Y-10899062D01*
X10862999Y-10899062D02*
X10862999Y-10860966D01*
X10862999Y-10860966D02*
X10853475Y-10813347D01*
X10853475Y-10813347D02*
X10843951Y-10784776D01*
X10843951Y-10784776D02*
X10834427Y-10765728D01*
X10834427Y-10765728D02*
X10815380Y-10737157D01*
X10815380Y-10737157D02*
X10805856Y-10727633D01*
D12*
X5840317Y-11128721D02*
G75*
G03*
X5840317Y-11128721I-20000J0D01*
G01*
D10*
X6139189Y-11020204D02*
X6158236Y-11020204D01*
X6158236Y-11020204D02*
X6177284Y-11029728D01*
X6177284Y-11029728D02*
X6186808Y-11039252D01*
X6186808Y-11039252D02*
X6196332Y-11058300D01*
X6196332Y-11058300D02*
X6205855Y-11096395D01*
X6205855Y-11096395D02*
X6205855Y-11144014D01*
X6205855Y-11144014D02*
X6196332Y-11182109D01*
X6196332Y-11182109D02*
X6186808Y-11201157D01*
X6186808Y-11201157D02*
X6177284Y-11210681D01*
X6177284Y-11210681D02*
X6158236Y-11220204D01*
X6158236Y-11220204D02*
X6139189Y-11220204D01*
X6139189Y-11220204D02*
X6120141Y-11210681D01*
X6120141Y-11210681D02*
X6110617Y-11201157D01*
X6110617Y-11201157D02*
X6101093Y-11182109D01*
X6101093Y-11182109D02*
X6091570Y-11144014D01*
X6091570Y-11144014D02*
X6091570Y-11096395D01*
X6091570Y-11096395D02*
X6101093Y-11058300D01*
X6101093Y-11058300D02*
X6110617Y-11039252D01*
X6110617Y-11039252D02*
X6120141Y-11029728D01*
X6120141Y-11029728D02*
X6139189Y-11020204D01*
X6291570Y-11201157D02*
X6301093Y-11210681D01*
X6301093Y-11210681D02*
X6291570Y-11220204D01*
X6291570Y-11220204D02*
X6282046Y-11210681D01*
X6282046Y-11210681D02*
X6291570Y-11201157D01*
X6291570Y-11201157D02*
X6291570Y-11220204D01*
X6472522Y-11086871D02*
X6472522Y-11220204D01*
X6424903Y-11010681D02*
X6377284Y-11153538D01*
X6377284Y-11153538D02*
X6501093Y-11153538D01*
X6615379Y-11020204D02*
X6634427Y-11020204D01*
X6634427Y-11020204D02*
X6653474Y-11029728D01*
X6653474Y-11029728D02*
X6662998Y-11039252D01*
X6662998Y-11039252D02*
X6672522Y-11058300D01*
X6672522Y-11058300D02*
X6682046Y-11096395D01*
X6682046Y-11096395D02*
X6682046Y-11144014D01*
X6682046Y-11144014D02*
X6672522Y-11182109D01*
X6672522Y-11182109D02*
X6662998Y-11201157D01*
X6662998Y-11201157D02*
X6653474Y-11210681D01*
X6653474Y-11210681D02*
X6634427Y-11220204D01*
X6634427Y-11220204D02*
X6615379Y-11220204D01*
X6615379Y-11220204D02*
X6596332Y-11210681D01*
X6596332Y-11210681D02*
X6586808Y-11201157D01*
X6586808Y-11201157D02*
X6577284Y-11182109D01*
X6577284Y-11182109D02*
X6567760Y-11144014D01*
X6567760Y-11144014D02*
X6567760Y-11096395D01*
X6567760Y-11096395D02*
X6577284Y-11058300D01*
X6577284Y-11058300D02*
X6586808Y-11039252D01*
X6586808Y-11039252D02*
X6596332Y-11029728D01*
X6596332Y-11029728D02*
X6615379Y-11020204D01*
X6805855Y-11020204D02*
X6824903Y-11020204D01*
X6824903Y-11020204D02*
X6843951Y-11029728D01*
X6843951Y-11029728D02*
X6853474Y-11039252D01*
X6853474Y-11039252D02*
X6862998Y-11058300D01*
X6862998Y-11058300D02*
X6872522Y-11096395D01*
X6872522Y-11096395D02*
X6872522Y-11144014D01*
X6872522Y-11144014D02*
X6862998Y-11182109D01*
X6862998Y-11182109D02*
X6853474Y-11201157D01*
X6853474Y-11201157D02*
X6843951Y-11210681D01*
X6843951Y-11210681D02*
X6824903Y-11220204D01*
X6824903Y-11220204D02*
X6805855Y-11220204D01*
X6805855Y-11220204D02*
X6786808Y-11210681D01*
X6786808Y-11210681D02*
X6777284Y-11201157D01*
X6777284Y-11201157D02*
X6767760Y-11182109D01*
X6767760Y-11182109D02*
X6758236Y-11144014D01*
X6758236Y-11144014D02*
X6758236Y-11096395D01*
X6758236Y-11096395D02*
X6767760Y-11058300D01*
X6767760Y-11058300D02*
X6777284Y-11039252D01*
X6777284Y-11039252D02*
X6786808Y-11029728D01*
X6786808Y-11029728D02*
X6805855Y-11020204D01*
X6958236Y-11220204D02*
X6958236Y-11086871D01*
X6958236Y-11105919D02*
X6967760Y-11096395D01*
X6967760Y-11096395D02*
X6986808Y-11086871D01*
X6986808Y-11086871D02*
X7015379Y-11086871D01*
X7015379Y-11086871D02*
X7034427Y-11096395D01*
X7034427Y-11096395D02*
X7043951Y-11115443D01*
X7043951Y-11115443D02*
X7043951Y-11220204D01*
X7043951Y-11115443D02*
X7053474Y-11096395D01*
X7053474Y-11096395D02*
X7072522Y-11086871D01*
X7072522Y-11086871D02*
X7101093Y-11086871D01*
X7101093Y-11086871D02*
X7120141Y-11096395D01*
X7120141Y-11096395D02*
X7129665Y-11115443D01*
X7129665Y-11115443D02*
X7129665Y-11220204D01*
X7224903Y-11220204D02*
X7224903Y-11086871D01*
X7224903Y-11105919D02*
X7234427Y-11096395D01*
X7234427Y-11096395D02*
X7253474Y-11086871D01*
X7253474Y-11086871D02*
X7282046Y-11086871D01*
X7282046Y-11086871D02*
X7301094Y-11096395D01*
X7301094Y-11096395D02*
X7310617Y-11115443D01*
X7310617Y-11115443D02*
X7310617Y-11220204D01*
X7310617Y-11115443D02*
X7320141Y-11096395D01*
X7320141Y-11096395D02*
X7339189Y-11086871D01*
X7339189Y-11086871D02*
X7367760Y-11086871D01*
X7367760Y-11086871D02*
X7386808Y-11096395D01*
X7386808Y-11096395D02*
X7396332Y-11115443D01*
X7396332Y-11115443D02*
X7396332Y-11220204D01*
X7786808Y-11010681D02*
X7615379Y-11267823D01*
X8043951Y-11020204D02*
X8062998Y-11020204D01*
X8062998Y-11020204D02*
X8082046Y-11029728D01*
X8082046Y-11029728D02*
X8091570Y-11039252D01*
X8091570Y-11039252D02*
X8101094Y-11058300D01*
X8101094Y-11058300D02*
X8110617Y-11096395D01*
X8110617Y-11096395D02*
X8110617Y-11144014D01*
X8110617Y-11144014D02*
X8101094Y-11182109D01*
X8101094Y-11182109D02*
X8091570Y-11201157D01*
X8091570Y-11201157D02*
X8082046Y-11210681D01*
X8082046Y-11210681D02*
X8062998Y-11220204D01*
X8062998Y-11220204D02*
X8043951Y-11220204D01*
X8043951Y-11220204D02*
X8024903Y-11210681D01*
X8024903Y-11210681D02*
X8015379Y-11201157D01*
X8015379Y-11201157D02*
X8005856Y-11182109D01*
X8005856Y-11182109D02*
X7996332Y-11144014D01*
X7996332Y-11144014D02*
X7996332Y-11096395D01*
X7996332Y-11096395D02*
X8005856Y-11058300D01*
X8005856Y-11058300D02*
X8015379Y-11039252D01*
X8015379Y-11039252D02*
X8024903Y-11029728D01*
X8024903Y-11029728D02*
X8043951Y-11020204D01*
X8196332Y-11201157D02*
X8205856Y-11210681D01*
X8205856Y-11210681D02*
X8196332Y-11220204D01*
X8196332Y-11220204D02*
X8186808Y-11210681D01*
X8186808Y-11210681D02*
X8196332Y-11201157D01*
X8196332Y-11201157D02*
X8196332Y-11220204D01*
X8329665Y-11020204D02*
X8348713Y-11020204D01*
X8348713Y-11020204D02*
X8367760Y-11029728D01*
X8367760Y-11029728D02*
X8377284Y-11039252D01*
X8377284Y-11039252D02*
X8386808Y-11058300D01*
X8386808Y-11058300D02*
X8396332Y-11096395D01*
X8396332Y-11096395D02*
X8396332Y-11144014D01*
X8396332Y-11144014D02*
X8386808Y-11182109D01*
X8386808Y-11182109D02*
X8377284Y-11201157D01*
X8377284Y-11201157D02*
X8367760Y-11210681D01*
X8367760Y-11210681D02*
X8348713Y-11220204D01*
X8348713Y-11220204D02*
X8329665Y-11220204D01*
X8329665Y-11220204D02*
X8310617Y-11210681D01*
X8310617Y-11210681D02*
X8301094Y-11201157D01*
X8301094Y-11201157D02*
X8291570Y-11182109D01*
X8291570Y-11182109D02*
X8282046Y-11144014D01*
X8282046Y-11144014D02*
X8282046Y-11096395D01*
X8282046Y-11096395D02*
X8291570Y-11058300D01*
X8291570Y-11058300D02*
X8301094Y-11039252D01*
X8301094Y-11039252D02*
X8310617Y-11029728D01*
X8310617Y-11029728D02*
X8329665Y-11020204D01*
X8586808Y-11220204D02*
X8472522Y-11220204D01*
X8529665Y-11220204D02*
X8529665Y-11020204D01*
X8529665Y-11020204D02*
X8510618Y-11048776D01*
X8510618Y-11048776D02*
X8491570Y-11067823D01*
X8491570Y-11067823D02*
X8472522Y-11077347D01*
X8767760Y-11020204D02*
X8672522Y-11020204D01*
X8672522Y-11020204D02*
X8662999Y-11115443D01*
X8662999Y-11115443D02*
X8672522Y-11105919D01*
X8672522Y-11105919D02*
X8691570Y-11096395D01*
X8691570Y-11096395D02*
X8739189Y-11096395D01*
X8739189Y-11096395D02*
X8758237Y-11105919D01*
X8758237Y-11105919D02*
X8767760Y-11115443D01*
X8767760Y-11115443D02*
X8777284Y-11134490D01*
X8777284Y-11134490D02*
X8777284Y-11182109D01*
X8777284Y-11182109D02*
X8767760Y-11201157D01*
X8767760Y-11201157D02*
X8758237Y-11210681D01*
X8758237Y-11210681D02*
X8739189Y-11220204D01*
X8739189Y-11220204D02*
X8691570Y-11220204D01*
X8691570Y-11220204D02*
X8672522Y-11210681D01*
X8672522Y-11210681D02*
X8662999Y-11201157D01*
X8843951Y-11020204D02*
X8977284Y-11020204D01*
X8977284Y-11020204D02*
X8891570Y-11220204D01*
X9043951Y-11020204D02*
X9043951Y-11058300D01*
X9120141Y-11020204D02*
X9120141Y-11058300D01*
X9415380Y-11296395D02*
X9405856Y-11286871D01*
X9405856Y-11286871D02*
X9386808Y-11258300D01*
X9386808Y-11258300D02*
X9377284Y-11239252D01*
X9377284Y-11239252D02*
X9367761Y-11210681D01*
X9367761Y-11210681D02*
X9358237Y-11163062D01*
X9358237Y-11163062D02*
X9358237Y-11124966D01*
X9358237Y-11124966D02*
X9367761Y-11077347D01*
X9367761Y-11077347D02*
X9377284Y-11048776D01*
X9377284Y-11048776D02*
X9386808Y-11029728D01*
X9386808Y-11029728D02*
X9405856Y-11001157D01*
X9405856Y-11001157D02*
X9415380Y-10991633D01*
X9472522Y-11020204D02*
X9596332Y-11020204D01*
X9596332Y-11020204D02*
X9529665Y-11096395D01*
X9529665Y-11096395D02*
X9558237Y-11096395D01*
X9558237Y-11096395D02*
X9577284Y-11105919D01*
X9577284Y-11105919D02*
X9586808Y-11115443D01*
X9586808Y-11115443D02*
X9596332Y-11134490D01*
X9596332Y-11134490D02*
X9596332Y-11182109D01*
X9596332Y-11182109D02*
X9586808Y-11201157D01*
X9586808Y-11201157D02*
X9577284Y-11210681D01*
X9577284Y-11210681D02*
X9558237Y-11220204D01*
X9558237Y-11220204D02*
X9501094Y-11220204D01*
X9501094Y-11220204D02*
X9482046Y-11210681D01*
X9482046Y-11210681D02*
X9472522Y-11201157D01*
X9662999Y-11020204D02*
X9796332Y-11020204D01*
X9796332Y-11020204D02*
X9710618Y-11220204D01*
X9958237Y-11086871D02*
X9958237Y-11220204D01*
X9910618Y-11010681D02*
X9862999Y-11153538D01*
X9862999Y-11153538D02*
X9986808Y-11153538D01*
X10215380Y-11220204D02*
X10215380Y-11020204D01*
X10301094Y-11220204D02*
X10301094Y-11115443D01*
X10301094Y-11115443D02*
X10291570Y-11096395D01*
X10291570Y-11096395D02*
X10272523Y-11086871D01*
X10272523Y-11086871D02*
X10243951Y-11086871D01*
X10243951Y-11086871D02*
X10224903Y-11096395D01*
X10224903Y-11096395D02*
X10215380Y-11105919D01*
X10424903Y-11220204D02*
X10405856Y-11210681D01*
X10405856Y-11210681D02*
X10396332Y-11201157D01*
X10396332Y-11201157D02*
X10386808Y-11182109D01*
X10386808Y-11182109D02*
X10386808Y-11124966D01*
X10386808Y-11124966D02*
X10396332Y-11105919D01*
X10396332Y-11105919D02*
X10405856Y-11096395D01*
X10405856Y-11096395D02*
X10424903Y-11086871D01*
X10424903Y-11086871D02*
X10453475Y-11086871D01*
X10453475Y-11086871D02*
X10472523Y-11096395D01*
X10472523Y-11096395D02*
X10482046Y-11105919D01*
X10482046Y-11105919D02*
X10491570Y-11124966D01*
X10491570Y-11124966D02*
X10491570Y-11182109D01*
X10491570Y-11182109D02*
X10482046Y-11201157D01*
X10482046Y-11201157D02*
X10472523Y-11210681D01*
X10472523Y-11210681D02*
X10453475Y-11220204D01*
X10453475Y-11220204D02*
X10424903Y-11220204D01*
X10605856Y-11220204D02*
X10586808Y-11210681D01*
X10586808Y-11210681D02*
X10577284Y-11191633D01*
X10577284Y-11191633D02*
X10577284Y-11020204D01*
X10758237Y-11210681D02*
X10739189Y-11220204D01*
X10739189Y-11220204D02*
X10701094Y-11220204D01*
X10701094Y-11220204D02*
X10682046Y-11210681D01*
X10682046Y-11210681D02*
X10672523Y-11191633D01*
X10672523Y-11191633D02*
X10672523Y-11115443D01*
X10672523Y-11115443D02*
X10682046Y-11096395D01*
X10682046Y-11096395D02*
X10701094Y-11086871D01*
X10701094Y-11086871D02*
X10739189Y-11086871D01*
X10739189Y-11086871D02*
X10758237Y-11096395D01*
X10758237Y-11096395D02*
X10767761Y-11115443D01*
X10767761Y-11115443D02*
X10767761Y-11134490D01*
X10767761Y-11134490D02*
X10672523Y-11153538D01*
X10843951Y-11210681D02*
X10862999Y-11220204D01*
X10862999Y-11220204D02*
X10901094Y-11220204D01*
X10901094Y-11220204D02*
X10920142Y-11210681D01*
X10920142Y-11210681D02*
X10929665Y-11191633D01*
X10929665Y-11191633D02*
X10929665Y-11182109D01*
X10929665Y-11182109D02*
X10920142Y-11163062D01*
X10920142Y-11163062D02*
X10901094Y-11153538D01*
X10901094Y-11153538D02*
X10872523Y-11153538D01*
X10872523Y-11153538D02*
X10853475Y-11144014D01*
X10853475Y-11144014D02*
X10843951Y-11124966D01*
X10843951Y-11124966D02*
X10843951Y-11115443D01*
X10843951Y-11115443D02*
X10853475Y-11096395D01*
X10853475Y-11096395D02*
X10872523Y-11086871D01*
X10872523Y-11086871D02*
X10901094Y-11086871D01*
X10901094Y-11086871D02*
X10920142Y-11096395D01*
X10996332Y-11296395D02*
X11005856Y-11286871D01*
X11005856Y-11286871D02*
X11024904Y-11258300D01*
X11024904Y-11258300D02*
X11034427Y-11239252D01*
X11034427Y-11239252D02*
X11043951Y-11210681D01*
X11043951Y-11210681D02*
X11053475Y-11163062D01*
X11053475Y-11163062D02*
X11053475Y-11124966D01*
X11053475Y-11124966D02*
X11043951Y-11077347D01*
X11043951Y-11077347D02*
X11034427Y-11048776D01*
X11034427Y-11048776D02*
X11024904Y-11029728D01*
X11024904Y-11029728D02*
X11005856Y-11001157D01*
X11005856Y-11001157D02*
X10996332Y-10991633D01*
D13*
X5810317Y-11362721D02*
X5810317Y-11422721D01*
X5780317Y-11392721D02*
X5840317Y-11392721D01*
D10*
X6139189Y-11284204D02*
X6158236Y-11284204D01*
X6158236Y-11284204D02*
X6177284Y-11293728D01*
X6177284Y-11293728D02*
X6186808Y-11303252D01*
X6186808Y-11303252D02*
X6196332Y-11322300D01*
X6196332Y-11322300D02*
X6205855Y-11360395D01*
X6205855Y-11360395D02*
X6205855Y-11408014D01*
X6205855Y-11408014D02*
X6196332Y-11446109D01*
X6196332Y-11446109D02*
X6186808Y-11465157D01*
X6186808Y-11465157D02*
X6177284Y-11474681D01*
X6177284Y-11474681D02*
X6158236Y-11484204D01*
X6158236Y-11484204D02*
X6139189Y-11484204D01*
X6139189Y-11484204D02*
X6120141Y-11474681D01*
X6120141Y-11474681D02*
X6110617Y-11465157D01*
X6110617Y-11465157D02*
X6101093Y-11446109D01*
X6101093Y-11446109D02*
X6091570Y-11408014D01*
X6091570Y-11408014D02*
X6091570Y-11360395D01*
X6091570Y-11360395D02*
X6101093Y-11322300D01*
X6101093Y-11322300D02*
X6110617Y-11303252D01*
X6110617Y-11303252D02*
X6120141Y-11293728D01*
X6120141Y-11293728D02*
X6139189Y-11284204D01*
X6291570Y-11465157D02*
X6301093Y-11474681D01*
X6301093Y-11474681D02*
X6291570Y-11484204D01*
X6291570Y-11484204D02*
X6282046Y-11474681D01*
X6282046Y-11474681D02*
X6291570Y-11465157D01*
X6291570Y-11465157D02*
X6291570Y-11484204D01*
X6472522Y-11284204D02*
X6434427Y-11284204D01*
X6434427Y-11284204D02*
X6415379Y-11293728D01*
X6415379Y-11293728D02*
X6405855Y-11303252D01*
X6405855Y-11303252D02*
X6386808Y-11331823D01*
X6386808Y-11331823D02*
X6377284Y-11369919D01*
X6377284Y-11369919D02*
X6377284Y-11446109D01*
X6377284Y-11446109D02*
X6386808Y-11465157D01*
X6386808Y-11465157D02*
X6396332Y-11474681D01*
X6396332Y-11474681D02*
X6415379Y-11484204D01*
X6415379Y-11484204D02*
X6453474Y-11484204D01*
X6453474Y-11484204D02*
X6472522Y-11474681D01*
X6472522Y-11474681D02*
X6482046Y-11465157D01*
X6482046Y-11465157D02*
X6491570Y-11446109D01*
X6491570Y-11446109D02*
X6491570Y-11398490D01*
X6491570Y-11398490D02*
X6482046Y-11379442D01*
X6482046Y-11379442D02*
X6472522Y-11369919D01*
X6472522Y-11369919D02*
X6453474Y-11360395D01*
X6453474Y-11360395D02*
X6415379Y-11360395D01*
X6415379Y-11360395D02*
X6396332Y-11369919D01*
X6396332Y-11369919D02*
X6386808Y-11379442D01*
X6386808Y-11379442D02*
X6377284Y-11398490D01*
X6615379Y-11284204D02*
X6634427Y-11284204D01*
X6634427Y-11284204D02*
X6653474Y-11293728D01*
X6653474Y-11293728D02*
X6662998Y-11303252D01*
X6662998Y-11303252D02*
X6672522Y-11322300D01*
X6672522Y-11322300D02*
X6682046Y-11360395D01*
X6682046Y-11360395D02*
X6682046Y-11408014D01*
X6682046Y-11408014D02*
X6672522Y-11446109D01*
X6672522Y-11446109D02*
X6662998Y-11465157D01*
X6662998Y-11465157D02*
X6653474Y-11474681D01*
X6653474Y-11474681D02*
X6634427Y-11484204D01*
X6634427Y-11484204D02*
X6615379Y-11484204D01*
X6615379Y-11484204D02*
X6596332Y-11474681D01*
X6596332Y-11474681D02*
X6586808Y-11465157D01*
X6586808Y-11465157D02*
X6577284Y-11446109D01*
X6577284Y-11446109D02*
X6567760Y-11408014D01*
X6567760Y-11408014D02*
X6567760Y-11360395D01*
X6567760Y-11360395D02*
X6577284Y-11322300D01*
X6577284Y-11322300D02*
X6586808Y-11303252D01*
X6586808Y-11303252D02*
X6596332Y-11293728D01*
X6596332Y-11293728D02*
X6615379Y-11284204D01*
X6805855Y-11284204D02*
X6824903Y-11284204D01*
X6824903Y-11284204D02*
X6843951Y-11293728D01*
X6843951Y-11293728D02*
X6853474Y-11303252D01*
X6853474Y-11303252D02*
X6862998Y-11322300D01*
X6862998Y-11322300D02*
X6872522Y-11360395D01*
X6872522Y-11360395D02*
X6872522Y-11408014D01*
X6872522Y-11408014D02*
X6862998Y-11446109D01*
X6862998Y-11446109D02*
X6853474Y-11465157D01*
X6853474Y-11465157D02*
X6843951Y-11474681D01*
X6843951Y-11474681D02*
X6824903Y-11484204D01*
X6824903Y-11484204D02*
X6805855Y-11484204D01*
X6805855Y-11484204D02*
X6786808Y-11474681D01*
X6786808Y-11474681D02*
X6777284Y-11465157D01*
X6777284Y-11465157D02*
X6767760Y-11446109D01*
X6767760Y-11446109D02*
X6758236Y-11408014D01*
X6758236Y-11408014D02*
X6758236Y-11360395D01*
X6758236Y-11360395D02*
X6767760Y-11322300D01*
X6767760Y-11322300D02*
X6777284Y-11303252D01*
X6777284Y-11303252D02*
X6786808Y-11293728D01*
X6786808Y-11293728D02*
X6805855Y-11284204D01*
X6958236Y-11484204D02*
X6958236Y-11350871D01*
X6958236Y-11369919D02*
X6967760Y-11360395D01*
X6967760Y-11360395D02*
X6986808Y-11350871D01*
X6986808Y-11350871D02*
X7015379Y-11350871D01*
X7015379Y-11350871D02*
X7034427Y-11360395D01*
X7034427Y-11360395D02*
X7043951Y-11379442D01*
X7043951Y-11379442D02*
X7043951Y-11484204D01*
X7043951Y-11379442D02*
X7053474Y-11360395D01*
X7053474Y-11360395D02*
X7072522Y-11350871D01*
X7072522Y-11350871D02*
X7101093Y-11350871D01*
X7101093Y-11350871D02*
X7120141Y-11360395D01*
X7120141Y-11360395D02*
X7129665Y-11379442D01*
X7129665Y-11379442D02*
X7129665Y-11484204D01*
X7224903Y-11484204D02*
X7224903Y-11350871D01*
X7224903Y-11369919D02*
X7234427Y-11360395D01*
X7234427Y-11360395D02*
X7253474Y-11350871D01*
X7253474Y-11350871D02*
X7282046Y-11350871D01*
X7282046Y-11350871D02*
X7301094Y-11360395D01*
X7301094Y-11360395D02*
X7310617Y-11379442D01*
X7310617Y-11379442D02*
X7310617Y-11484204D01*
X7310617Y-11379442D02*
X7320141Y-11360395D01*
X7320141Y-11360395D02*
X7339189Y-11350871D01*
X7339189Y-11350871D02*
X7367760Y-11350871D01*
X7367760Y-11350871D02*
X7386808Y-11360395D01*
X7386808Y-11360395D02*
X7396332Y-11379442D01*
X7396332Y-11379442D02*
X7396332Y-11484204D01*
X7786808Y-11274681D02*
X7615379Y-11531823D01*
X8043951Y-11284204D02*
X8062998Y-11284204D01*
X8062998Y-11284204D02*
X8082046Y-11293728D01*
X8082046Y-11293728D02*
X8091570Y-11303252D01*
X8091570Y-11303252D02*
X8101094Y-11322300D01*
X8101094Y-11322300D02*
X8110617Y-11360395D01*
X8110617Y-11360395D02*
X8110617Y-11408014D01*
X8110617Y-11408014D02*
X8101094Y-11446109D01*
X8101094Y-11446109D02*
X8091570Y-11465157D01*
X8091570Y-11465157D02*
X8082046Y-11474681D01*
X8082046Y-11474681D02*
X8062998Y-11484204D01*
X8062998Y-11484204D02*
X8043951Y-11484204D01*
X8043951Y-11484204D02*
X8024903Y-11474681D01*
X8024903Y-11474681D02*
X8015379Y-11465157D01*
X8015379Y-11465157D02*
X8005856Y-11446109D01*
X8005856Y-11446109D02*
X7996332Y-11408014D01*
X7996332Y-11408014D02*
X7996332Y-11360395D01*
X7996332Y-11360395D02*
X8005856Y-11322300D01*
X8005856Y-11322300D02*
X8015379Y-11303252D01*
X8015379Y-11303252D02*
X8024903Y-11293728D01*
X8024903Y-11293728D02*
X8043951Y-11284204D01*
X8196332Y-11465157D02*
X8205856Y-11474681D01*
X8205856Y-11474681D02*
X8196332Y-11484204D01*
X8196332Y-11484204D02*
X8186808Y-11474681D01*
X8186808Y-11474681D02*
X8196332Y-11465157D01*
X8196332Y-11465157D02*
X8196332Y-11484204D01*
X8329665Y-11284204D02*
X8348713Y-11284204D01*
X8348713Y-11284204D02*
X8367760Y-11293728D01*
X8367760Y-11293728D02*
X8377284Y-11303252D01*
X8377284Y-11303252D02*
X8386808Y-11322300D01*
X8386808Y-11322300D02*
X8396332Y-11360395D01*
X8396332Y-11360395D02*
X8396332Y-11408014D01*
X8396332Y-11408014D02*
X8386808Y-11446109D01*
X8386808Y-11446109D02*
X8377284Y-11465157D01*
X8377284Y-11465157D02*
X8367760Y-11474681D01*
X8367760Y-11474681D02*
X8348713Y-11484204D01*
X8348713Y-11484204D02*
X8329665Y-11484204D01*
X8329665Y-11484204D02*
X8310617Y-11474681D01*
X8310617Y-11474681D02*
X8301094Y-11465157D01*
X8301094Y-11465157D02*
X8291570Y-11446109D01*
X8291570Y-11446109D02*
X8282046Y-11408014D01*
X8282046Y-11408014D02*
X8282046Y-11360395D01*
X8282046Y-11360395D02*
X8291570Y-11322300D01*
X8291570Y-11322300D02*
X8301094Y-11303252D01*
X8301094Y-11303252D02*
X8310617Y-11293728D01*
X8310617Y-11293728D02*
X8329665Y-11284204D01*
X8472522Y-11303252D02*
X8482046Y-11293728D01*
X8482046Y-11293728D02*
X8501094Y-11284204D01*
X8501094Y-11284204D02*
X8548713Y-11284204D01*
X8548713Y-11284204D02*
X8567760Y-11293728D01*
X8567760Y-11293728D02*
X8577284Y-11303252D01*
X8577284Y-11303252D02*
X8586808Y-11322300D01*
X8586808Y-11322300D02*
X8586808Y-11341347D01*
X8586808Y-11341347D02*
X8577284Y-11369919D01*
X8577284Y-11369919D02*
X8462999Y-11484204D01*
X8462999Y-11484204D02*
X8586808Y-11484204D01*
X8653475Y-11284204D02*
X8777284Y-11284204D01*
X8777284Y-11284204D02*
X8710618Y-11360395D01*
X8710618Y-11360395D02*
X8739189Y-11360395D01*
X8739189Y-11360395D02*
X8758237Y-11369919D01*
X8758237Y-11369919D02*
X8767760Y-11379442D01*
X8767760Y-11379442D02*
X8777284Y-11398490D01*
X8777284Y-11398490D02*
X8777284Y-11446109D01*
X8777284Y-11446109D02*
X8767760Y-11465157D01*
X8767760Y-11465157D02*
X8758237Y-11474681D01*
X8758237Y-11474681D02*
X8739189Y-11484204D01*
X8739189Y-11484204D02*
X8682046Y-11484204D01*
X8682046Y-11484204D02*
X8662999Y-11474681D01*
X8662999Y-11474681D02*
X8653475Y-11465157D01*
X8948713Y-11284204D02*
X8910618Y-11284204D01*
X8910618Y-11284204D02*
X8891570Y-11293728D01*
X8891570Y-11293728D02*
X8882046Y-11303252D01*
X8882046Y-11303252D02*
X8862999Y-11331823D01*
X8862999Y-11331823D02*
X8853475Y-11369919D01*
X8853475Y-11369919D02*
X8853475Y-11446109D01*
X8853475Y-11446109D02*
X8862999Y-11465157D01*
X8862999Y-11465157D02*
X8872522Y-11474681D01*
X8872522Y-11474681D02*
X8891570Y-11484204D01*
X8891570Y-11484204D02*
X8929665Y-11484204D01*
X8929665Y-11484204D02*
X8948713Y-11474681D01*
X8948713Y-11474681D02*
X8958237Y-11465157D01*
X8958237Y-11465157D02*
X8967760Y-11446109D01*
X8967760Y-11446109D02*
X8967760Y-11398490D01*
X8967760Y-11398490D02*
X8958237Y-11379442D01*
X8958237Y-11379442D02*
X8948713Y-11369919D01*
X8948713Y-11369919D02*
X8929665Y-11360395D01*
X8929665Y-11360395D02*
X8891570Y-11360395D01*
X8891570Y-11360395D02*
X8872522Y-11369919D01*
X8872522Y-11369919D02*
X8862999Y-11379442D01*
X8862999Y-11379442D02*
X8853475Y-11398490D01*
X9043951Y-11284204D02*
X9043951Y-11322300D01*
X9120141Y-11284204D02*
X9120141Y-11322300D01*
X9415380Y-11560395D02*
X9405856Y-11550871D01*
X9405856Y-11550871D02*
X9386808Y-11522300D01*
X9386808Y-11522300D02*
X9377284Y-11503252D01*
X9377284Y-11503252D02*
X9367761Y-11474681D01*
X9367761Y-11474681D02*
X9358237Y-11427061D01*
X9358237Y-11427061D02*
X9358237Y-11388966D01*
X9358237Y-11388966D02*
X9367761Y-11341347D01*
X9367761Y-11341347D02*
X9377284Y-11312776D01*
X9377284Y-11312776D02*
X9386808Y-11293728D01*
X9386808Y-11293728D02*
X9405856Y-11265157D01*
X9405856Y-11265157D02*
X9415380Y-11255633D01*
X9529665Y-11284204D02*
X9548713Y-11284204D01*
X9548713Y-11284204D02*
X9567761Y-11293728D01*
X9567761Y-11293728D02*
X9577284Y-11303252D01*
X9577284Y-11303252D02*
X9586808Y-11322300D01*
X9586808Y-11322300D02*
X9596332Y-11360395D01*
X9596332Y-11360395D02*
X9596332Y-11408014D01*
X9596332Y-11408014D02*
X9586808Y-11446109D01*
X9586808Y-11446109D02*
X9577284Y-11465157D01*
X9577284Y-11465157D02*
X9567761Y-11474681D01*
X9567761Y-11474681D02*
X9548713Y-11484204D01*
X9548713Y-11484204D02*
X9529665Y-11484204D01*
X9529665Y-11484204D02*
X9510618Y-11474681D01*
X9510618Y-11474681D02*
X9501094Y-11465157D01*
X9501094Y-11465157D02*
X9491570Y-11446109D01*
X9491570Y-11446109D02*
X9482046Y-11408014D01*
X9482046Y-11408014D02*
X9482046Y-11360395D01*
X9482046Y-11360395D02*
X9491570Y-11322300D01*
X9491570Y-11322300D02*
X9501094Y-11303252D01*
X9501094Y-11303252D02*
X9510618Y-11293728D01*
X9510618Y-11293728D02*
X9529665Y-11284204D01*
X9834427Y-11484204D02*
X9834427Y-11284204D01*
X9920142Y-11484204D02*
X9920142Y-11379442D01*
X9920142Y-11379442D02*
X9910618Y-11360395D01*
X9910618Y-11360395D02*
X9891570Y-11350871D01*
X9891570Y-11350871D02*
X9862999Y-11350871D01*
X9862999Y-11350871D02*
X9843951Y-11360395D01*
X9843951Y-11360395D02*
X9834427Y-11369919D01*
X10043951Y-11484204D02*
X10024903Y-11474681D01*
X10024903Y-11474681D02*
X10015380Y-11465157D01*
X10015380Y-11465157D02*
X10005856Y-11446109D01*
X10005856Y-11446109D02*
X10005856Y-11388966D01*
X10005856Y-11388966D02*
X10015380Y-11369919D01*
X10015380Y-11369919D02*
X10024903Y-11360395D01*
X10024903Y-11360395D02*
X10043951Y-11350871D01*
X10043951Y-11350871D02*
X10072523Y-11350871D01*
X10072523Y-11350871D02*
X10091570Y-11360395D01*
X10091570Y-11360395D02*
X10101094Y-11369919D01*
X10101094Y-11369919D02*
X10110618Y-11388966D01*
X10110618Y-11388966D02*
X10110618Y-11446109D01*
X10110618Y-11446109D02*
X10101094Y-11465157D01*
X10101094Y-11465157D02*
X10091570Y-11474681D01*
X10091570Y-11474681D02*
X10072523Y-11484204D01*
X10072523Y-11484204D02*
X10043951Y-11484204D01*
X10224903Y-11484204D02*
X10205856Y-11474681D01*
X10205856Y-11474681D02*
X10196332Y-11455633D01*
X10196332Y-11455633D02*
X10196332Y-11284204D01*
X10377284Y-11474681D02*
X10358237Y-11484204D01*
X10358237Y-11484204D02*
X10320142Y-11484204D01*
X10320142Y-11484204D02*
X10301094Y-11474681D01*
X10301094Y-11474681D02*
X10291570Y-11455633D01*
X10291570Y-11455633D02*
X10291570Y-11379442D01*
X10291570Y-11379442D02*
X10301094Y-11360395D01*
X10301094Y-11360395D02*
X10320142Y-11350871D01*
X10320142Y-11350871D02*
X10358237Y-11350871D01*
X10358237Y-11350871D02*
X10377284Y-11360395D01*
X10377284Y-11360395D02*
X10386808Y-11379442D01*
X10386808Y-11379442D02*
X10386808Y-11398490D01*
X10386808Y-11398490D02*
X10291570Y-11417538D01*
X10462999Y-11474681D02*
X10482046Y-11484204D01*
X10482046Y-11484204D02*
X10520142Y-11484204D01*
X10520142Y-11484204D02*
X10539189Y-11474681D01*
X10539189Y-11474681D02*
X10548713Y-11455633D01*
X10548713Y-11455633D02*
X10548713Y-11446109D01*
X10548713Y-11446109D02*
X10539189Y-11427061D01*
X10539189Y-11427061D02*
X10520142Y-11417538D01*
X10520142Y-11417538D02*
X10491570Y-11417538D01*
X10491570Y-11417538D02*
X10472523Y-11408014D01*
X10472523Y-11408014D02*
X10462999Y-11388966D01*
X10462999Y-11388966D02*
X10462999Y-11379442D01*
X10462999Y-11379442D02*
X10472523Y-11360395D01*
X10472523Y-11360395D02*
X10491570Y-11350871D01*
X10491570Y-11350871D02*
X10520142Y-11350871D01*
X10520142Y-11350871D02*
X10539189Y-11360395D01*
X10786808Y-11408014D02*
X10939189Y-11408014D01*
X10862999Y-11484204D02*
X10862999Y-11331823D01*
X11272523Y-11350871D02*
X11272523Y-11484204D01*
X11224903Y-11274681D02*
X11177285Y-11417538D01*
X11177285Y-11417538D02*
X11301094Y-11417538D01*
X11520142Y-11474681D02*
X11539189Y-11484204D01*
X11539189Y-11484204D02*
X11577284Y-11484204D01*
X11577284Y-11484204D02*
X11596332Y-11474681D01*
X11596332Y-11474681D02*
X11605856Y-11455633D01*
X11605856Y-11455633D02*
X11605856Y-11446109D01*
X11605856Y-11446109D02*
X11596332Y-11427061D01*
X11596332Y-11427061D02*
X11577284Y-11417538D01*
X11577284Y-11417538D02*
X11548713Y-11417538D01*
X11548713Y-11417538D02*
X11529665Y-11408014D01*
X11529665Y-11408014D02*
X11520142Y-11388966D01*
X11520142Y-11388966D02*
X11520142Y-11379442D01*
X11520142Y-11379442D02*
X11529665Y-11360395D01*
X11529665Y-11360395D02*
X11548713Y-11350871D01*
X11548713Y-11350871D02*
X11577284Y-11350871D01*
X11577284Y-11350871D02*
X11596332Y-11360395D01*
X11720142Y-11484204D02*
X11701094Y-11474681D01*
X11701094Y-11474681D02*
X11691570Y-11455633D01*
X11691570Y-11455633D02*
X11691570Y-11284204D01*
X11824904Y-11484204D02*
X11805856Y-11474681D01*
X11805856Y-11474681D02*
X11796332Y-11465157D01*
X11796332Y-11465157D02*
X11786808Y-11446109D01*
X11786808Y-11446109D02*
X11786808Y-11388966D01*
X11786808Y-11388966D02*
X11796332Y-11369919D01*
X11796332Y-11369919D02*
X11805856Y-11360395D01*
X11805856Y-11360395D02*
X11824904Y-11350871D01*
X11824904Y-11350871D02*
X11853475Y-11350871D01*
X11853475Y-11350871D02*
X11872523Y-11360395D01*
X11872523Y-11360395D02*
X11882046Y-11369919D01*
X11882046Y-11369919D02*
X11891570Y-11388966D01*
X11891570Y-11388966D02*
X11891570Y-11446109D01*
X11891570Y-11446109D02*
X11882046Y-11465157D01*
X11882046Y-11465157D02*
X11872523Y-11474681D01*
X11872523Y-11474681D02*
X11853475Y-11484204D01*
X11853475Y-11484204D02*
X11824904Y-11484204D01*
X11948713Y-11350871D02*
X12024904Y-11350871D01*
X11977285Y-11284204D02*
X11977285Y-11455633D01*
X11977285Y-11455633D02*
X11986808Y-11474681D01*
X11986808Y-11474681D02*
X12005856Y-11484204D01*
X12005856Y-11484204D02*
X12024904Y-11484204D01*
X12082046Y-11474681D02*
X12101094Y-11484204D01*
X12101094Y-11484204D02*
X12139189Y-11484204D01*
X12139189Y-11484204D02*
X12158237Y-11474681D01*
X12158237Y-11474681D02*
X12167761Y-11455633D01*
X12167761Y-11455633D02*
X12167761Y-11446109D01*
X12167761Y-11446109D02*
X12158237Y-11427061D01*
X12158237Y-11427061D02*
X12139189Y-11417538D01*
X12139189Y-11417538D02*
X12110618Y-11417538D01*
X12110618Y-11417538D02*
X12091570Y-11408014D01*
X12091570Y-11408014D02*
X12082046Y-11388966D01*
X12082046Y-11388966D02*
X12082046Y-11379442D01*
X12082046Y-11379442D02*
X12091570Y-11360395D01*
X12091570Y-11360395D02*
X12110618Y-11350871D01*
X12110618Y-11350871D02*
X12139189Y-11350871D01*
X12139189Y-11350871D02*
X12158237Y-11360395D01*
X12234427Y-11560395D02*
X12243951Y-11550871D01*
X12243951Y-11550871D02*
X12262999Y-11522300D01*
X12262999Y-11522300D02*
X12272523Y-11503252D01*
X12272523Y-11503252D02*
X12282046Y-11474681D01*
X12282046Y-11474681D02*
X12291570Y-11427061D01*
X12291570Y-11427061D02*
X12291570Y-11388966D01*
X12291570Y-11388966D02*
X12282046Y-11341347D01*
X12282046Y-11341347D02*
X12272523Y-11312776D01*
X12272523Y-11312776D02*
X12262999Y-11293728D01*
X12262999Y-11293728D02*
X12243951Y-11265157D01*
X12243951Y-11265157D02*
X12234427Y-11255633D01*
D14*
X5828601Y-11685005D02*
X5828601Y-11628436D01*
X5772032Y-11628436D01*
X5772032Y-11685005D01*
X5828601Y-11685005D01*
D10*
X6139189Y-11548204D02*
X6158236Y-11548204D01*
X6158236Y-11548204D02*
X6177284Y-11557728D01*
X6177284Y-11557728D02*
X6186808Y-11567252D01*
X6186808Y-11567252D02*
X6196332Y-11586300D01*
X6196332Y-11586300D02*
X6205855Y-11624395D01*
X6205855Y-11624395D02*
X6205855Y-11672014D01*
X6205855Y-11672014D02*
X6196332Y-11710109D01*
X6196332Y-11710109D02*
X6186808Y-11729157D01*
X6186808Y-11729157D02*
X6177284Y-11738681D01*
X6177284Y-11738681D02*
X6158236Y-11748204D01*
X6158236Y-11748204D02*
X6139189Y-11748204D01*
X6139189Y-11748204D02*
X6120141Y-11738681D01*
X6120141Y-11738681D02*
X6110617Y-11729157D01*
X6110617Y-11729157D02*
X6101093Y-11710109D01*
X6101093Y-11710109D02*
X6091570Y-11672014D01*
X6091570Y-11672014D02*
X6091570Y-11624395D01*
X6091570Y-11624395D02*
X6101093Y-11586300D01*
X6101093Y-11586300D02*
X6110617Y-11567252D01*
X6110617Y-11567252D02*
X6120141Y-11557728D01*
X6120141Y-11557728D02*
X6139189Y-11548204D01*
X6291570Y-11729157D02*
X6301093Y-11738681D01*
X6301093Y-11738681D02*
X6291570Y-11748204D01*
X6291570Y-11748204D02*
X6282046Y-11738681D01*
X6282046Y-11738681D02*
X6291570Y-11729157D01*
X6291570Y-11729157D02*
X6291570Y-11748204D01*
X6415379Y-11633919D02*
X6396332Y-11624395D01*
X6396332Y-11624395D02*
X6386808Y-11614871D01*
X6386808Y-11614871D02*
X6377284Y-11595823D01*
X6377284Y-11595823D02*
X6377284Y-11586300D01*
X6377284Y-11586300D02*
X6386808Y-11567252D01*
X6386808Y-11567252D02*
X6396332Y-11557728D01*
X6396332Y-11557728D02*
X6415379Y-11548204D01*
X6415379Y-11548204D02*
X6453474Y-11548204D01*
X6453474Y-11548204D02*
X6472522Y-11557728D01*
X6472522Y-11557728D02*
X6482046Y-11567252D01*
X6482046Y-11567252D02*
X6491570Y-11586300D01*
X6491570Y-11586300D02*
X6491570Y-11595823D01*
X6491570Y-11595823D02*
X6482046Y-11614871D01*
X6482046Y-11614871D02*
X6472522Y-11624395D01*
X6472522Y-11624395D02*
X6453474Y-11633919D01*
X6453474Y-11633919D02*
X6415379Y-11633919D01*
X6415379Y-11633919D02*
X6396332Y-11643442D01*
X6396332Y-11643442D02*
X6386808Y-11652966D01*
X6386808Y-11652966D02*
X6377284Y-11672014D01*
X6377284Y-11672014D02*
X6377284Y-11710109D01*
X6377284Y-11710109D02*
X6386808Y-11729157D01*
X6386808Y-11729157D02*
X6396332Y-11738681D01*
X6396332Y-11738681D02*
X6415379Y-11748204D01*
X6415379Y-11748204D02*
X6453474Y-11748204D01*
X6453474Y-11748204D02*
X6472522Y-11738681D01*
X6472522Y-11738681D02*
X6482046Y-11729157D01*
X6482046Y-11729157D02*
X6491570Y-11710109D01*
X6491570Y-11710109D02*
X6491570Y-11672014D01*
X6491570Y-11672014D02*
X6482046Y-11652966D01*
X6482046Y-11652966D02*
X6472522Y-11643442D01*
X6472522Y-11643442D02*
X6453474Y-11633919D01*
X6615379Y-11548204D02*
X6634427Y-11548204D01*
X6634427Y-11548204D02*
X6653474Y-11557728D01*
X6653474Y-11557728D02*
X6662998Y-11567252D01*
X6662998Y-11567252D02*
X6672522Y-11586300D01*
X6672522Y-11586300D02*
X6682046Y-11624395D01*
X6682046Y-11624395D02*
X6682046Y-11672014D01*
X6682046Y-11672014D02*
X6672522Y-11710109D01*
X6672522Y-11710109D02*
X6662998Y-11729157D01*
X6662998Y-11729157D02*
X6653474Y-11738681D01*
X6653474Y-11738681D02*
X6634427Y-11748204D01*
X6634427Y-11748204D02*
X6615379Y-11748204D01*
X6615379Y-11748204D02*
X6596332Y-11738681D01*
X6596332Y-11738681D02*
X6586808Y-11729157D01*
X6586808Y-11729157D02*
X6577284Y-11710109D01*
X6577284Y-11710109D02*
X6567760Y-11672014D01*
X6567760Y-11672014D02*
X6567760Y-11624395D01*
X6567760Y-11624395D02*
X6577284Y-11586300D01*
X6577284Y-11586300D02*
X6586808Y-11567252D01*
X6586808Y-11567252D02*
X6596332Y-11557728D01*
X6596332Y-11557728D02*
X6615379Y-11548204D01*
X6805855Y-11548204D02*
X6824903Y-11548204D01*
X6824903Y-11548204D02*
X6843951Y-11557728D01*
X6843951Y-11557728D02*
X6853474Y-11567252D01*
X6853474Y-11567252D02*
X6862998Y-11586300D01*
X6862998Y-11586300D02*
X6872522Y-11624395D01*
X6872522Y-11624395D02*
X6872522Y-11672014D01*
X6872522Y-11672014D02*
X6862998Y-11710109D01*
X6862998Y-11710109D02*
X6853474Y-11729157D01*
X6853474Y-11729157D02*
X6843951Y-11738681D01*
X6843951Y-11738681D02*
X6824903Y-11748204D01*
X6824903Y-11748204D02*
X6805855Y-11748204D01*
X6805855Y-11748204D02*
X6786808Y-11738681D01*
X6786808Y-11738681D02*
X6777284Y-11729157D01*
X6777284Y-11729157D02*
X6767760Y-11710109D01*
X6767760Y-11710109D02*
X6758236Y-11672014D01*
X6758236Y-11672014D02*
X6758236Y-11624395D01*
X6758236Y-11624395D02*
X6767760Y-11586300D01*
X6767760Y-11586300D02*
X6777284Y-11567252D01*
X6777284Y-11567252D02*
X6786808Y-11557728D01*
X6786808Y-11557728D02*
X6805855Y-11548204D01*
X6958236Y-11748204D02*
X6958236Y-11614871D01*
X6958236Y-11633919D02*
X6967760Y-11624395D01*
X6967760Y-11624395D02*
X6986808Y-11614871D01*
X6986808Y-11614871D02*
X7015379Y-11614871D01*
X7015379Y-11614871D02*
X7034427Y-11624395D01*
X7034427Y-11624395D02*
X7043951Y-11643442D01*
X7043951Y-11643442D02*
X7043951Y-11748204D01*
X7043951Y-11643442D02*
X7053474Y-11624395D01*
X7053474Y-11624395D02*
X7072522Y-11614871D01*
X7072522Y-11614871D02*
X7101093Y-11614871D01*
X7101093Y-11614871D02*
X7120141Y-11624395D01*
X7120141Y-11624395D02*
X7129665Y-11643442D01*
X7129665Y-11643442D02*
X7129665Y-11748204D01*
X7224903Y-11748204D02*
X7224903Y-11614871D01*
X7224903Y-11633919D02*
X7234427Y-11624395D01*
X7234427Y-11624395D02*
X7253474Y-11614871D01*
X7253474Y-11614871D02*
X7282046Y-11614871D01*
X7282046Y-11614871D02*
X7301094Y-11624395D01*
X7301094Y-11624395D02*
X7310617Y-11643442D01*
X7310617Y-11643442D02*
X7310617Y-11748204D01*
X7310617Y-11643442D02*
X7320141Y-11624395D01*
X7320141Y-11624395D02*
X7339189Y-11614871D01*
X7339189Y-11614871D02*
X7367760Y-11614871D01*
X7367760Y-11614871D02*
X7386808Y-11624395D01*
X7386808Y-11624395D02*
X7396332Y-11643442D01*
X7396332Y-11643442D02*
X7396332Y-11748204D01*
X7786808Y-11538681D02*
X7615379Y-11795823D01*
X8043951Y-11548204D02*
X8062998Y-11548204D01*
X8062998Y-11548204D02*
X8082046Y-11557728D01*
X8082046Y-11557728D02*
X8091570Y-11567252D01*
X8091570Y-11567252D02*
X8101094Y-11586300D01*
X8101094Y-11586300D02*
X8110617Y-11624395D01*
X8110617Y-11624395D02*
X8110617Y-11672014D01*
X8110617Y-11672014D02*
X8101094Y-11710109D01*
X8101094Y-11710109D02*
X8091570Y-11729157D01*
X8091570Y-11729157D02*
X8082046Y-11738681D01*
X8082046Y-11738681D02*
X8062998Y-11748204D01*
X8062998Y-11748204D02*
X8043951Y-11748204D01*
X8043951Y-11748204D02*
X8024903Y-11738681D01*
X8024903Y-11738681D02*
X8015379Y-11729157D01*
X8015379Y-11729157D02*
X8005856Y-11710109D01*
X8005856Y-11710109D02*
X7996332Y-11672014D01*
X7996332Y-11672014D02*
X7996332Y-11624395D01*
X7996332Y-11624395D02*
X8005856Y-11586300D01*
X8005856Y-11586300D02*
X8015379Y-11567252D01*
X8015379Y-11567252D02*
X8024903Y-11557728D01*
X8024903Y-11557728D02*
X8043951Y-11548204D01*
X8196332Y-11729157D02*
X8205856Y-11738681D01*
X8205856Y-11738681D02*
X8196332Y-11748204D01*
X8196332Y-11748204D02*
X8186808Y-11738681D01*
X8186808Y-11738681D02*
X8196332Y-11729157D01*
X8196332Y-11729157D02*
X8196332Y-11748204D01*
X8329665Y-11548204D02*
X8348713Y-11548204D01*
X8348713Y-11548204D02*
X8367760Y-11557728D01*
X8367760Y-11557728D02*
X8377284Y-11567252D01*
X8377284Y-11567252D02*
X8386808Y-11586300D01*
X8386808Y-11586300D02*
X8396332Y-11624395D01*
X8396332Y-11624395D02*
X8396332Y-11672014D01*
X8396332Y-11672014D02*
X8386808Y-11710109D01*
X8386808Y-11710109D02*
X8377284Y-11729157D01*
X8377284Y-11729157D02*
X8367760Y-11738681D01*
X8367760Y-11738681D02*
X8348713Y-11748204D01*
X8348713Y-11748204D02*
X8329665Y-11748204D01*
X8329665Y-11748204D02*
X8310617Y-11738681D01*
X8310617Y-11738681D02*
X8301094Y-11729157D01*
X8301094Y-11729157D02*
X8291570Y-11710109D01*
X8291570Y-11710109D02*
X8282046Y-11672014D01*
X8282046Y-11672014D02*
X8282046Y-11624395D01*
X8282046Y-11624395D02*
X8291570Y-11586300D01*
X8291570Y-11586300D02*
X8301094Y-11567252D01*
X8301094Y-11567252D02*
X8310617Y-11557728D01*
X8310617Y-11557728D02*
X8329665Y-11548204D01*
X8462999Y-11548204D02*
X8586808Y-11548204D01*
X8586808Y-11548204D02*
X8520141Y-11624395D01*
X8520141Y-11624395D02*
X8548713Y-11624395D01*
X8548713Y-11624395D02*
X8567760Y-11633919D01*
X8567760Y-11633919D02*
X8577284Y-11643442D01*
X8577284Y-11643442D02*
X8586808Y-11662490D01*
X8586808Y-11662490D02*
X8586808Y-11710109D01*
X8586808Y-11710109D02*
X8577284Y-11729157D01*
X8577284Y-11729157D02*
X8567760Y-11738681D01*
X8567760Y-11738681D02*
X8548713Y-11748204D01*
X8548713Y-11748204D02*
X8491570Y-11748204D01*
X8491570Y-11748204D02*
X8472522Y-11738681D01*
X8472522Y-11738681D02*
X8462999Y-11729157D01*
X8777284Y-11748204D02*
X8662999Y-11748204D01*
X8720141Y-11748204D02*
X8720141Y-11548204D01*
X8720141Y-11548204D02*
X8701094Y-11576776D01*
X8701094Y-11576776D02*
X8682046Y-11595823D01*
X8682046Y-11595823D02*
X8662999Y-11605347D01*
X8958237Y-11548204D02*
X8862999Y-11548204D01*
X8862999Y-11548204D02*
X8853475Y-11643442D01*
X8853475Y-11643442D02*
X8862999Y-11633919D01*
X8862999Y-11633919D02*
X8882046Y-11624395D01*
X8882046Y-11624395D02*
X8929665Y-11624395D01*
X8929665Y-11624395D02*
X8948713Y-11633919D01*
X8948713Y-11633919D02*
X8958237Y-11643442D01*
X8958237Y-11643442D02*
X8967760Y-11662490D01*
X8967760Y-11662490D02*
X8967760Y-11710109D01*
X8967760Y-11710109D02*
X8958237Y-11729157D01*
X8958237Y-11729157D02*
X8948713Y-11738681D01*
X8948713Y-11738681D02*
X8929665Y-11748204D01*
X8929665Y-11748204D02*
X8882046Y-11748204D01*
X8882046Y-11748204D02*
X8862999Y-11738681D01*
X8862999Y-11738681D02*
X8853475Y-11729157D01*
X9043951Y-11548204D02*
X9043951Y-11586300D01*
X9120141Y-11548204D02*
X9120141Y-11586300D01*
X9415380Y-11824395D02*
X9405856Y-11814871D01*
X9405856Y-11814871D02*
X9386808Y-11786300D01*
X9386808Y-11786300D02*
X9377284Y-11767252D01*
X9377284Y-11767252D02*
X9367761Y-11738681D01*
X9367761Y-11738681D02*
X9358237Y-11691061D01*
X9358237Y-11691061D02*
X9358237Y-11652966D01*
X9358237Y-11652966D02*
X9367761Y-11605347D01*
X9367761Y-11605347D02*
X9377284Y-11576776D01*
X9377284Y-11576776D02*
X9386808Y-11557728D01*
X9386808Y-11557728D02*
X9405856Y-11529157D01*
X9405856Y-11529157D02*
X9415380Y-11519633D01*
X9577284Y-11614871D02*
X9577284Y-11748204D01*
X9529665Y-11538681D02*
X9482046Y-11681538D01*
X9482046Y-11681538D02*
X9605856Y-11681538D01*
X9834427Y-11748204D02*
X9834427Y-11548204D01*
X9920142Y-11748204D02*
X9920142Y-11643442D01*
X9920142Y-11643442D02*
X9910618Y-11624395D01*
X9910618Y-11624395D02*
X9891570Y-11614871D01*
X9891570Y-11614871D02*
X9862999Y-11614871D01*
X9862999Y-11614871D02*
X9843951Y-11624395D01*
X9843951Y-11624395D02*
X9834427Y-11633919D01*
X10043951Y-11748204D02*
X10024903Y-11738681D01*
X10024903Y-11738681D02*
X10015380Y-11729157D01*
X10015380Y-11729157D02*
X10005856Y-11710109D01*
X10005856Y-11710109D02*
X10005856Y-11652966D01*
X10005856Y-11652966D02*
X10015380Y-11633919D01*
X10015380Y-11633919D02*
X10024903Y-11624395D01*
X10024903Y-11624395D02*
X10043951Y-11614871D01*
X10043951Y-11614871D02*
X10072523Y-11614871D01*
X10072523Y-11614871D02*
X10091570Y-11624395D01*
X10091570Y-11624395D02*
X10101094Y-11633919D01*
X10101094Y-11633919D02*
X10110618Y-11652966D01*
X10110618Y-11652966D02*
X10110618Y-11710109D01*
X10110618Y-11710109D02*
X10101094Y-11729157D01*
X10101094Y-11729157D02*
X10091570Y-11738681D01*
X10091570Y-11738681D02*
X10072523Y-11748204D01*
X10072523Y-11748204D02*
X10043951Y-11748204D01*
X10224903Y-11748204D02*
X10205856Y-11738681D01*
X10205856Y-11738681D02*
X10196332Y-11719633D01*
X10196332Y-11719633D02*
X10196332Y-11548204D01*
X10377284Y-11738681D02*
X10358237Y-11748204D01*
X10358237Y-11748204D02*
X10320142Y-11748204D01*
X10320142Y-11748204D02*
X10301094Y-11738681D01*
X10301094Y-11738681D02*
X10291570Y-11719633D01*
X10291570Y-11719633D02*
X10291570Y-11643442D01*
X10291570Y-11643442D02*
X10301094Y-11624395D01*
X10301094Y-11624395D02*
X10320142Y-11614871D01*
X10320142Y-11614871D02*
X10358237Y-11614871D01*
X10358237Y-11614871D02*
X10377284Y-11624395D01*
X10377284Y-11624395D02*
X10386808Y-11643442D01*
X10386808Y-11643442D02*
X10386808Y-11662490D01*
X10386808Y-11662490D02*
X10291570Y-11681538D01*
X10462999Y-11738681D02*
X10482046Y-11748204D01*
X10482046Y-11748204D02*
X10520142Y-11748204D01*
X10520142Y-11748204D02*
X10539189Y-11738681D01*
X10539189Y-11738681D02*
X10548713Y-11719633D01*
X10548713Y-11719633D02*
X10548713Y-11710109D01*
X10548713Y-11710109D02*
X10539189Y-11691061D01*
X10539189Y-11691061D02*
X10520142Y-11681538D01*
X10520142Y-11681538D02*
X10491570Y-11681538D01*
X10491570Y-11681538D02*
X10472523Y-11672014D01*
X10472523Y-11672014D02*
X10462999Y-11652966D01*
X10462999Y-11652966D02*
X10462999Y-11643442D01*
X10462999Y-11643442D02*
X10472523Y-11624395D01*
X10472523Y-11624395D02*
X10491570Y-11614871D01*
X10491570Y-11614871D02*
X10520142Y-11614871D01*
X10520142Y-11614871D02*
X10539189Y-11624395D01*
X10615380Y-11824395D02*
X10624904Y-11814871D01*
X10624904Y-11814871D02*
X10643951Y-11786300D01*
X10643951Y-11786300D02*
X10653475Y-11767252D01*
X10653475Y-11767252D02*
X10662999Y-11738681D01*
X10662999Y-11738681D02*
X10672523Y-11691061D01*
X10672523Y-11691061D02*
X10672523Y-11652966D01*
X10672523Y-11652966D02*
X10662999Y-11605347D01*
X10662999Y-11605347D02*
X10653475Y-11576776D01*
X10653475Y-11576776D02*
X10643951Y-11557728D01*
X10643951Y-11557728D02*
X10624904Y-11529157D01*
X10624904Y-11529157D02*
X10615380Y-11519633D01*
D15*
X5790317Y-11970721D02*
X5840317Y-11920721D01*
X5790317Y-11870721D01*
X5740317Y-11920721D01*
X5790317Y-11970721D01*
D10*
X6205855Y-12012204D02*
X6091570Y-12012204D01*
X6148712Y-12012204D02*
X6148712Y-11812204D01*
X6148712Y-11812204D02*
X6129665Y-11840776D01*
X6129665Y-11840776D02*
X6110617Y-11859823D01*
X6110617Y-11859823D02*
X6091570Y-11869347D01*
X6291570Y-11993157D02*
X6301093Y-12002681D01*
X6301093Y-12002681D02*
X6291570Y-12012204D01*
X6291570Y-12012204D02*
X6282046Y-12002681D01*
X6282046Y-12002681D02*
X6291570Y-11993157D01*
X6291570Y-11993157D02*
X6291570Y-12012204D01*
X6424903Y-11812204D02*
X6443951Y-11812204D01*
X6443951Y-11812204D02*
X6462998Y-11821728D01*
X6462998Y-11821728D02*
X6472522Y-11831252D01*
X6472522Y-11831252D02*
X6482046Y-11850300D01*
X6482046Y-11850300D02*
X6491570Y-11888395D01*
X6491570Y-11888395D02*
X6491570Y-11936014D01*
X6491570Y-11936014D02*
X6482046Y-11974109D01*
X6482046Y-11974109D02*
X6472522Y-11993157D01*
X6472522Y-11993157D02*
X6462998Y-12002681D01*
X6462998Y-12002681D02*
X6443951Y-12012204D01*
X6443951Y-12012204D02*
X6424903Y-12012204D01*
X6424903Y-12012204D02*
X6405855Y-12002681D01*
X6405855Y-12002681D02*
X6396332Y-11993157D01*
X6396332Y-11993157D02*
X6386808Y-11974109D01*
X6386808Y-11974109D02*
X6377284Y-11936014D01*
X6377284Y-11936014D02*
X6377284Y-11888395D01*
X6377284Y-11888395D02*
X6386808Y-11850300D01*
X6386808Y-11850300D02*
X6396332Y-11831252D01*
X6396332Y-11831252D02*
X6405855Y-11821728D01*
X6405855Y-11821728D02*
X6424903Y-11812204D01*
X6615379Y-11812204D02*
X6634427Y-11812204D01*
X6634427Y-11812204D02*
X6653474Y-11821728D01*
X6653474Y-11821728D02*
X6662998Y-11831252D01*
X6662998Y-11831252D02*
X6672522Y-11850300D01*
X6672522Y-11850300D02*
X6682046Y-11888395D01*
X6682046Y-11888395D02*
X6682046Y-11936014D01*
X6682046Y-11936014D02*
X6672522Y-11974109D01*
X6672522Y-11974109D02*
X6662998Y-11993157D01*
X6662998Y-11993157D02*
X6653474Y-12002681D01*
X6653474Y-12002681D02*
X6634427Y-12012204D01*
X6634427Y-12012204D02*
X6615379Y-12012204D01*
X6615379Y-12012204D02*
X6596332Y-12002681D01*
X6596332Y-12002681D02*
X6586808Y-11993157D01*
X6586808Y-11993157D02*
X6577284Y-11974109D01*
X6577284Y-11974109D02*
X6567760Y-11936014D01*
X6567760Y-11936014D02*
X6567760Y-11888395D01*
X6567760Y-11888395D02*
X6577284Y-11850300D01*
X6577284Y-11850300D02*
X6586808Y-11831252D01*
X6586808Y-11831252D02*
X6596332Y-11821728D01*
X6596332Y-11821728D02*
X6615379Y-11812204D01*
X6805855Y-11812204D02*
X6824903Y-11812204D01*
X6824903Y-11812204D02*
X6843951Y-11821728D01*
X6843951Y-11821728D02*
X6853474Y-11831252D01*
X6853474Y-11831252D02*
X6862998Y-11850300D01*
X6862998Y-11850300D02*
X6872522Y-11888395D01*
X6872522Y-11888395D02*
X6872522Y-11936014D01*
X6872522Y-11936014D02*
X6862998Y-11974109D01*
X6862998Y-11974109D02*
X6853474Y-11993157D01*
X6853474Y-11993157D02*
X6843951Y-12002681D01*
X6843951Y-12002681D02*
X6824903Y-12012204D01*
X6824903Y-12012204D02*
X6805855Y-12012204D01*
X6805855Y-12012204D02*
X6786808Y-12002681D01*
X6786808Y-12002681D02*
X6777284Y-11993157D01*
X6777284Y-11993157D02*
X6767760Y-11974109D01*
X6767760Y-11974109D02*
X6758236Y-11936014D01*
X6758236Y-11936014D02*
X6758236Y-11888395D01*
X6758236Y-11888395D02*
X6767760Y-11850300D01*
X6767760Y-11850300D02*
X6777284Y-11831252D01*
X6777284Y-11831252D02*
X6786808Y-11821728D01*
X6786808Y-11821728D02*
X6805855Y-11812204D01*
X6958236Y-12012204D02*
X6958236Y-11878871D01*
X6958236Y-11897919D02*
X6967760Y-11888395D01*
X6967760Y-11888395D02*
X6986808Y-11878871D01*
X6986808Y-11878871D02*
X7015379Y-11878871D01*
X7015379Y-11878871D02*
X7034427Y-11888395D01*
X7034427Y-11888395D02*
X7043951Y-11907442D01*
X7043951Y-11907442D02*
X7043951Y-12012204D01*
X7043951Y-11907442D02*
X7053474Y-11888395D01*
X7053474Y-11888395D02*
X7072522Y-11878871D01*
X7072522Y-11878871D02*
X7101093Y-11878871D01*
X7101093Y-11878871D02*
X7120141Y-11888395D01*
X7120141Y-11888395D02*
X7129665Y-11907442D01*
X7129665Y-11907442D02*
X7129665Y-12012204D01*
X7224903Y-12012204D02*
X7224903Y-11878871D01*
X7224903Y-11897919D02*
X7234427Y-11888395D01*
X7234427Y-11888395D02*
X7253474Y-11878871D01*
X7253474Y-11878871D02*
X7282046Y-11878871D01*
X7282046Y-11878871D02*
X7301094Y-11888395D01*
X7301094Y-11888395D02*
X7310617Y-11907442D01*
X7310617Y-11907442D02*
X7310617Y-12012204D01*
X7310617Y-11907442D02*
X7320141Y-11888395D01*
X7320141Y-11888395D02*
X7339189Y-11878871D01*
X7339189Y-11878871D02*
X7367760Y-11878871D01*
X7367760Y-11878871D02*
X7386808Y-11888395D01*
X7386808Y-11888395D02*
X7396332Y-11907442D01*
X7396332Y-11907442D02*
X7396332Y-12012204D01*
X7786808Y-11802681D02*
X7615379Y-12059823D01*
X8043951Y-11812204D02*
X8062998Y-11812204D01*
X8062998Y-11812204D02*
X8082046Y-11821728D01*
X8082046Y-11821728D02*
X8091570Y-11831252D01*
X8091570Y-11831252D02*
X8101094Y-11850300D01*
X8101094Y-11850300D02*
X8110617Y-11888395D01*
X8110617Y-11888395D02*
X8110617Y-11936014D01*
X8110617Y-11936014D02*
X8101094Y-11974109D01*
X8101094Y-11974109D02*
X8091570Y-11993157D01*
X8091570Y-11993157D02*
X8082046Y-12002681D01*
X8082046Y-12002681D02*
X8062998Y-12012204D01*
X8062998Y-12012204D02*
X8043951Y-12012204D01*
X8043951Y-12012204D02*
X8024903Y-12002681D01*
X8024903Y-12002681D02*
X8015379Y-11993157D01*
X8015379Y-11993157D02*
X8005856Y-11974109D01*
X8005856Y-11974109D02*
X7996332Y-11936014D01*
X7996332Y-11936014D02*
X7996332Y-11888395D01*
X7996332Y-11888395D02*
X8005856Y-11850300D01*
X8005856Y-11850300D02*
X8015379Y-11831252D01*
X8015379Y-11831252D02*
X8024903Y-11821728D01*
X8024903Y-11821728D02*
X8043951Y-11812204D01*
X8196332Y-11993157D02*
X8205856Y-12002681D01*
X8205856Y-12002681D02*
X8196332Y-12012204D01*
X8196332Y-12012204D02*
X8186808Y-12002681D01*
X8186808Y-12002681D02*
X8196332Y-11993157D01*
X8196332Y-11993157D02*
X8196332Y-12012204D01*
X8329665Y-11812204D02*
X8348713Y-11812204D01*
X8348713Y-11812204D02*
X8367760Y-11821728D01*
X8367760Y-11821728D02*
X8377284Y-11831252D01*
X8377284Y-11831252D02*
X8386808Y-11850300D01*
X8386808Y-11850300D02*
X8396332Y-11888395D01*
X8396332Y-11888395D02*
X8396332Y-11936014D01*
X8396332Y-11936014D02*
X8386808Y-11974109D01*
X8386808Y-11974109D02*
X8377284Y-11993157D01*
X8377284Y-11993157D02*
X8367760Y-12002681D01*
X8367760Y-12002681D02*
X8348713Y-12012204D01*
X8348713Y-12012204D02*
X8329665Y-12012204D01*
X8329665Y-12012204D02*
X8310617Y-12002681D01*
X8310617Y-12002681D02*
X8301094Y-11993157D01*
X8301094Y-11993157D02*
X8291570Y-11974109D01*
X8291570Y-11974109D02*
X8282046Y-11936014D01*
X8282046Y-11936014D02*
X8282046Y-11888395D01*
X8282046Y-11888395D02*
X8291570Y-11850300D01*
X8291570Y-11850300D02*
X8301094Y-11831252D01*
X8301094Y-11831252D02*
X8310617Y-11821728D01*
X8310617Y-11821728D02*
X8329665Y-11812204D01*
X8462999Y-11812204D02*
X8586808Y-11812204D01*
X8586808Y-11812204D02*
X8520141Y-11888395D01*
X8520141Y-11888395D02*
X8548713Y-11888395D01*
X8548713Y-11888395D02*
X8567760Y-11897919D01*
X8567760Y-11897919D02*
X8577284Y-11907442D01*
X8577284Y-11907442D02*
X8586808Y-11926490D01*
X8586808Y-11926490D02*
X8586808Y-11974109D01*
X8586808Y-11974109D02*
X8577284Y-11993157D01*
X8577284Y-11993157D02*
X8567760Y-12002681D01*
X8567760Y-12002681D02*
X8548713Y-12012204D01*
X8548713Y-12012204D02*
X8491570Y-12012204D01*
X8491570Y-12012204D02*
X8472522Y-12002681D01*
X8472522Y-12002681D02*
X8462999Y-11993157D01*
X8682046Y-12012204D02*
X8720141Y-12012204D01*
X8720141Y-12012204D02*
X8739189Y-12002681D01*
X8739189Y-12002681D02*
X8748713Y-11993157D01*
X8748713Y-11993157D02*
X8767760Y-11964585D01*
X8767760Y-11964585D02*
X8777284Y-11926490D01*
X8777284Y-11926490D02*
X8777284Y-11850300D01*
X8777284Y-11850300D02*
X8767760Y-11831252D01*
X8767760Y-11831252D02*
X8758237Y-11821728D01*
X8758237Y-11821728D02*
X8739189Y-11812204D01*
X8739189Y-11812204D02*
X8701094Y-11812204D01*
X8701094Y-11812204D02*
X8682046Y-11821728D01*
X8682046Y-11821728D02*
X8672522Y-11831252D01*
X8672522Y-11831252D02*
X8662999Y-11850300D01*
X8662999Y-11850300D02*
X8662999Y-11897919D01*
X8662999Y-11897919D02*
X8672522Y-11916966D01*
X8672522Y-11916966D02*
X8682046Y-11926490D01*
X8682046Y-11926490D02*
X8701094Y-11936014D01*
X8701094Y-11936014D02*
X8739189Y-11936014D01*
X8739189Y-11936014D02*
X8758237Y-11926490D01*
X8758237Y-11926490D02*
X8767760Y-11916966D01*
X8767760Y-11916966D02*
X8777284Y-11897919D01*
X8948713Y-11878871D02*
X8948713Y-12012204D01*
X8901094Y-11802681D02*
X8853475Y-11945538D01*
X8853475Y-11945538D02*
X8977284Y-11945538D01*
X9043951Y-11812204D02*
X9043951Y-11850300D01*
X9120141Y-11812204D02*
X9120141Y-11850300D01*
X9415380Y-12088395D02*
X9405856Y-12078871D01*
X9405856Y-12078871D02*
X9386808Y-12050300D01*
X9386808Y-12050300D02*
X9377284Y-12031252D01*
X9377284Y-12031252D02*
X9367761Y-12002681D01*
X9367761Y-12002681D02*
X9358237Y-11955061D01*
X9358237Y-11955061D02*
X9358237Y-11916966D01*
X9358237Y-11916966D02*
X9367761Y-11869347D01*
X9367761Y-11869347D02*
X9377284Y-11840776D01*
X9377284Y-11840776D02*
X9386808Y-11821728D01*
X9386808Y-11821728D02*
X9405856Y-11793157D01*
X9405856Y-11793157D02*
X9415380Y-11783633D01*
X9472522Y-11812204D02*
X9596332Y-11812204D01*
X9596332Y-11812204D02*
X9529665Y-11888395D01*
X9529665Y-11888395D02*
X9558237Y-11888395D01*
X9558237Y-11888395D02*
X9577284Y-11897919D01*
X9577284Y-11897919D02*
X9586808Y-11907442D01*
X9586808Y-11907442D02*
X9596332Y-11926490D01*
X9596332Y-11926490D02*
X9596332Y-11974109D01*
X9596332Y-11974109D02*
X9586808Y-11993157D01*
X9586808Y-11993157D02*
X9577284Y-12002681D01*
X9577284Y-12002681D02*
X9558237Y-12012204D01*
X9558237Y-12012204D02*
X9501094Y-12012204D01*
X9501094Y-12012204D02*
X9482046Y-12002681D01*
X9482046Y-12002681D02*
X9472522Y-11993157D01*
X9662999Y-11812204D02*
X9786808Y-11812204D01*
X9786808Y-11812204D02*
X9720141Y-11888395D01*
X9720141Y-11888395D02*
X9748713Y-11888395D01*
X9748713Y-11888395D02*
X9767761Y-11897919D01*
X9767761Y-11897919D02*
X9777284Y-11907442D01*
X9777284Y-11907442D02*
X9786808Y-11926490D01*
X9786808Y-11926490D02*
X9786808Y-11974109D01*
X9786808Y-11974109D02*
X9777284Y-11993157D01*
X9777284Y-11993157D02*
X9767761Y-12002681D01*
X9767761Y-12002681D02*
X9748713Y-12012204D01*
X9748713Y-12012204D02*
X9691570Y-12012204D01*
X9691570Y-12012204D02*
X9672522Y-12002681D01*
X9672522Y-12002681D02*
X9662999Y-11993157D01*
X10024903Y-12012204D02*
X10024903Y-11812204D01*
X10110618Y-12012204D02*
X10110618Y-11907442D01*
X10110618Y-11907442D02*
X10101094Y-11888395D01*
X10101094Y-11888395D02*
X10082046Y-11878871D01*
X10082046Y-11878871D02*
X10053475Y-11878871D01*
X10053475Y-11878871D02*
X10034427Y-11888395D01*
X10034427Y-11888395D02*
X10024903Y-11897919D01*
X10234427Y-12012204D02*
X10215380Y-12002681D01*
X10215380Y-12002681D02*
X10205856Y-11993157D01*
X10205856Y-11993157D02*
X10196332Y-11974109D01*
X10196332Y-11974109D02*
X10196332Y-11916966D01*
X10196332Y-11916966D02*
X10205856Y-11897919D01*
X10205856Y-11897919D02*
X10215380Y-11888395D01*
X10215380Y-11888395D02*
X10234427Y-11878871D01*
X10234427Y-11878871D02*
X10262999Y-11878871D01*
X10262999Y-11878871D02*
X10282046Y-11888395D01*
X10282046Y-11888395D02*
X10291570Y-11897919D01*
X10291570Y-11897919D02*
X10301094Y-11916966D01*
X10301094Y-11916966D02*
X10301094Y-11974109D01*
X10301094Y-11974109D02*
X10291570Y-11993157D01*
X10291570Y-11993157D02*
X10282046Y-12002681D01*
X10282046Y-12002681D02*
X10262999Y-12012204D01*
X10262999Y-12012204D02*
X10234427Y-12012204D01*
X10415380Y-12012204D02*
X10396332Y-12002681D01*
X10396332Y-12002681D02*
X10386808Y-11983633D01*
X10386808Y-11983633D02*
X10386808Y-11812204D01*
X10567761Y-12002681D02*
X10548713Y-12012204D01*
X10548713Y-12012204D02*
X10510618Y-12012204D01*
X10510618Y-12012204D02*
X10491570Y-12002681D01*
X10491570Y-12002681D02*
X10482046Y-11983633D01*
X10482046Y-11983633D02*
X10482046Y-11907442D01*
X10482046Y-11907442D02*
X10491570Y-11888395D01*
X10491570Y-11888395D02*
X10510618Y-11878871D01*
X10510618Y-11878871D02*
X10548713Y-11878871D01*
X10548713Y-11878871D02*
X10567761Y-11888395D01*
X10567761Y-11888395D02*
X10577284Y-11907442D01*
X10577284Y-11907442D02*
X10577284Y-11926490D01*
X10577284Y-11926490D02*
X10482046Y-11945538D01*
X10653475Y-12002681D02*
X10672523Y-12012204D01*
X10672523Y-12012204D02*
X10710618Y-12012204D01*
X10710618Y-12012204D02*
X10729665Y-12002681D01*
X10729665Y-12002681D02*
X10739189Y-11983633D01*
X10739189Y-11983633D02*
X10739189Y-11974109D01*
X10739189Y-11974109D02*
X10729665Y-11955061D01*
X10729665Y-11955061D02*
X10710618Y-11945538D01*
X10710618Y-11945538D02*
X10682046Y-11945538D01*
X10682046Y-11945538D02*
X10662999Y-11936014D01*
X10662999Y-11936014D02*
X10653475Y-11916966D01*
X10653475Y-11916966D02*
X10653475Y-11907442D01*
X10653475Y-11907442D02*
X10662999Y-11888395D01*
X10662999Y-11888395D02*
X10682046Y-11878871D01*
X10682046Y-11878871D02*
X10710618Y-11878871D01*
X10710618Y-11878871D02*
X10729665Y-11888395D01*
X10805856Y-12088395D02*
X10815380Y-12078871D01*
X10815380Y-12078871D02*
X10834427Y-12050300D01*
X10834427Y-12050300D02*
X10843951Y-12031252D01*
X10843951Y-12031252D02*
X10853475Y-12002681D01*
X10853475Y-12002681D02*
X10862999Y-11955061D01*
X10862999Y-11955061D02*
X10862999Y-11916966D01*
X10862999Y-11916966D02*
X10853475Y-11869347D01*
X10853475Y-11869347D02*
X10843951Y-11840776D01*
X10843951Y-11840776D02*
X10834427Y-11821728D01*
X10834427Y-11821728D02*
X10815380Y-11793157D01*
X10815380Y-11793157D02*
X10805856Y-11783633D01*
M02*
