M48
; DRILL file {KiCad 7.0.7} date Mon Dec 18 21:45:09 2023
; FORMAT={-:-/ absolute / metric / decimal}
; #@! TF.CreationDate,2023-12-18T21:45:09-05:00
; #@! TF.GenerationSoftware,Kicad,Pcbnew,7.0.7
; #@! TF.FileFunction,Plated,1,2,PTH
FMAT,2
METRIC
; #@! TA.AperFunction,Plated,PTH,ViaDrill
T1C0.300
; #@! TA.AperFunction,Plated,PTH,ViaDrill
T2C0.400
; #@! TA.AperFunction,Plated,PTH,ComponentDrill
T3C0.600
; #@! TA.AperFunction,Plated,PTH,ComponentDrill
T4C0.800
; #@! TA.AperFunction,Plated,PTH,ComponentDrill
T5C1.000
%
G90
G05
T1
X84.0Y-78.75
X84.05Y-77.8
X92.175Y-82.275
X92.175Y-87.275
X102.88Y-78.7
X102.89Y-77.8
X114.553Y-57.332
X114.553Y-61.632
X120.253Y-70.157
X120.253Y-71.407
X120.253Y-72.657
X120.253Y-73.907
X120.703Y-85.107
X120.778Y-86.507
X123.778Y-86.507
X124.503Y-50.107
X124.603Y-55.407
X125.4Y-57.5
X125.878Y-89.107
X126.25Y-59.15
X127.05Y-60.757
X127.9Y-70.2
X128.003Y-80.2
X128.903Y-50.107
X129.003Y-55.407
X129.203Y-80.207
X130.733Y-73.907
X131.744Y-71.432
X132.578Y-86.857
X132.6Y-83.4
X132.603Y-86.007
X132.753Y-72.657
X134.6Y-50.1
X134.7Y-55.4
X134.7Y-60.5
X134.8Y-66.0
X134.9Y-71.2
X135.75Y-85.25
X135.75Y-86.5
X135.75Y-88.75
X135.75Y-90.0
X138.25Y-85.25
X138.25Y-86.5
X138.25Y-88.75
X138.25Y-90.0
X140.75Y-85.25
X140.75Y-86.5
X140.75Y-88.75
X140.75Y-90.0
X142.7Y-50.1
X143.2Y-46.3
X143.25Y-85.25
X143.25Y-86.5
X143.25Y-88.75
X143.25Y-90.0
X143.35Y-60.45
X143.4Y-66.0
X143.4Y-71.2
X143.5Y-55.4
X144.7Y-47.1
X145.75Y-85.25
X145.75Y-86.5
X145.75Y-88.75
X145.75Y-90.0
X148.25Y-85.25
X148.25Y-86.5
X148.25Y-88.75
X148.25Y-90.0
X150.75Y-85.25
X150.75Y-86.5
X150.75Y-88.75
X150.75Y-90.0
X153.25Y-85.25
X153.25Y-86.5
X153.25Y-88.75
X153.25Y-90.0
X154.75Y-85.79
X154.78Y-89.54
X154.81Y-92.44
X155.75Y-90.0
X158.25Y-90.0
X158.56Y-85.75
X160.8Y-84.92
X160.81Y-91.29
X160.85Y-86.75
X160.86Y-89.0
T2
X61.5Y-68.0
X61.5Y-70.5
X61.5Y-73.0
X61.5Y-75.5
X61.5Y-78.0
X61.5Y-80.5
X61.5Y-89.5
X61.5Y-92.0
X61.5Y-94.5
X63.0Y-47.5
X63.0Y-50.0
X64.0Y-68.0
X64.0Y-70.5
X64.0Y-73.0
X64.0Y-75.5
X64.0Y-78.0
X64.0Y-80.5
X64.0Y-89.5
X64.0Y-92.0
X64.0Y-94.5
X64.0Y-97.0
X64.0Y-99.5
X64.803Y-63.807
X64.803Y-65.907
X64.82Y-64.856
X65.5Y-42.5
X65.5Y-45.0
X65.5Y-47.5
X65.5Y-50.0
X66.5Y-68.0
X66.5Y-70.5
X66.5Y-73.0
X66.5Y-75.5
X66.5Y-78.0
X66.5Y-80.5
X66.5Y-89.5
X66.5Y-92.0
X66.5Y-94.5
X66.5Y-97.0
X66.5Y-99.5
X68.0Y-42.5
X68.0Y-45.0
X68.0Y-47.5
X68.0Y-50.0
X69.0Y-68.0
X69.0Y-70.5
X69.0Y-73.0
X69.0Y-75.5
X69.0Y-78.0
X69.0Y-80.5
X69.0Y-89.5
X69.0Y-92.0
X69.0Y-94.5
X69.0Y-97.0
X69.0Y-99.5
X70.3Y-85.34
X70.5Y-42.5
X70.5Y-45.0
X70.5Y-47.5
X71.07Y-50.887
X71.5Y-68.0
X71.5Y-70.5
X71.5Y-73.0
X71.5Y-75.5
X71.5Y-78.0
X71.5Y-80.5
X71.5Y-89.5
X71.5Y-92.0
X71.5Y-94.5
X71.5Y-97.0
X71.5Y-99.5
X72.47Y-50.887
X73.0Y-42.5
X73.0Y-45.0
X73.0Y-47.5
X73.97Y-50.887
X73.97Y-51.987
X74.0Y-68.0
X74.0Y-70.5
X74.0Y-73.0
X74.0Y-75.5
X74.0Y-78.0
X74.0Y-80.5
X74.0Y-83.0
X74.0Y-89.5
X74.0Y-92.0
X74.0Y-94.5
X74.0Y-97.0
X74.0Y-99.5
X75.5Y-42.5
X75.5Y-45.0
X75.5Y-47.5
X76.5Y-68.0
X76.5Y-70.5
X76.5Y-73.0
X76.5Y-75.5
X76.5Y-78.0
X76.5Y-80.5
X76.5Y-83.0
X76.5Y-89.5
X76.5Y-92.0
X76.5Y-94.5
X76.5Y-97.0
X76.5Y-99.5
X78.0Y-42.5
X78.0Y-45.0
X78.0Y-47.5
X78.0Y-50.0
X78.22Y-54.387
X78.22Y-57.137
X79.0Y-68.0
X79.0Y-80.5
X79.0Y-89.5
X79.0Y-92.0
X79.0Y-94.5
X79.0Y-97.0
X79.0Y-99.5
X80.3Y-78.062
X80.5Y-42.5
X80.5Y-45.0
X80.5Y-47.5
X80.5Y-50.0
X80.72Y-52.137
X80.72Y-54.387
X80.72Y-57.137
X81.325Y-88.225
X81.5Y-68.0
X81.5Y-80.5
X81.5Y-89.5
X81.5Y-92.0
X81.5Y-94.5
X81.5Y-97.0
X81.5Y-99.5
X83.0Y-42.5
X83.0Y-45.0
X83.0Y-47.5
X83.0Y-50.0
X83.22Y-52.137
X83.22Y-54.387
X84.0Y-65.5
X84.0Y-68.0
X84.0Y-89.5
X84.0Y-92.0
X84.0Y-94.5
X84.0Y-97.0
X84.0Y-99.5
X84.565Y-58.188
X84.57Y-56.687
X85.5Y-42.5
X85.5Y-45.0
X85.5Y-47.5
X85.5Y-50.0
X85.72Y-52.137
X86.22Y-58.187
X86.5Y-65.5
X86.5Y-68.0
X86.5Y-89.5
X86.5Y-92.0
X86.5Y-94.5
X86.5Y-97.0
X86.5Y-99.5
X87.97Y-52.137
X88.0Y-42.5
X88.0Y-45.0
X88.0Y-47.5
X88.0Y-50.0
X89.0Y-65.5
X89.0Y-68.0
X89.0Y-89.5
X89.0Y-92.0
X89.0Y-94.5
X89.0Y-97.0
X89.0Y-99.5
X89.675Y-86.15
X90.5Y-42.5
X90.5Y-45.0
X90.5Y-47.5
X90.5Y-50.0
X91.5Y-89.5
X91.5Y-92.0
X91.5Y-94.5
X91.5Y-97.0
X91.5Y-99.5
X93.0Y-42.5
X93.0Y-45.0
X93.0Y-47.5
X93.0Y-50.0
X93.0Y-64.0
X93.0Y-66.5
X93.45Y-81.375
X93.45Y-84.6
X93.9Y-79.75
X94.0Y-89.5
X94.0Y-92.0
X94.0Y-94.5
X94.0Y-97.0
X94.0Y-99.5
X94.953Y-53.057
X95.5Y-42.5
X95.5Y-45.0
X95.5Y-56.5
X95.5Y-59.0
X95.5Y-61.5
X95.5Y-64.0
X95.5Y-66.5
X96.303Y-47.507
X96.5Y-99.5
X97.65Y-76.0
X98.0Y-42.5
X98.0Y-45.0
X98.0Y-56.5
X98.0Y-59.0
X98.0Y-61.5
X98.0Y-64.0
X98.0Y-66.5
X99.0Y-99.5
X100.5Y-42.5
X100.5Y-45.0
X100.5Y-47.5
X100.5Y-50.0
X100.5Y-56.5
X100.5Y-59.0
X100.5Y-64.0
X100.5Y-66.5
X100.603Y-54.907
X101.5Y-99.5
X101.575Y-89.65
X102.35Y-76.0
X103.0Y-42.5
X103.0Y-45.0
X103.0Y-47.5
X103.0Y-50.0
X103.0Y-56.5
X103.0Y-59.0
X103.0Y-61.5
X103.0Y-64.0
X103.0Y-66.5
X103.375Y-89.65
X103.445Y-79.87
X104.0Y-99.5
X104.6Y-87.05
X105.5Y-42.5
X105.5Y-45.0
X105.5Y-47.5
X105.5Y-50.0
X105.5Y-56.5
X105.5Y-59.0
X105.5Y-61.5
X105.5Y-64.0
X105.5Y-66.5
X106.5Y-99.5
X107.003Y-52.907
X107.403Y-51.607
X108.0Y-42.5
X108.0Y-45.0
X108.0Y-64.0
X108.0Y-66.5
X109.303Y-49.007
X109.803Y-47.307
X110.303Y-56.707
X110.5Y-42.5
X110.5Y-64.0
X110.5Y-66.5
X110.503Y-54.507
X110.7Y-76.007
X110.857Y-81.405
X111.203Y-45.607
X113.0Y-42.5
X113.0Y-64.0
X113.0Y-66.5
X114.228Y-82.807
X115.203Y-48.207
X115.5Y-64.0
X115.5Y-66.5
X116.103Y-81.607
X117.403Y-51.507
X117.403Y-77.707
X117.903Y-49.507
X118.0Y-64.0
X118.0Y-66.5
X118.8Y-52.9
X119.028Y-82.907
X119.5Y-47.5
X119.5Y-50.0
X120.3Y-68.3
X122.0Y-47.5
X122.0Y-50.0
X122.003Y-92.407
X123.2Y-52.9
X127.753Y-93.532
X127.828Y-88.707
X128.8Y-52.9
X129.428Y-88.707
X129.553Y-93.532
X131.6Y-68.3
X134.078Y-89.357
X134.6Y-52.1
X134.8Y-68.3
X134.8Y-93.8
X136.128Y-90.907
X137.0Y-92.0
X137.0Y-94.5
X137.0Y-97.0
X137.0Y-99.5
X139.5Y-92.0
X139.5Y-94.5
X139.5Y-97.0
X139.5Y-99.5
X141.2Y-48.4
X141.2Y-53.9
X141.2Y-58.7
X141.2Y-64.3
X141.2Y-69.7
X141.3Y-68.3
X142.0Y-78.5
X142.0Y-81.0
X142.0Y-83.5
X142.0Y-92.0
X142.0Y-94.5
X142.0Y-97.0
X142.0Y-99.5
X142.6Y-52.1
X143.9Y-53.9
X144.0Y-58.8
X144.1Y-64.3
X144.3Y-69.7
X144.5Y-78.5
X144.5Y-81.0
X144.5Y-83.5
X144.5Y-92.0
X144.5Y-94.5
X144.5Y-97.0
X144.5Y-99.5
X147.0Y-78.5
X147.0Y-81.0
X147.0Y-83.5
X147.0Y-92.0
X147.0Y-94.5
X147.0Y-97.0
X147.0Y-99.5
X149.5Y-78.5
X149.5Y-81.0
X149.5Y-83.5
X149.5Y-92.0
X149.5Y-94.5
X149.5Y-97.0
X149.5Y-99.5
X152.0Y-78.5
X152.0Y-81.0
X152.0Y-83.5
X152.0Y-92.0
X152.0Y-94.5
X152.0Y-97.0
X152.0Y-99.5
X154.5Y-81.0
X154.5Y-83.5
X154.5Y-97.0
X154.5Y-99.5
X155.403Y-52.1
X155.78Y-95.07
X157.0Y-97.0
X157.0Y-99.5
X157.5Y-44.5
X157.5Y-47.0
X157.54Y-95.08
X159.5Y-94.5
X159.5Y-97.0
X159.5Y-99.5
X160.0Y-44.5
X160.0Y-47.0
X160.0Y-49.5
X162.0Y-94.5
X162.5Y-47.0
X162.5Y-49.5
T4
X100.0Y-94.6
X104.88Y-94.6
X126.198Y-98.607
X131.078Y-98.607
T5
X61.2Y-84.0
X61.2Y-86.54
X61.503Y-53.842
X61.503Y-56.382
X109.438Y-99.607
X111.978Y-99.607
X114.518Y-99.607
X117.058Y-99.607
X118.495Y-42.0
X121.035Y-42.0
X123.575Y-42.0
X126.115Y-42.0
X128.655Y-42.0
X131.195Y-42.0
X133.735Y-42.0
X136.275Y-42.0
X140.5Y-42.0
X143.04Y-42.0
X145.58Y-42.0
X148.12Y-42.0
X152.66Y-42.0
X155.2Y-42.0
X157.74Y-42.0
X164.103Y-75.332
X164.103Y-77.872
X164.203Y-52.252
X164.203Y-54.792
X164.203Y-57.332
X164.203Y-59.872
X164.203Y-62.412
X164.203Y-64.952
X164.203Y-67.492
X164.203Y-70.032
T3
X159.73Y-83.785G85X160.83Y-83.785
G05
X159.73Y-92.435G85X160.83Y-92.435
G05
X163.91Y-83.785G85X165.01Y-83.785
G05
X163.91Y-92.435G85X165.01Y-92.435
G05
T0
M30
