G04 #@! TF.GenerationSoftware,KiCad,Pcbnew,7.0.7*
G04 #@! TF.CreationDate,2023-12-18T21:44:51-05:00*
G04 #@! TF.ProjectId,central_hub,63656e74-7261-46c5-9f68-75622e6b6963,rev?*
G04 #@! TF.SameCoordinates,Original*
G04 #@! TF.FileFunction,Legend,Bot*
G04 #@! TF.FilePolarity,Positive*
%FSLAX46Y46*%
G04 Gerber Fmt 4.6, Leading zero omitted, Abs format (unit mm)*
G04 Created by KiCad (PCBNEW 7.0.7) date 2023-12-18 21:44:51*
%MOMM*%
%LPD*%
G01*
G04 APERTURE LIST*
G04 Aperture macros list*
%AMRoundRect*
0 Rectangle with rounded corners*
0 $1 Rounding radius*
0 $2 $3 $4 $5 $6 $7 $8 $9 X,Y pos of 4 corners*
0 Add a 4 corners polygon primitive as box body*
4,1,4,$2,$3,$4,$5,$6,$7,$8,$9,$2,$3,0*
0 Add four circle primitives for the rounded corners*
1,1,$1+$1,$2,$3*
1,1,$1+$1,$4,$5*
1,1,$1+$1,$6,$7*
1,1,$1+$1,$8,$9*
0 Add four rect primitives between the rounded corners*
20,1,$1+$1,$2,$3,$4,$5,0*
20,1,$1+$1,$4,$5,$6,$7,0*
20,1,$1+$1,$6,$7,$8,$9,0*
20,1,$1+$1,$8,$9,$2,$3,0*%
G04 Aperture macros list end*
%ADD10C,0.300000*%
%ADD11C,0.160000*%
%ADD12C,0.120000*%
%ADD13R,1.700000X1.700000*%
%ADD14O,1.700000X1.700000*%
%ADD15C,3.000000*%
%ADD16C,1.500000*%
%ADD17O,2.204000X1.104000*%
%ADD18RoundRect,0.225000X-0.225000X-0.250000X0.225000X-0.250000X0.225000X0.250000X-0.225000X0.250000X0*%
%ADD19RoundRect,0.200000X-0.200000X-0.275000X0.200000X-0.275000X0.200000X0.275000X-0.200000X0.275000X0*%
%ADD20RoundRect,0.225000X-0.250000X0.225000X-0.250000X-0.225000X0.250000X-0.225000X0.250000X0.225000X0*%
%ADD21RoundRect,0.200000X0.275000X-0.200000X0.275000X0.200000X-0.275000X0.200000X-0.275000X-0.200000X0*%
%ADD22RoundRect,0.225000X0.250000X-0.225000X0.250000X0.225000X-0.250000X0.225000X-0.250000X-0.225000X0*%
%ADD23RoundRect,0.200000X-0.275000X0.200000X-0.275000X-0.200000X0.275000X-0.200000X0.275000X0.200000X0*%
G04 APERTURE END LIST*
D10*
X82625489Y-87080114D02*
X82125489Y-87080114D01*
X81911203Y-87865828D02*
X82625489Y-87865828D01*
X82625489Y-87865828D02*
X82625489Y-86365828D01*
X82625489Y-86365828D02*
X81911203Y-86365828D01*
X80411203Y-87722971D02*
X80482631Y-87794400D01*
X80482631Y-87794400D02*
X80696917Y-87865828D01*
X80696917Y-87865828D02*
X80839774Y-87865828D01*
X80839774Y-87865828D02*
X81054060Y-87794400D01*
X81054060Y-87794400D02*
X81196917Y-87651542D01*
X81196917Y-87651542D02*
X81268346Y-87508685D01*
X81268346Y-87508685D02*
X81339774Y-87222971D01*
X81339774Y-87222971D02*
X81339774Y-87008685D01*
X81339774Y-87008685D02*
X81268346Y-86722971D01*
X81268346Y-86722971D02*
X81196917Y-86580114D01*
X81196917Y-86580114D02*
X81054060Y-86437257D01*
X81054060Y-86437257D02*
X80839774Y-86365828D01*
X80839774Y-86365828D02*
X80696917Y-86365828D01*
X80696917Y-86365828D02*
X80482631Y-86437257D01*
X80482631Y-86437257D02*
X80411203Y-86508685D01*
X79768346Y-87080114D02*
X79268346Y-87080114D01*
X79054060Y-87865828D02*
X79768346Y-87865828D01*
X79768346Y-87865828D02*
X79768346Y-86365828D01*
X79768346Y-86365828D02*
X79054060Y-86365828D01*
X76768346Y-87080114D02*
X77268346Y-87080114D01*
X77268346Y-87865828D02*
X77268346Y-86365828D01*
X77268346Y-86365828D02*
X76554060Y-86365828D01*
X75696917Y-87151542D02*
X75696917Y-87865828D01*
X76196917Y-86365828D02*
X75696917Y-87151542D01*
X75696917Y-87151542D02*
X75196917Y-86365828D01*
X74696918Y-87865828D02*
X74696918Y-86365828D01*
X74696918Y-86365828D02*
X74339775Y-86365828D01*
X74339775Y-86365828D02*
X74125489Y-86437257D01*
X74125489Y-86437257D02*
X73982632Y-86580114D01*
X73982632Y-86580114D02*
X73911203Y-86722971D01*
X73911203Y-86722971D02*
X73839775Y-87008685D01*
X73839775Y-87008685D02*
X73839775Y-87222971D01*
X73839775Y-87222971D02*
X73911203Y-87508685D01*
X73911203Y-87508685D02*
X73982632Y-87651542D01*
X73982632Y-87651542D02*
X74125489Y-87794400D01*
X74125489Y-87794400D02*
X74339775Y-87865828D01*
X74339775Y-87865828D02*
X74696918Y-87865828D01*
X73196918Y-87865828D02*
X73196918Y-86365828D01*
X73196918Y-86365828D02*
X72625489Y-86365828D01*
X72625489Y-86365828D02*
X72482632Y-86437257D01*
X72482632Y-86437257D02*
X72411203Y-86508685D01*
X72411203Y-86508685D02*
X72339775Y-86651542D01*
X72339775Y-86651542D02*
X72339775Y-86865828D01*
X72339775Y-86865828D02*
X72411203Y-87008685D01*
X72411203Y-87008685D02*
X72482632Y-87080114D01*
X72482632Y-87080114D02*
X72625489Y-87151542D01*
X72625489Y-87151542D02*
X73196918Y-87151542D01*
X70625489Y-86508685D02*
X70554061Y-86437257D01*
X70554061Y-86437257D02*
X70411204Y-86365828D01*
X70411204Y-86365828D02*
X70054061Y-86365828D01*
X70054061Y-86365828D02*
X69911204Y-86437257D01*
X69911204Y-86437257D02*
X69839775Y-86508685D01*
X69839775Y-86508685D02*
X69768346Y-86651542D01*
X69768346Y-86651542D02*
X69768346Y-86794400D01*
X69768346Y-86794400D02*
X69839775Y-87008685D01*
X69839775Y-87008685D02*
X70696918Y-87865828D01*
X70696918Y-87865828D02*
X69768346Y-87865828D01*
X68839775Y-86365828D02*
X68696918Y-86365828D01*
X68696918Y-86365828D02*
X68554061Y-86437257D01*
X68554061Y-86437257D02*
X68482633Y-86508685D01*
X68482633Y-86508685D02*
X68411204Y-86651542D01*
X68411204Y-86651542D02*
X68339775Y-86937257D01*
X68339775Y-86937257D02*
X68339775Y-87294400D01*
X68339775Y-87294400D02*
X68411204Y-87580114D01*
X68411204Y-87580114D02*
X68482633Y-87722971D01*
X68482633Y-87722971D02*
X68554061Y-87794400D01*
X68554061Y-87794400D02*
X68696918Y-87865828D01*
X68696918Y-87865828D02*
X68839775Y-87865828D01*
X68839775Y-87865828D02*
X68982633Y-87794400D01*
X68982633Y-87794400D02*
X69054061Y-87722971D01*
X69054061Y-87722971D02*
X69125490Y-87580114D01*
X69125490Y-87580114D02*
X69196918Y-87294400D01*
X69196918Y-87294400D02*
X69196918Y-86937257D01*
X69196918Y-86937257D02*
X69125490Y-86651542D01*
X69125490Y-86651542D02*
X69054061Y-86508685D01*
X69054061Y-86508685D02*
X68982633Y-86437257D01*
X68982633Y-86437257D02*
X68839775Y-86365828D01*
X67768347Y-86508685D02*
X67696919Y-86437257D01*
X67696919Y-86437257D02*
X67554062Y-86365828D01*
X67554062Y-86365828D02*
X67196919Y-86365828D01*
X67196919Y-86365828D02*
X67054062Y-86437257D01*
X67054062Y-86437257D02*
X66982633Y-86508685D01*
X66982633Y-86508685D02*
X66911204Y-86651542D01*
X66911204Y-86651542D02*
X66911204Y-86794400D01*
X66911204Y-86794400D02*
X66982633Y-87008685D01*
X66982633Y-87008685D02*
X67839776Y-87865828D01*
X67839776Y-87865828D02*
X66911204Y-87865828D01*
X65625491Y-86865828D02*
X65625491Y-87865828D01*
X65982633Y-86294400D02*
X66339776Y-87365828D01*
X66339776Y-87365828D02*
X65411205Y-87365828D01*
X81839774Y-88852257D02*
X81982632Y-88780828D01*
X81982632Y-88780828D02*
X82196917Y-88780828D01*
X82196917Y-88780828D02*
X82411203Y-88852257D01*
X82411203Y-88852257D02*
X82554060Y-88995114D01*
X82554060Y-88995114D02*
X82625489Y-89137971D01*
X82625489Y-89137971D02*
X82696917Y-89423685D01*
X82696917Y-89423685D02*
X82696917Y-89637971D01*
X82696917Y-89637971D02*
X82625489Y-89923685D01*
X82625489Y-89923685D02*
X82554060Y-90066542D01*
X82554060Y-90066542D02*
X82411203Y-90209400D01*
X82411203Y-90209400D02*
X82196917Y-90280828D01*
X82196917Y-90280828D02*
X82054060Y-90280828D01*
X82054060Y-90280828D02*
X81839774Y-90209400D01*
X81839774Y-90209400D02*
X81768346Y-90137971D01*
X81768346Y-90137971D02*
X81768346Y-89637971D01*
X81768346Y-89637971D02*
X82054060Y-89637971D01*
X81125489Y-90280828D02*
X81125489Y-89280828D01*
X81125489Y-89566542D02*
X81054060Y-89423685D01*
X81054060Y-89423685D02*
X80982632Y-89352257D01*
X80982632Y-89352257D02*
X80839774Y-89280828D01*
X80839774Y-89280828D02*
X80696917Y-89280828D01*
X79982632Y-90280828D02*
X80125489Y-90209400D01*
X80125489Y-90209400D02*
X80196918Y-90137971D01*
X80196918Y-90137971D02*
X80268346Y-89995114D01*
X80268346Y-89995114D02*
X80268346Y-89566542D01*
X80268346Y-89566542D02*
X80196918Y-89423685D01*
X80196918Y-89423685D02*
X80125489Y-89352257D01*
X80125489Y-89352257D02*
X79982632Y-89280828D01*
X79982632Y-89280828D02*
X79768346Y-89280828D01*
X79768346Y-89280828D02*
X79625489Y-89352257D01*
X79625489Y-89352257D02*
X79554061Y-89423685D01*
X79554061Y-89423685D02*
X79482632Y-89566542D01*
X79482632Y-89566542D02*
X79482632Y-89995114D01*
X79482632Y-89995114D02*
X79554061Y-90137971D01*
X79554061Y-90137971D02*
X79625489Y-90209400D01*
X79625489Y-90209400D02*
X79768346Y-90280828D01*
X79768346Y-90280828D02*
X79982632Y-90280828D01*
X78196918Y-89280828D02*
X78196918Y-90280828D01*
X78839775Y-89280828D02*
X78839775Y-90066542D01*
X78839775Y-90066542D02*
X78768346Y-90209400D01*
X78768346Y-90209400D02*
X78625489Y-90280828D01*
X78625489Y-90280828D02*
X78411203Y-90280828D01*
X78411203Y-90280828D02*
X78268346Y-90209400D01*
X78268346Y-90209400D02*
X78196918Y-90137971D01*
X77482632Y-89280828D02*
X77482632Y-90780828D01*
X77482632Y-89352257D02*
X77339775Y-89280828D01*
X77339775Y-89280828D02*
X77054060Y-89280828D01*
X77054060Y-89280828D02*
X76911203Y-89352257D01*
X76911203Y-89352257D02*
X76839775Y-89423685D01*
X76839775Y-89423685D02*
X76768346Y-89566542D01*
X76768346Y-89566542D02*
X76768346Y-89995114D01*
X76768346Y-89995114D02*
X76839775Y-90137971D01*
X76839775Y-90137971D02*
X76911203Y-90209400D01*
X76911203Y-90209400D02*
X77054060Y-90280828D01*
X77054060Y-90280828D02*
X77339775Y-90280828D01*
X77339775Y-90280828D02*
X77482632Y-90209400D01*
X75054060Y-88923685D02*
X74982632Y-88852257D01*
X74982632Y-88852257D02*
X74839775Y-88780828D01*
X74839775Y-88780828D02*
X74482632Y-88780828D01*
X74482632Y-88780828D02*
X74339775Y-88852257D01*
X74339775Y-88852257D02*
X74268346Y-88923685D01*
X74268346Y-88923685D02*
X74196917Y-89066542D01*
X74196917Y-89066542D02*
X74196917Y-89209400D01*
X74196917Y-89209400D02*
X74268346Y-89423685D01*
X74268346Y-89423685D02*
X75125489Y-90280828D01*
X75125489Y-90280828D02*
X74196917Y-90280828D01*
X72911204Y-88780828D02*
X73196918Y-88780828D01*
X73196918Y-88780828D02*
X73339775Y-88852257D01*
X73339775Y-88852257D02*
X73411204Y-88923685D01*
X73411204Y-88923685D02*
X73554061Y-89137971D01*
X73554061Y-89137971D02*
X73625489Y-89423685D01*
X73625489Y-89423685D02*
X73625489Y-89995114D01*
X73625489Y-89995114D02*
X73554061Y-90137971D01*
X73554061Y-90137971D02*
X73482632Y-90209400D01*
X73482632Y-90209400D02*
X73339775Y-90280828D01*
X73339775Y-90280828D02*
X73054061Y-90280828D01*
X73054061Y-90280828D02*
X72911204Y-90209400D01*
X72911204Y-90209400D02*
X72839775Y-90137971D01*
X72839775Y-90137971D02*
X72768346Y-89995114D01*
X72768346Y-89995114D02*
X72768346Y-89637971D01*
X72768346Y-89637971D02*
X72839775Y-89495114D01*
X72839775Y-89495114D02*
X72911204Y-89423685D01*
X72911204Y-89423685D02*
X73054061Y-89352257D01*
X73054061Y-89352257D02*
X73339775Y-89352257D01*
X73339775Y-89352257D02*
X73482632Y-89423685D01*
X73482632Y-89423685D02*
X73554061Y-89495114D01*
X73554061Y-89495114D02*
X73625489Y-89637971D01*
X82625489Y-92124400D02*
X81482632Y-92124400D01*
X79625489Y-91910114D02*
X79125489Y-91910114D01*
X78911203Y-92695828D02*
X79625489Y-92695828D01*
X79625489Y-92695828D02*
X79625489Y-91195828D01*
X79625489Y-91195828D02*
X78911203Y-91195828D01*
X78482631Y-91695828D02*
X77911203Y-91695828D01*
X78268346Y-91195828D02*
X78268346Y-92481542D01*
X78268346Y-92481542D02*
X78196917Y-92624400D01*
X78196917Y-92624400D02*
X78054060Y-92695828D01*
X78054060Y-92695828D02*
X77911203Y-92695828D01*
X77411203Y-92695828D02*
X77411203Y-91195828D01*
X76768346Y-92695828D02*
X76768346Y-91910114D01*
X76768346Y-91910114D02*
X76839774Y-91767257D01*
X76839774Y-91767257D02*
X76982631Y-91695828D01*
X76982631Y-91695828D02*
X77196917Y-91695828D01*
X77196917Y-91695828D02*
X77339774Y-91767257D01*
X77339774Y-91767257D02*
X77411203Y-91838685D01*
X75411203Y-92695828D02*
X75411203Y-91910114D01*
X75411203Y-91910114D02*
X75482631Y-91767257D01*
X75482631Y-91767257D02*
X75625488Y-91695828D01*
X75625488Y-91695828D02*
X75911203Y-91695828D01*
X75911203Y-91695828D02*
X76054060Y-91767257D01*
X75411203Y-92624400D02*
X75554060Y-92695828D01*
X75554060Y-92695828D02*
X75911203Y-92695828D01*
X75911203Y-92695828D02*
X76054060Y-92624400D01*
X76054060Y-92624400D02*
X76125488Y-92481542D01*
X76125488Y-92481542D02*
X76125488Y-92338685D01*
X76125488Y-92338685D02*
X76054060Y-92195828D01*
X76054060Y-92195828D02*
X75911203Y-92124400D01*
X75911203Y-92124400D02*
X75554060Y-92124400D01*
X75554060Y-92124400D02*
X75411203Y-92052971D01*
X74696917Y-91695828D02*
X74696917Y-92695828D01*
X74696917Y-91838685D02*
X74625488Y-91767257D01*
X74625488Y-91767257D02*
X74482631Y-91695828D01*
X74482631Y-91695828D02*
X74268345Y-91695828D01*
X74268345Y-91695828D02*
X74125488Y-91767257D01*
X74125488Y-91767257D02*
X74054060Y-91910114D01*
X74054060Y-91910114D02*
X74054060Y-92695828D01*
X71411202Y-91267257D02*
X71554060Y-91195828D01*
X71554060Y-91195828D02*
X71768345Y-91195828D01*
X71768345Y-91195828D02*
X71982631Y-91267257D01*
X71982631Y-91267257D02*
X72125488Y-91410114D01*
X72125488Y-91410114D02*
X72196917Y-91552971D01*
X72196917Y-91552971D02*
X72268345Y-91838685D01*
X72268345Y-91838685D02*
X72268345Y-92052971D01*
X72268345Y-92052971D02*
X72196917Y-92338685D01*
X72196917Y-92338685D02*
X72125488Y-92481542D01*
X72125488Y-92481542D02*
X71982631Y-92624400D01*
X71982631Y-92624400D02*
X71768345Y-92695828D01*
X71768345Y-92695828D02*
X71625488Y-92695828D01*
X71625488Y-92695828D02*
X71411202Y-92624400D01*
X71411202Y-92624400D02*
X71339774Y-92552971D01*
X71339774Y-92552971D02*
X71339774Y-92052971D01*
X71339774Y-92052971D02*
X71625488Y-92052971D01*
X70696917Y-92695828D02*
X70696917Y-91695828D01*
X70696917Y-91195828D02*
X70768345Y-91267257D01*
X70768345Y-91267257D02*
X70696917Y-91338685D01*
X70696917Y-91338685D02*
X70625488Y-91267257D01*
X70625488Y-91267257D02*
X70696917Y-91195828D01*
X70696917Y-91195828D02*
X70696917Y-91338685D01*
X69768345Y-92695828D02*
X69911202Y-92624400D01*
X69911202Y-92624400D02*
X69982631Y-92481542D01*
X69982631Y-92481542D02*
X69982631Y-91195828D01*
X69196917Y-92695828D02*
X69196917Y-91195828D01*
X69196917Y-91767257D02*
X69054060Y-91695828D01*
X69054060Y-91695828D02*
X68768345Y-91695828D01*
X68768345Y-91695828D02*
X68625488Y-91767257D01*
X68625488Y-91767257D02*
X68554060Y-91838685D01*
X68554060Y-91838685D02*
X68482631Y-91981542D01*
X68482631Y-91981542D02*
X68482631Y-92410114D01*
X68482631Y-92410114D02*
X68554060Y-92552971D01*
X68554060Y-92552971D02*
X68625488Y-92624400D01*
X68625488Y-92624400D02*
X68768345Y-92695828D01*
X68768345Y-92695828D02*
X69054060Y-92695828D01*
X69054060Y-92695828D02*
X69196917Y-92624400D01*
X67268345Y-92624400D02*
X67411202Y-92695828D01*
X67411202Y-92695828D02*
X67696917Y-92695828D01*
X67696917Y-92695828D02*
X67839774Y-92624400D01*
X67839774Y-92624400D02*
X67911202Y-92481542D01*
X67911202Y-92481542D02*
X67911202Y-91910114D01*
X67911202Y-91910114D02*
X67839774Y-91767257D01*
X67839774Y-91767257D02*
X67696917Y-91695828D01*
X67696917Y-91695828D02*
X67411202Y-91695828D01*
X67411202Y-91695828D02*
X67268345Y-91767257D01*
X67268345Y-91767257D02*
X67196917Y-91910114D01*
X67196917Y-91910114D02*
X67196917Y-92052971D01*
X67196917Y-92052971D02*
X67911202Y-92195828D01*
X66554060Y-92695828D02*
X66554060Y-91695828D01*
X66554060Y-91981542D02*
X66482631Y-91838685D01*
X66482631Y-91838685D02*
X66411203Y-91767257D01*
X66411203Y-91767257D02*
X66268345Y-91695828D01*
X66268345Y-91695828D02*
X66125488Y-91695828D01*
X65839774Y-91695828D02*
X65268346Y-91695828D01*
X65625489Y-91195828D02*
X65625489Y-92481542D01*
X65625489Y-92481542D02*
X65554060Y-92624400D01*
X65554060Y-92624400D02*
X65411203Y-92695828D01*
X65411203Y-92695828D02*
X65268346Y-92695828D01*
X82625489Y-94539400D02*
X81482632Y-94539400D01*
X79125489Y-94325114D02*
X78911203Y-94396542D01*
X78911203Y-94396542D02*
X78839774Y-94467971D01*
X78839774Y-94467971D02*
X78768346Y-94610828D01*
X78768346Y-94610828D02*
X78768346Y-94825114D01*
X78768346Y-94825114D02*
X78839774Y-94967971D01*
X78839774Y-94967971D02*
X78911203Y-95039400D01*
X78911203Y-95039400D02*
X79054060Y-95110828D01*
X79054060Y-95110828D02*
X79625489Y-95110828D01*
X79625489Y-95110828D02*
X79625489Y-93610828D01*
X79625489Y-93610828D02*
X79125489Y-93610828D01*
X79125489Y-93610828D02*
X78982632Y-93682257D01*
X78982632Y-93682257D02*
X78911203Y-93753685D01*
X78911203Y-93753685D02*
X78839774Y-93896542D01*
X78839774Y-93896542D02*
X78839774Y-94039400D01*
X78839774Y-94039400D02*
X78911203Y-94182257D01*
X78911203Y-94182257D02*
X78982632Y-94253685D01*
X78982632Y-94253685D02*
X79125489Y-94325114D01*
X79125489Y-94325114D02*
X79625489Y-94325114D01*
X78125489Y-95110828D02*
X78125489Y-94110828D01*
X78125489Y-94396542D02*
X78054060Y-94253685D01*
X78054060Y-94253685D02*
X77982632Y-94182257D01*
X77982632Y-94182257D02*
X77839774Y-94110828D01*
X77839774Y-94110828D02*
X77696917Y-94110828D01*
X76554061Y-95110828D02*
X76554061Y-94325114D01*
X76554061Y-94325114D02*
X76625489Y-94182257D01*
X76625489Y-94182257D02*
X76768346Y-94110828D01*
X76768346Y-94110828D02*
X77054061Y-94110828D01*
X77054061Y-94110828D02*
X77196918Y-94182257D01*
X76554061Y-95039400D02*
X76696918Y-95110828D01*
X76696918Y-95110828D02*
X77054061Y-95110828D01*
X77054061Y-95110828D02*
X77196918Y-95039400D01*
X77196918Y-95039400D02*
X77268346Y-94896542D01*
X77268346Y-94896542D02*
X77268346Y-94753685D01*
X77268346Y-94753685D02*
X77196918Y-94610828D01*
X77196918Y-94610828D02*
X77054061Y-94539400D01*
X77054061Y-94539400D02*
X76696918Y-94539400D01*
X76696918Y-94539400D02*
X76554061Y-94467971D01*
X75839775Y-94110828D02*
X75839775Y-95110828D01*
X75839775Y-94253685D02*
X75768346Y-94182257D01*
X75768346Y-94182257D02*
X75625489Y-94110828D01*
X75625489Y-94110828D02*
X75411203Y-94110828D01*
X75411203Y-94110828D02*
X75268346Y-94182257D01*
X75268346Y-94182257D02*
X75196918Y-94325114D01*
X75196918Y-94325114D02*
X75196918Y-95110828D01*
X73839775Y-95110828D02*
X73839775Y-93610828D01*
X73839775Y-95039400D02*
X73982632Y-95110828D01*
X73982632Y-95110828D02*
X74268346Y-95110828D01*
X74268346Y-95110828D02*
X74411203Y-95039400D01*
X74411203Y-95039400D02*
X74482632Y-94967971D01*
X74482632Y-94967971D02*
X74554060Y-94825114D01*
X74554060Y-94825114D02*
X74554060Y-94396542D01*
X74554060Y-94396542D02*
X74482632Y-94253685D01*
X74482632Y-94253685D02*
X74411203Y-94182257D01*
X74411203Y-94182257D02*
X74268346Y-94110828D01*
X74268346Y-94110828D02*
X73982632Y-94110828D01*
X73982632Y-94110828D02*
X73839775Y-94182257D01*
X72911203Y-95110828D02*
X73054060Y-95039400D01*
X73054060Y-95039400D02*
X73125489Y-94967971D01*
X73125489Y-94967971D02*
X73196917Y-94825114D01*
X73196917Y-94825114D02*
X73196917Y-94396542D01*
X73196917Y-94396542D02*
X73125489Y-94253685D01*
X73125489Y-94253685D02*
X73054060Y-94182257D01*
X73054060Y-94182257D02*
X72911203Y-94110828D01*
X72911203Y-94110828D02*
X72696917Y-94110828D01*
X72696917Y-94110828D02*
X72554060Y-94182257D01*
X72554060Y-94182257D02*
X72482632Y-94253685D01*
X72482632Y-94253685D02*
X72411203Y-94396542D01*
X72411203Y-94396542D02*
X72411203Y-94825114D01*
X72411203Y-94825114D02*
X72482632Y-94967971D01*
X72482632Y-94967971D02*
X72554060Y-95039400D01*
X72554060Y-95039400D02*
X72696917Y-95110828D01*
X72696917Y-95110828D02*
X72911203Y-95110828D01*
X71768346Y-94110828D02*
X71768346Y-95110828D01*
X71768346Y-94253685D02*
X71696917Y-94182257D01*
X71696917Y-94182257D02*
X71554060Y-94110828D01*
X71554060Y-94110828D02*
X71339774Y-94110828D01*
X71339774Y-94110828D02*
X71196917Y-94182257D01*
X71196917Y-94182257D02*
X71125489Y-94325114D01*
X71125489Y-94325114D02*
X71125489Y-95110828D01*
X69268346Y-95110828D02*
X69268346Y-93610828D01*
X69268346Y-93610828D02*
X68696917Y-93610828D01*
X68696917Y-93610828D02*
X68554060Y-93682257D01*
X68554060Y-93682257D02*
X68482631Y-93753685D01*
X68482631Y-93753685D02*
X68411203Y-93896542D01*
X68411203Y-93896542D02*
X68411203Y-94110828D01*
X68411203Y-94110828D02*
X68482631Y-94253685D01*
X68482631Y-94253685D02*
X68554060Y-94325114D01*
X68554060Y-94325114D02*
X68696917Y-94396542D01*
X68696917Y-94396542D02*
X69268346Y-94396542D01*
X67768346Y-95110828D02*
X67768346Y-93610828D01*
X67125489Y-95110828D02*
X67125489Y-94325114D01*
X67125489Y-94325114D02*
X67196917Y-94182257D01*
X67196917Y-94182257D02*
X67339774Y-94110828D01*
X67339774Y-94110828D02*
X67554060Y-94110828D01*
X67554060Y-94110828D02*
X67696917Y-94182257D01*
X67696917Y-94182257D02*
X67768346Y-94253685D01*
X65768346Y-94110828D02*
X65768346Y-95110828D01*
X66411203Y-94110828D02*
X66411203Y-94896542D01*
X66411203Y-94896542D02*
X66339774Y-95039400D01*
X66339774Y-95039400D02*
X66196917Y-95110828D01*
X66196917Y-95110828D02*
X65982631Y-95110828D01*
X65982631Y-95110828D02*
X65839774Y-95039400D01*
X65839774Y-95039400D02*
X65768346Y-94967971D01*
X82625489Y-96954400D02*
X81482632Y-96954400D01*
X79196917Y-96025828D02*
X79196917Y-97097257D01*
X79196917Y-97097257D02*
X79268346Y-97311542D01*
X79268346Y-97311542D02*
X79411203Y-97454400D01*
X79411203Y-97454400D02*
X79625489Y-97525828D01*
X79625489Y-97525828D02*
X79768346Y-97525828D01*
X78268346Y-97525828D02*
X78411203Y-97454400D01*
X78411203Y-97454400D02*
X78482632Y-97382971D01*
X78482632Y-97382971D02*
X78554060Y-97240114D01*
X78554060Y-97240114D02*
X78554060Y-96811542D01*
X78554060Y-96811542D02*
X78482632Y-96668685D01*
X78482632Y-96668685D02*
X78411203Y-96597257D01*
X78411203Y-96597257D02*
X78268346Y-96525828D01*
X78268346Y-96525828D02*
X78054060Y-96525828D01*
X78054060Y-96525828D02*
X77911203Y-96597257D01*
X77911203Y-96597257D02*
X77839775Y-96668685D01*
X77839775Y-96668685D02*
X77768346Y-96811542D01*
X77768346Y-96811542D02*
X77768346Y-97240114D01*
X77768346Y-97240114D02*
X77839775Y-97382971D01*
X77839775Y-97382971D02*
X77911203Y-97454400D01*
X77911203Y-97454400D02*
X78054060Y-97525828D01*
X78054060Y-97525828D02*
X78268346Y-97525828D01*
X77125489Y-96525828D02*
X77125489Y-97525828D01*
X77125489Y-96668685D02*
X77054060Y-96597257D01*
X77054060Y-96597257D02*
X76911203Y-96525828D01*
X76911203Y-96525828D02*
X76696917Y-96525828D01*
X76696917Y-96525828D02*
X76554060Y-96597257D01*
X76554060Y-96597257D02*
X76482632Y-96740114D01*
X76482632Y-96740114D02*
X76482632Y-97525828D01*
X75125489Y-97525828D02*
X75125489Y-96740114D01*
X75125489Y-96740114D02*
X75196917Y-96597257D01*
X75196917Y-96597257D02*
X75339774Y-96525828D01*
X75339774Y-96525828D02*
X75625489Y-96525828D01*
X75625489Y-96525828D02*
X75768346Y-96597257D01*
X75125489Y-97454400D02*
X75268346Y-97525828D01*
X75268346Y-97525828D02*
X75625489Y-97525828D01*
X75625489Y-97525828D02*
X75768346Y-97454400D01*
X75768346Y-97454400D02*
X75839774Y-97311542D01*
X75839774Y-97311542D02*
X75839774Y-97168685D01*
X75839774Y-97168685D02*
X75768346Y-97025828D01*
X75768346Y-97025828D02*
X75625489Y-96954400D01*
X75625489Y-96954400D02*
X75268346Y-96954400D01*
X75268346Y-96954400D02*
X75125489Y-96882971D01*
X74625488Y-96525828D02*
X74054060Y-96525828D01*
X74411203Y-96025828D02*
X74411203Y-97311542D01*
X74411203Y-97311542D02*
X74339774Y-97454400D01*
X74339774Y-97454400D02*
X74196917Y-97525828D01*
X74196917Y-97525828D02*
X74054060Y-97525828D01*
X73554060Y-97525828D02*
X73554060Y-96025828D01*
X72911203Y-97525828D02*
X72911203Y-96740114D01*
X72911203Y-96740114D02*
X72982631Y-96597257D01*
X72982631Y-96597257D02*
X73125488Y-96525828D01*
X73125488Y-96525828D02*
X73339774Y-96525828D01*
X73339774Y-96525828D02*
X73482631Y-96597257D01*
X73482631Y-96597257D02*
X73554060Y-96668685D01*
X71554060Y-97525828D02*
X71554060Y-96740114D01*
X71554060Y-96740114D02*
X71625488Y-96597257D01*
X71625488Y-96597257D02*
X71768345Y-96525828D01*
X71768345Y-96525828D02*
X72054060Y-96525828D01*
X72054060Y-96525828D02*
X72196917Y-96597257D01*
X71554060Y-97454400D02*
X71696917Y-97525828D01*
X71696917Y-97525828D02*
X72054060Y-97525828D01*
X72054060Y-97525828D02*
X72196917Y-97454400D01*
X72196917Y-97454400D02*
X72268345Y-97311542D01*
X72268345Y-97311542D02*
X72268345Y-97168685D01*
X72268345Y-97168685D02*
X72196917Y-97025828D01*
X72196917Y-97025828D02*
X72054060Y-96954400D01*
X72054060Y-96954400D02*
X71696917Y-96954400D01*
X71696917Y-96954400D02*
X71554060Y-96882971D01*
X70839774Y-96525828D02*
X70839774Y-97525828D01*
X70839774Y-96668685D02*
X70768345Y-96597257D01*
X70768345Y-96597257D02*
X70625488Y-96525828D01*
X70625488Y-96525828D02*
X70411202Y-96525828D01*
X70411202Y-96525828D02*
X70268345Y-96597257D01*
X70268345Y-96597257D02*
X70196917Y-96740114D01*
X70196917Y-96740114D02*
X70196917Y-97525828D01*
X68339774Y-97525828D02*
X68339774Y-96025828D01*
X67482631Y-97525828D02*
X68125488Y-96668685D01*
X67482631Y-96025828D02*
X68339774Y-96882971D01*
X66625488Y-97525828D02*
X66768345Y-97454400D01*
X66768345Y-97454400D02*
X66839774Y-97382971D01*
X66839774Y-97382971D02*
X66911202Y-97240114D01*
X66911202Y-97240114D02*
X66911202Y-96811542D01*
X66911202Y-96811542D02*
X66839774Y-96668685D01*
X66839774Y-96668685D02*
X66768345Y-96597257D01*
X66768345Y-96597257D02*
X66625488Y-96525828D01*
X66625488Y-96525828D02*
X66411202Y-96525828D01*
X66411202Y-96525828D02*
X66268345Y-96597257D01*
X66268345Y-96597257D02*
X66196917Y-96668685D01*
X66196917Y-96668685D02*
X66125488Y-96811542D01*
X66125488Y-96811542D02*
X66125488Y-97240114D01*
X66125488Y-97240114D02*
X66196917Y-97382971D01*
X66196917Y-97382971D02*
X66268345Y-97454400D01*
X66268345Y-97454400D02*
X66411202Y-97525828D01*
X66411202Y-97525828D02*
X66625488Y-97525828D01*
X82625489Y-99369400D02*
X81482632Y-99369400D01*
X79125489Y-99155114D02*
X78911203Y-99226542D01*
X78911203Y-99226542D02*
X78839774Y-99297971D01*
X78839774Y-99297971D02*
X78768346Y-99440828D01*
X78768346Y-99440828D02*
X78768346Y-99655114D01*
X78768346Y-99655114D02*
X78839774Y-99797971D01*
X78839774Y-99797971D02*
X78911203Y-99869400D01*
X78911203Y-99869400D02*
X79054060Y-99940828D01*
X79054060Y-99940828D02*
X79625489Y-99940828D01*
X79625489Y-99940828D02*
X79625489Y-98440828D01*
X79625489Y-98440828D02*
X79125489Y-98440828D01*
X79125489Y-98440828D02*
X78982632Y-98512257D01*
X78982632Y-98512257D02*
X78911203Y-98583685D01*
X78911203Y-98583685D02*
X78839774Y-98726542D01*
X78839774Y-98726542D02*
X78839774Y-98869400D01*
X78839774Y-98869400D02*
X78911203Y-99012257D01*
X78911203Y-99012257D02*
X78982632Y-99083685D01*
X78982632Y-99083685D02*
X79125489Y-99155114D01*
X79125489Y-99155114D02*
X79625489Y-99155114D01*
X77554060Y-99869400D02*
X77696917Y-99940828D01*
X77696917Y-99940828D02*
X77982632Y-99940828D01*
X77982632Y-99940828D02*
X78125489Y-99869400D01*
X78125489Y-99869400D02*
X78196917Y-99726542D01*
X78196917Y-99726542D02*
X78196917Y-99155114D01*
X78196917Y-99155114D02*
X78125489Y-99012257D01*
X78125489Y-99012257D02*
X77982632Y-98940828D01*
X77982632Y-98940828D02*
X77696917Y-98940828D01*
X77696917Y-98940828D02*
X77554060Y-99012257D01*
X77554060Y-99012257D02*
X77482632Y-99155114D01*
X77482632Y-99155114D02*
X77482632Y-99297971D01*
X77482632Y-99297971D02*
X78196917Y-99440828D01*
X76839775Y-98940828D02*
X76839775Y-99940828D01*
X76839775Y-99083685D02*
X76768346Y-99012257D01*
X76768346Y-99012257D02*
X76625489Y-98940828D01*
X76625489Y-98940828D02*
X76411203Y-98940828D01*
X76411203Y-98940828D02*
X76268346Y-99012257D01*
X76268346Y-99012257D02*
X76196918Y-99155114D01*
X76196918Y-99155114D02*
X76196918Y-99940828D01*
X73839775Y-99155114D02*
X74339775Y-99155114D01*
X74339775Y-99940828D02*
X74339775Y-98440828D01*
X74339775Y-98440828D02*
X73625489Y-98440828D01*
X72839775Y-99940828D02*
X72982632Y-99869400D01*
X72982632Y-99869400D02*
X73054061Y-99726542D01*
X73054061Y-99726542D02*
X73054061Y-98440828D01*
X71625490Y-99940828D02*
X71625490Y-99155114D01*
X71625490Y-99155114D02*
X71696918Y-99012257D01*
X71696918Y-99012257D02*
X71839775Y-98940828D01*
X71839775Y-98940828D02*
X72125490Y-98940828D01*
X72125490Y-98940828D02*
X72268347Y-99012257D01*
X71625490Y-99869400D02*
X71768347Y-99940828D01*
X71768347Y-99940828D02*
X72125490Y-99940828D01*
X72125490Y-99940828D02*
X72268347Y-99869400D01*
X72268347Y-99869400D02*
X72339775Y-99726542D01*
X72339775Y-99726542D02*
X72339775Y-99583685D01*
X72339775Y-99583685D02*
X72268347Y-99440828D01*
X72268347Y-99440828D02*
X72125490Y-99369400D01*
X72125490Y-99369400D02*
X71768347Y-99369400D01*
X71768347Y-99369400D02*
X71625490Y-99297971D01*
X70268347Y-99869400D02*
X70411204Y-99940828D01*
X70411204Y-99940828D02*
X70696918Y-99940828D01*
X70696918Y-99940828D02*
X70839775Y-99869400D01*
X70839775Y-99869400D02*
X70911204Y-99797971D01*
X70911204Y-99797971D02*
X70982632Y-99655114D01*
X70982632Y-99655114D02*
X70982632Y-99226542D01*
X70982632Y-99226542D02*
X70911204Y-99083685D01*
X70911204Y-99083685D02*
X70839775Y-99012257D01*
X70839775Y-99012257D02*
X70696918Y-98940828D01*
X70696918Y-98940828D02*
X70411204Y-98940828D01*
X70411204Y-98940828D02*
X70268347Y-99012257D01*
X69625490Y-99940828D02*
X69625490Y-98440828D01*
X69482633Y-99369400D02*
X69054061Y-99940828D01*
X69054061Y-98940828D02*
X69625490Y-99512257D01*
D11*
X130692857Y-57759060D02*
X130740476Y-57806680D01*
X130740476Y-57806680D02*
X130883333Y-57854299D01*
X130883333Y-57854299D02*
X130978571Y-57854299D01*
X130978571Y-57854299D02*
X131121428Y-57806680D01*
X131121428Y-57806680D02*
X131216666Y-57711441D01*
X131216666Y-57711441D02*
X131264285Y-57616203D01*
X131264285Y-57616203D02*
X131311904Y-57425727D01*
X131311904Y-57425727D02*
X131311904Y-57282870D01*
X131311904Y-57282870D02*
X131264285Y-57092394D01*
X131264285Y-57092394D02*
X131216666Y-56997156D01*
X131216666Y-56997156D02*
X131121428Y-56901918D01*
X131121428Y-56901918D02*
X130978571Y-56854299D01*
X130978571Y-56854299D02*
X130883333Y-56854299D01*
X130883333Y-56854299D02*
X130740476Y-56901918D01*
X130740476Y-56901918D02*
X130692857Y-56949537D01*
X130311904Y-56949537D02*
X130264285Y-56901918D01*
X130264285Y-56901918D02*
X130169047Y-56854299D01*
X130169047Y-56854299D02*
X129930952Y-56854299D01*
X129930952Y-56854299D02*
X129835714Y-56901918D01*
X129835714Y-56901918D02*
X129788095Y-56949537D01*
X129788095Y-56949537D02*
X129740476Y-57044775D01*
X129740476Y-57044775D02*
X129740476Y-57140013D01*
X129740476Y-57140013D02*
X129788095Y-57282870D01*
X129788095Y-57282870D02*
X130359523Y-57854299D01*
X130359523Y-57854299D02*
X129740476Y-57854299D01*
X129359523Y-56949537D02*
X129311904Y-56901918D01*
X129311904Y-56901918D02*
X129216666Y-56854299D01*
X129216666Y-56854299D02*
X128978571Y-56854299D01*
X128978571Y-56854299D02*
X128883333Y-56901918D01*
X128883333Y-56901918D02*
X128835714Y-56949537D01*
X128835714Y-56949537D02*
X128788095Y-57044775D01*
X128788095Y-57044775D02*
X128788095Y-57140013D01*
X128788095Y-57140013D02*
X128835714Y-57282870D01*
X128835714Y-57282870D02*
X129407142Y-57854299D01*
X129407142Y-57854299D02*
X128788095Y-57854299D01*
X131542857Y-59459060D02*
X131590476Y-59506680D01*
X131590476Y-59506680D02*
X131733333Y-59554299D01*
X131733333Y-59554299D02*
X131828571Y-59554299D01*
X131828571Y-59554299D02*
X131971428Y-59506680D01*
X131971428Y-59506680D02*
X132066666Y-59411441D01*
X132066666Y-59411441D02*
X132114285Y-59316203D01*
X132114285Y-59316203D02*
X132161904Y-59125727D01*
X132161904Y-59125727D02*
X132161904Y-58982870D01*
X132161904Y-58982870D02*
X132114285Y-58792394D01*
X132114285Y-58792394D02*
X132066666Y-58697156D01*
X132066666Y-58697156D02*
X131971428Y-58601918D01*
X131971428Y-58601918D02*
X131828571Y-58554299D01*
X131828571Y-58554299D02*
X131733333Y-58554299D01*
X131733333Y-58554299D02*
X131590476Y-58601918D01*
X131590476Y-58601918D02*
X131542857Y-58649537D01*
X131161904Y-58649537D02*
X131114285Y-58601918D01*
X131114285Y-58601918D02*
X131019047Y-58554299D01*
X131019047Y-58554299D02*
X130780952Y-58554299D01*
X130780952Y-58554299D02*
X130685714Y-58601918D01*
X130685714Y-58601918D02*
X130638095Y-58649537D01*
X130638095Y-58649537D02*
X130590476Y-58744775D01*
X130590476Y-58744775D02*
X130590476Y-58840013D01*
X130590476Y-58840013D02*
X130638095Y-58982870D01*
X130638095Y-58982870D02*
X131209523Y-59554299D01*
X131209523Y-59554299D02*
X130590476Y-59554299D01*
X129638095Y-59554299D02*
X130209523Y-59554299D01*
X129923809Y-59554299D02*
X129923809Y-58554299D01*
X129923809Y-58554299D02*
X130019047Y-58697156D01*
X130019047Y-58697156D02*
X130114285Y-58792394D01*
X130114285Y-58792394D02*
X130209523Y-58840013D01*
X134142857Y-82754299D02*
X134476190Y-82278108D01*
X134714285Y-82754299D02*
X134714285Y-81754299D01*
X134714285Y-81754299D02*
X134333333Y-81754299D01*
X134333333Y-81754299D02*
X134238095Y-81801918D01*
X134238095Y-81801918D02*
X134190476Y-81849537D01*
X134190476Y-81849537D02*
X134142857Y-81944775D01*
X134142857Y-81944775D02*
X134142857Y-82087632D01*
X134142857Y-82087632D02*
X134190476Y-82182870D01*
X134190476Y-82182870D02*
X134238095Y-82230489D01*
X134238095Y-82230489D02*
X134333333Y-82278108D01*
X134333333Y-82278108D02*
X134714285Y-82278108D01*
X133190476Y-82754299D02*
X133761904Y-82754299D01*
X133476190Y-82754299D02*
X133476190Y-81754299D01*
X133476190Y-81754299D02*
X133571428Y-81897156D01*
X133571428Y-81897156D02*
X133666666Y-81992394D01*
X133666666Y-81992394D02*
X133761904Y-82040013D01*
X132809523Y-81849537D02*
X132761904Y-81801918D01*
X132761904Y-81801918D02*
X132666666Y-81754299D01*
X132666666Y-81754299D02*
X132428571Y-81754299D01*
X132428571Y-81754299D02*
X132333333Y-81801918D01*
X132333333Y-81801918D02*
X132285714Y-81849537D01*
X132285714Y-81849537D02*
X132238095Y-81944775D01*
X132238095Y-81944775D02*
X132238095Y-82040013D01*
X132238095Y-82040013D02*
X132285714Y-82182870D01*
X132285714Y-82182870D02*
X132857142Y-82754299D01*
X132857142Y-82754299D02*
X132238095Y-82754299D01*
X133166666Y-84559060D02*
X133214285Y-84606680D01*
X133214285Y-84606680D02*
X133357142Y-84654299D01*
X133357142Y-84654299D02*
X133452380Y-84654299D01*
X133452380Y-84654299D02*
X133595237Y-84606680D01*
X133595237Y-84606680D02*
X133690475Y-84511441D01*
X133690475Y-84511441D02*
X133738094Y-84416203D01*
X133738094Y-84416203D02*
X133785713Y-84225727D01*
X133785713Y-84225727D02*
X133785713Y-84082870D01*
X133785713Y-84082870D02*
X133738094Y-83892394D01*
X133738094Y-83892394D02*
X133690475Y-83797156D01*
X133690475Y-83797156D02*
X133595237Y-83701918D01*
X133595237Y-83701918D02*
X133452380Y-83654299D01*
X133452380Y-83654299D02*
X133357142Y-83654299D01*
X133357142Y-83654299D02*
X133214285Y-83701918D01*
X133214285Y-83701918D02*
X133166666Y-83749537D01*
X132309523Y-83987632D02*
X132309523Y-84654299D01*
X132547618Y-83606680D02*
X132785713Y-84320965D01*
X132785713Y-84320965D02*
X132166666Y-84320965D01*
X126069833Y-86866266D02*
X126117452Y-86913886D01*
X126117452Y-86913886D02*
X126260309Y-86961505D01*
X126260309Y-86961505D02*
X126355547Y-86961505D01*
X126355547Y-86961505D02*
X126498404Y-86913886D01*
X126498404Y-86913886D02*
X126593642Y-86818647D01*
X126593642Y-86818647D02*
X126641261Y-86723409D01*
X126641261Y-86723409D02*
X126688880Y-86532933D01*
X126688880Y-86532933D02*
X126688880Y-86390076D01*
X126688880Y-86390076D02*
X126641261Y-86199600D01*
X126641261Y-86199600D02*
X126593642Y-86104362D01*
X126593642Y-86104362D02*
X126498404Y-86009124D01*
X126498404Y-86009124D02*
X126355547Y-85961505D01*
X126355547Y-85961505D02*
X126260309Y-85961505D01*
X126260309Y-85961505D02*
X126117452Y-86009124D01*
X126117452Y-86009124D02*
X126069833Y-86056743D01*
X125593642Y-86961505D02*
X125403166Y-86961505D01*
X125403166Y-86961505D02*
X125307928Y-86913886D01*
X125307928Y-86913886D02*
X125260309Y-86866266D01*
X125260309Y-86866266D02*
X125165071Y-86723409D01*
X125165071Y-86723409D02*
X125117452Y-86532933D01*
X125117452Y-86532933D02*
X125117452Y-86151981D01*
X125117452Y-86151981D02*
X125165071Y-86056743D01*
X125165071Y-86056743D02*
X125212690Y-86009124D01*
X125212690Y-86009124D02*
X125307928Y-85961505D01*
X125307928Y-85961505D02*
X125498404Y-85961505D01*
X125498404Y-85961505D02*
X125593642Y-86009124D01*
X125593642Y-86009124D02*
X125641261Y-86056743D01*
X125641261Y-86056743D02*
X125688880Y-86151981D01*
X125688880Y-86151981D02*
X125688880Y-86390076D01*
X125688880Y-86390076D02*
X125641261Y-86485314D01*
X125641261Y-86485314D02*
X125593642Y-86532933D01*
X125593642Y-86532933D02*
X125498404Y-86580552D01*
X125498404Y-86580552D02*
X125307928Y-86580552D01*
X125307928Y-86580552D02*
X125212690Y-86532933D01*
X125212690Y-86532933D02*
X125165071Y-86485314D01*
X125165071Y-86485314D02*
X125117452Y-86390076D01*
X160874299Y-85653333D02*
X160398108Y-85320000D01*
X160874299Y-85081905D02*
X159874299Y-85081905D01*
X159874299Y-85081905D02*
X159874299Y-85462857D01*
X159874299Y-85462857D02*
X159921918Y-85558095D01*
X159921918Y-85558095D02*
X159969537Y-85605714D01*
X159969537Y-85605714D02*
X160064775Y-85653333D01*
X160064775Y-85653333D02*
X160207632Y-85653333D01*
X160207632Y-85653333D02*
X160302870Y-85605714D01*
X160302870Y-85605714D02*
X160350489Y-85558095D01*
X160350489Y-85558095D02*
X160398108Y-85462857D01*
X160398108Y-85462857D02*
X160398108Y-85081905D01*
X160874299Y-86605714D02*
X160874299Y-86034286D01*
X160874299Y-86320000D02*
X159874299Y-86320000D01*
X159874299Y-86320000D02*
X160017156Y-86224762D01*
X160017156Y-86224762D02*
X160112394Y-86129524D01*
X160112394Y-86129524D02*
X160160013Y-86034286D01*
X127966666Y-82959060D02*
X128014285Y-83006680D01*
X128014285Y-83006680D02*
X128157142Y-83054299D01*
X128157142Y-83054299D02*
X128252380Y-83054299D01*
X128252380Y-83054299D02*
X128395237Y-83006680D01*
X128395237Y-83006680D02*
X128490475Y-82911441D01*
X128490475Y-82911441D02*
X128538094Y-82816203D01*
X128538094Y-82816203D02*
X128585713Y-82625727D01*
X128585713Y-82625727D02*
X128585713Y-82482870D01*
X128585713Y-82482870D02*
X128538094Y-82292394D01*
X128538094Y-82292394D02*
X128490475Y-82197156D01*
X128490475Y-82197156D02*
X128395237Y-82101918D01*
X128395237Y-82101918D02*
X128252380Y-82054299D01*
X128252380Y-82054299D02*
X128157142Y-82054299D01*
X128157142Y-82054299D02*
X128014285Y-82101918D01*
X128014285Y-82101918D02*
X127966666Y-82149537D01*
X127061904Y-82054299D02*
X127538094Y-82054299D01*
X127538094Y-82054299D02*
X127585713Y-82530489D01*
X127585713Y-82530489D02*
X127538094Y-82482870D01*
X127538094Y-82482870D02*
X127442856Y-82435251D01*
X127442856Y-82435251D02*
X127204761Y-82435251D01*
X127204761Y-82435251D02*
X127109523Y-82482870D01*
X127109523Y-82482870D02*
X127061904Y-82530489D01*
X127061904Y-82530489D02*
X127014285Y-82625727D01*
X127014285Y-82625727D02*
X127014285Y-82863822D01*
X127014285Y-82863822D02*
X127061904Y-82959060D01*
X127061904Y-82959060D02*
X127109523Y-83006680D01*
X127109523Y-83006680D02*
X127204761Y-83054299D01*
X127204761Y-83054299D02*
X127442856Y-83054299D01*
X127442856Y-83054299D02*
X127538094Y-83006680D01*
X127538094Y-83006680D02*
X127585713Y-82959060D01*
X131166666Y-90359060D02*
X131214285Y-90406680D01*
X131214285Y-90406680D02*
X131357142Y-90454299D01*
X131357142Y-90454299D02*
X131452380Y-90454299D01*
X131452380Y-90454299D02*
X131595237Y-90406680D01*
X131595237Y-90406680D02*
X131690475Y-90311441D01*
X131690475Y-90311441D02*
X131738094Y-90216203D01*
X131738094Y-90216203D02*
X131785713Y-90025727D01*
X131785713Y-90025727D02*
X131785713Y-89882870D01*
X131785713Y-89882870D02*
X131738094Y-89692394D01*
X131738094Y-89692394D02*
X131690475Y-89597156D01*
X131690475Y-89597156D02*
X131595237Y-89501918D01*
X131595237Y-89501918D02*
X131452380Y-89454299D01*
X131452380Y-89454299D02*
X131357142Y-89454299D01*
X131357142Y-89454299D02*
X131214285Y-89501918D01*
X131214285Y-89501918D02*
X131166666Y-89549537D01*
X130833332Y-89454299D02*
X130166666Y-89454299D01*
X130166666Y-89454299D02*
X130595237Y-90454299D01*
X129469833Y-86466266D02*
X129517452Y-86513886D01*
X129517452Y-86513886D02*
X129660309Y-86561505D01*
X129660309Y-86561505D02*
X129755547Y-86561505D01*
X129755547Y-86561505D02*
X129898404Y-86513886D01*
X129898404Y-86513886D02*
X129993642Y-86418647D01*
X129993642Y-86418647D02*
X130041261Y-86323409D01*
X130041261Y-86323409D02*
X130088880Y-86132933D01*
X130088880Y-86132933D02*
X130088880Y-85990076D01*
X130088880Y-85990076D02*
X130041261Y-85799600D01*
X130041261Y-85799600D02*
X129993642Y-85704362D01*
X129993642Y-85704362D02*
X129898404Y-85609124D01*
X129898404Y-85609124D02*
X129755547Y-85561505D01*
X129755547Y-85561505D02*
X129660309Y-85561505D01*
X129660309Y-85561505D02*
X129517452Y-85609124D01*
X129517452Y-85609124D02*
X129469833Y-85656743D01*
X128612690Y-85561505D02*
X128803166Y-85561505D01*
X128803166Y-85561505D02*
X128898404Y-85609124D01*
X128898404Y-85609124D02*
X128946023Y-85656743D01*
X128946023Y-85656743D02*
X129041261Y-85799600D01*
X129041261Y-85799600D02*
X129088880Y-85990076D01*
X129088880Y-85990076D02*
X129088880Y-86371028D01*
X129088880Y-86371028D02*
X129041261Y-86466266D01*
X129041261Y-86466266D02*
X128993642Y-86513886D01*
X128993642Y-86513886D02*
X128898404Y-86561505D01*
X128898404Y-86561505D02*
X128707928Y-86561505D01*
X128707928Y-86561505D02*
X128612690Y-86513886D01*
X128612690Y-86513886D02*
X128565071Y-86466266D01*
X128565071Y-86466266D02*
X128517452Y-86371028D01*
X128517452Y-86371028D02*
X128517452Y-86132933D01*
X128517452Y-86132933D02*
X128565071Y-86037695D01*
X128565071Y-86037695D02*
X128612690Y-85990076D01*
X128612690Y-85990076D02*
X128707928Y-85942457D01*
X128707928Y-85942457D02*
X128898404Y-85942457D01*
X128898404Y-85942457D02*
X128993642Y-85990076D01*
X128993642Y-85990076D02*
X129041261Y-86037695D01*
X129041261Y-86037695D02*
X129088880Y-86132933D01*
X143654299Y-47857142D02*
X143178108Y-47523809D01*
X143654299Y-47285714D02*
X142654299Y-47285714D01*
X142654299Y-47285714D02*
X142654299Y-47666666D01*
X142654299Y-47666666D02*
X142701918Y-47761904D01*
X142701918Y-47761904D02*
X142749537Y-47809523D01*
X142749537Y-47809523D02*
X142844775Y-47857142D01*
X142844775Y-47857142D02*
X142987632Y-47857142D01*
X142987632Y-47857142D02*
X143082870Y-47809523D01*
X143082870Y-47809523D02*
X143130489Y-47761904D01*
X143130489Y-47761904D02*
X143178108Y-47666666D01*
X143178108Y-47666666D02*
X143178108Y-47285714D01*
X143654299Y-48809523D02*
X143654299Y-48238095D01*
X143654299Y-48523809D02*
X142654299Y-48523809D01*
X142654299Y-48523809D02*
X142797156Y-48428571D01*
X142797156Y-48428571D02*
X142892394Y-48333333D01*
X142892394Y-48333333D02*
X142940013Y-48238095D01*
X142654299Y-49142857D02*
X142654299Y-49761904D01*
X142654299Y-49761904D02*
X143035251Y-49428571D01*
X143035251Y-49428571D02*
X143035251Y-49571428D01*
X143035251Y-49571428D02*
X143082870Y-49666666D01*
X143082870Y-49666666D02*
X143130489Y-49714285D01*
X143130489Y-49714285D02*
X143225727Y-49761904D01*
X143225727Y-49761904D02*
X143463822Y-49761904D01*
X143463822Y-49761904D02*
X143559060Y-49714285D01*
X143559060Y-49714285D02*
X143606680Y-49666666D01*
X143606680Y-49666666D02*
X143654299Y-49571428D01*
X143654299Y-49571428D02*
X143654299Y-49285714D01*
X143654299Y-49285714D02*
X143606680Y-49190476D01*
X143606680Y-49190476D02*
X143559060Y-49142857D01*
X163794299Y-89733333D02*
X163318108Y-89400000D01*
X163794299Y-89161905D02*
X162794299Y-89161905D01*
X162794299Y-89161905D02*
X162794299Y-89542857D01*
X162794299Y-89542857D02*
X162841918Y-89638095D01*
X162841918Y-89638095D02*
X162889537Y-89685714D01*
X162889537Y-89685714D02*
X162984775Y-89733333D01*
X162984775Y-89733333D02*
X163127632Y-89733333D01*
X163127632Y-89733333D02*
X163222870Y-89685714D01*
X163222870Y-89685714D02*
X163270489Y-89638095D01*
X163270489Y-89638095D02*
X163318108Y-89542857D01*
X163318108Y-89542857D02*
X163318108Y-89161905D01*
X162889537Y-90114286D02*
X162841918Y-90161905D01*
X162841918Y-90161905D02*
X162794299Y-90257143D01*
X162794299Y-90257143D02*
X162794299Y-90495238D01*
X162794299Y-90495238D02*
X162841918Y-90590476D01*
X162841918Y-90590476D02*
X162889537Y-90638095D01*
X162889537Y-90638095D02*
X162984775Y-90685714D01*
X162984775Y-90685714D02*
X163080013Y-90685714D01*
X163080013Y-90685714D02*
X163222870Y-90638095D01*
X163222870Y-90638095D02*
X163794299Y-90066667D01*
X163794299Y-90066667D02*
X163794299Y-90685714D01*
X132342857Y-61259060D02*
X132390476Y-61306680D01*
X132390476Y-61306680D02*
X132533333Y-61354299D01*
X132533333Y-61354299D02*
X132628571Y-61354299D01*
X132628571Y-61354299D02*
X132771428Y-61306680D01*
X132771428Y-61306680D02*
X132866666Y-61211441D01*
X132866666Y-61211441D02*
X132914285Y-61116203D01*
X132914285Y-61116203D02*
X132961904Y-60925727D01*
X132961904Y-60925727D02*
X132961904Y-60782870D01*
X132961904Y-60782870D02*
X132914285Y-60592394D01*
X132914285Y-60592394D02*
X132866666Y-60497156D01*
X132866666Y-60497156D02*
X132771428Y-60401918D01*
X132771428Y-60401918D02*
X132628571Y-60354299D01*
X132628571Y-60354299D02*
X132533333Y-60354299D01*
X132533333Y-60354299D02*
X132390476Y-60401918D01*
X132390476Y-60401918D02*
X132342857Y-60449537D01*
X131961904Y-60449537D02*
X131914285Y-60401918D01*
X131914285Y-60401918D02*
X131819047Y-60354299D01*
X131819047Y-60354299D02*
X131580952Y-60354299D01*
X131580952Y-60354299D02*
X131485714Y-60401918D01*
X131485714Y-60401918D02*
X131438095Y-60449537D01*
X131438095Y-60449537D02*
X131390476Y-60544775D01*
X131390476Y-60544775D02*
X131390476Y-60640013D01*
X131390476Y-60640013D02*
X131438095Y-60782870D01*
X131438095Y-60782870D02*
X132009523Y-61354299D01*
X132009523Y-61354299D02*
X131390476Y-61354299D01*
X130771428Y-60354299D02*
X130676190Y-60354299D01*
X130676190Y-60354299D02*
X130580952Y-60401918D01*
X130580952Y-60401918D02*
X130533333Y-60449537D01*
X130533333Y-60449537D02*
X130485714Y-60544775D01*
X130485714Y-60544775D02*
X130438095Y-60735251D01*
X130438095Y-60735251D02*
X130438095Y-60973346D01*
X130438095Y-60973346D02*
X130485714Y-61163822D01*
X130485714Y-61163822D02*
X130533333Y-61259060D01*
X130533333Y-61259060D02*
X130580952Y-61306680D01*
X130580952Y-61306680D02*
X130676190Y-61354299D01*
X130676190Y-61354299D02*
X130771428Y-61354299D01*
X130771428Y-61354299D02*
X130866666Y-61306680D01*
X130866666Y-61306680D02*
X130914285Y-61259060D01*
X130914285Y-61259060D02*
X130961904Y-61163822D01*
X130961904Y-61163822D02*
X131009523Y-60973346D01*
X131009523Y-60973346D02*
X131009523Y-60735251D01*
X131009523Y-60735251D02*
X130961904Y-60544775D01*
X130961904Y-60544775D02*
X130914285Y-60449537D01*
X130914285Y-60449537D02*
X130866666Y-60401918D01*
X130866666Y-60401918D02*
X130771428Y-60354299D01*
X145154299Y-48533333D02*
X144678108Y-48200000D01*
X145154299Y-47961905D02*
X144154299Y-47961905D01*
X144154299Y-47961905D02*
X144154299Y-48342857D01*
X144154299Y-48342857D02*
X144201918Y-48438095D01*
X144201918Y-48438095D02*
X144249537Y-48485714D01*
X144249537Y-48485714D02*
X144344775Y-48533333D01*
X144344775Y-48533333D02*
X144487632Y-48533333D01*
X144487632Y-48533333D02*
X144582870Y-48485714D01*
X144582870Y-48485714D02*
X144630489Y-48438095D01*
X144630489Y-48438095D02*
X144678108Y-48342857D01*
X144678108Y-48342857D02*
X144678108Y-47961905D01*
X144487632Y-49390476D02*
X145154299Y-49390476D01*
X144106680Y-49152381D02*
X144820965Y-48914286D01*
X144820965Y-48914286D02*
X144820965Y-49533333D01*
D12*
X126959420Y-56990000D02*
X127240580Y-56990000D01*
X126959420Y-58010000D02*
X127240580Y-58010000D01*
X127809420Y-58640000D02*
X128090580Y-58640000D01*
X127809420Y-59660000D02*
X128090580Y-59660000D01*
X130262742Y-82077500D02*
X130737258Y-82077500D01*
X130262742Y-83122500D02*
X130737258Y-83122500D01*
X131710000Y-84759420D02*
X131710000Y-85040580D01*
X130690000Y-84759420D02*
X130690000Y-85040580D01*
X124987587Y-87497206D02*
X125268747Y-87497206D01*
X124987587Y-88517206D02*
X125268747Y-88517206D01*
X161397500Y-86007258D02*
X161397500Y-85532742D01*
X162442500Y-86007258D02*
X162442500Y-85532742D01*
X128359420Y-80590000D02*
X128640580Y-80590000D01*
X128359420Y-81610000D02*
X128640580Y-81610000D01*
X130818167Y-88040580D02*
X130818167Y-87759420D01*
X131838167Y-88040580D02*
X131838167Y-87759420D01*
X128487587Y-87197206D02*
X128768747Y-87197206D01*
X128487587Y-88217206D02*
X128768747Y-88217206D01*
X143722500Y-44462742D02*
X143722500Y-44937258D01*
X142677500Y-44462742D02*
X142677500Y-44937258D01*
X162462500Y-89712742D02*
X162462500Y-90187258D01*
X161417500Y-89712742D02*
X161417500Y-90187258D01*
X128609420Y-60247206D02*
X128890580Y-60247206D01*
X128609420Y-61267206D02*
X128890580Y-61267206D01*
X145222500Y-45062742D02*
X145222500Y-45537258D01*
X144177500Y-45062742D02*
X144177500Y-45537258D01*
%LPC*%
D13*
X61503167Y-56382206D03*
D14*
X61503167Y-53842206D03*
D13*
X164103167Y-75332206D03*
D14*
X164103167Y-77872206D03*
D13*
X61200000Y-86540000D03*
D14*
X61200000Y-84000000D03*
D13*
X136275000Y-42000000D03*
D14*
X133735000Y-42000000D03*
X131195000Y-42000000D03*
X128655000Y-42000000D03*
X126115000Y-42000000D03*
X123575000Y-42000000D03*
X121035000Y-42000000D03*
X118495000Y-42000000D03*
D15*
X61503167Y-43407206D03*
D16*
X104880000Y-94600000D03*
X100000000Y-94600000D03*
D13*
X152660000Y-42000000D03*
D14*
X155200000Y-42000000D03*
X157740000Y-42000000D03*
D13*
X117058167Y-99607206D03*
D14*
X114518167Y-99607206D03*
X111978167Y-99607206D03*
X109438167Y-99607206D03*
D15*
X163543167Y-43407206D03*
D13*
X164203167Y-70032206D03*
D14*
X164203167Y-67492206D03*
X164203167Y-64952206D03*
X164203167Y-62412206D03*
X164203167Y-59872206D03*
X164203167Y-57332206D03*
X164203167Y-54792206D03*
X164203167Y-52252206D03*
D13*
X140500000Y-42000000D03*
D14*
X143040000Y-42000000D03*
X145580000Y-42000000D03*
X148120000Y-42000000D03*
D16*
X131078167Y-98607206D03*
X126198167Y-98607206D03*
D15*
X61503167Y-99147206D03*
D17*
X160280000Y-92435000D03*
X160280000Y-83785000D03*
X164460000Y-92435000D03*
X164460000Y-83785000D03*
D15*
X163543167Y-99147206D03*
D18*
X126325000Y-57500000D03*
X127875000Y-57500000D03*
X127175000Y-59150000D03*
X128725000Y-59150000D03*
D19*
X129675000Y-82600000D03*
X131325000Y-82600000D03*
D20*
X131200000Y-84125000D03*
X131200000Y-85675000D03*
D18*
X124353167Y-88007206D03*
X125903167Y-88007206D03*
D21*
X161920000Y-86595000D03*
X161920000Y-84945000D03*
D18*
X127725000Y-81100000D03*
X129275000Y-81100000D03*
D22*
X131328167Y-88675000D03*
X131328167Y-87125000D03*
D18*
X127853167Y-87707206D03*
X129403167Y-87707206D03*
D23*
X143200000Y-43875000D03*
X143200000Y-45525000D03*
X161940000Y-89125000D03*
X161940000Y-90775000D03*
D18*
X127975000Y-60757206D03*
X129525000Y-60757206D03*
D23*
X144700000Y-44475000D03*
X144700000Y-46125000D03*
%LPD*%
M02*
