G04 #@! TF.GenerationSoftware,KiCad,Pcbnew,7.0.7*
G04 #@! TF.CreationDate,2023-12-18T21:44:50-05:00*
G04 #@! TF.ProjectId,central_hub,63656e74-7261-46c5-9f68-75622e6b6963,rev?*
G04 #@! TF.SameCoordinates,Original*
G04 #@! TF.FileFunction,Paste,Top*
G04 #@! TF.FilePolarity,Positive*
%FSLAX46Y46*%
G04 Gerber Fmt 4.6, Leading zero omitted, Abs format (unit mm)*
G04 Created by KiCad (PCBNEW 7.0.7) date 2023-12-18 21:44:50*
%MOMM*%
%LPD*%
G01*
G04 APERTURE LIST*
G04 Aperture macros list*
%AMRoundRect*
0 Rectangle with rounded corners*
0 $1 Rounding radius*
0 $2 $3 $4 $5 $6 $7 $8 $9 X,Y pos of 4 corners*
0 Add a 4 corners polygon primitive as box body*
4,1,4,$2,$3,$4,$5,$6,$7,$8,$9,$2,$3,0*
0 Add four circle primitives for the rounded corners*
1,1,$1+$1,$2,$3*
1,1,$1+$1,$4,$5*
1,1,$1+$1,$6,$7*
1,1,$1+$1,$8,$9*
0 Add four rect primitives between the rounded corners*
20,1,$1+$1,$2,$3,$4,$5,0*
20,1,$1+$1,$4,$5,$6,$7,0*
20,1,$1+$1,$6,$7,$8,$9,0*
20,1,$1+$1,$8,$9,$2,$3,0*%
%AMFreePoly0*
4,1,17,1.875035,1.275035,1.875050,1.275000,1.875050,0.575000,1.875035,0.574965,1.875000,0.574950,0.575050,0.574950,0.575050,-0.425000,0.575035,-0.425035,0.575000,-0.425050,-0.425000,-0.425050,-0.425035,-0.425035,-0.425050,-0.425000,-0.425050,1.275000,-0.425035,1.275035,-0.425000,1.275050,1.875000,1.275050,1.875035,1.275035,1.875035,1.275035,$1*%
%AMFreePoly1*
4,1,17,0.425035,1.275035,0.425050,1.275000,0.425050,-0.425000,0.425035,-0.425035,0.425000,-0.425050,-0.575000,-0.425050,-0.575035,-0.425035,-0.575050,-0.425000,-0.575050,0.574950,-1.875000,0.574950,-1.875035,0.574965,-1.875050,0.575000,-1.875050,1.275000,-1.875035,1.275035,-1.875000,1.275050,0.425000,1.275050,0.425035,1.275035,0.425035,1.275035,$1*%
%AMFreePoly2*
4,1,17,0.425035,0.425035,0.425050,0.425000,0.425050,-1.275000,0.425035,-1.275035,0.425000,-1.275050,-1.875000,-1.275050,-1.875035,-1.275035,-1.875050,-1.275000,-1.875050,-0.575000,-1.875035,-0.574965,-1.875000,-0.574950,-0.575050,-0.574950,-0.575050,0.425000,-0.575035,0.425035,-0.575000,0.425050,0.425000,0.425050,0.425035,0.425035,0.425035,0.425035,$1*%
%AMFreePoly3*
4,1,17,0.575035,0.425035,0.575050,0.425000,0.575050,-0.574950,1.875000,-0.574950,1.875035,-0.574965,1.875050,-0.575000,1.875050,-1.275000,1.875035,-1.275035,1.875000,-1.275050,-0.425000,-1.275050,-0.425035,-1.275035,-0.425050,-1.275000,-0.425050,0.425000,-0.425035,0.425035,-0.425000,0.425050,0.575000,0.425050,0.575035,0.425035,0.575035,0.425035,$1*%
G04 Aperture macros list end*
%ADD10C,0.000100*%
%ADD11R,0.939800X0.965200*%
%ADD12R,0.279400X1.397000*%
%ADD13R,1.397000X0.279400*%
%ADD14RoundRect,0.225000X-0.250000X0.225000X-0.250000X-0.225000X0.250000X-0.225000X0.250000X0.225000X0*%
%ADD15RoundRect,0.200000X-0.275000X0.200000X-0.275000X-0.200000X0.275000X-0.200000X0.275000X0.200000X0*%
%ADD16RoundRect,0.100000X0.100000X-0.637500X0.100000X0.637500X-0.100000X0.637500X-0.100000X-0.637500X0*%
%ADD17R,1.200000X1.200000*%
%ADD18RoundRect,0.150000X0.587500X0.150000X-0.587500X0.150000X-0.587500X-0.150000X0.587500X-0.150000X0*%
%ADD19RoundRect,0.225000X0.225000X0.250000X-0.225000X0.250000X-0.225000X-0.250000X0.225000X-0.250000X0*%
%ADD20RoundRect,0.225000X-0.225000X-0.250000X0.225000X-0.250000X0.225000X0.250000X-0.225000X0.250000X0*%
%ADD21RoundRect,0.200000X0.275000X-0.200000X0.275000X0.200000X-0.275000X0.200000X-0.275000X-0.200000X0*%
%ADD22RoundRect,0.237500X-0.237500X0.250000X-0.237500X-0.250000X0.237500X-0.250000X0.237500X0.250000X0*%
%ADD23RoundRect,0.200000X0.200000X0.275000X-0.200000X0.275000X-0.200000X-0.275000X0.200000X-0.275000X0*%
%ADD24RoundRect,0.218750X0.256250X-0.218750X0.256250X0.218750X-0.256250X0.218750X-0.256250X-0.218750X0*%
%ADD25RoundRect,0.225000X0.250000X-0.225000X0.250000X0.225000X-0.250000X0.225000X-0.250000X-0.225000X0*%
%ADD26RoundRect,0.250000X-1.100000X0.325000X-1.100000X-0.325000X1.100000X-0.325000X1.100000X0.325000X0*%
%ADD27RoundRect,0.150000X-0.512500X-0.150000X0.512500X-0.150000X0.512500X0.150000X-0.512500X0.150000X0*%
%ADD28RoundRect,0.135000X-0.185000X0.135000X-0.185000X-0.135000X0.185000X-0.135000X0.185000X0.135000X0*%
%ADD29R,1.300000X0.600000*%
%ADD30RoundRect,0.250000X-0.325000X-1.100000X0.325000X-1.100000X0.325000X1.100000X-0.325000X1.100000X0*%
%ADD31R,2.220000X1.240000*%
%ADD32RoundRect,0.250000X0.625000X-0.375000X0.625000X0.375000X-0.625000X0.375000X-0.625000X-0.375000X0*%
%ADD33RoundRect,0.150000X-0.150000X0.512500X-0.150000X-0.512500X0.150000X-0.512500X0.150000X0.512500X0*%
%ADD34RoundRect,0.200000X-0.200000X-0.275000X0.200000X-0.275000X0.200000X0.275000X-0.200000X0.275000X0*%
%ADD35RoundRect,0.250000X-0.375000X-0.625000X0.375000X-0.625000X0.375000X0.625000X-0.375000X0.625000X0*%
%ADD36R,5.100000X1.900000*%
%ADD37RoundRect,0.135000X0.185000X-0.135000X0.185000X0.135000X-0.185000X0.135000X-0.185000X-0.135000X0*%
%ADD38RoundRect,0.140000X-0.140000X-0.170000X0.140000X-0.170000X0.140000X0.170000X-0.140000X0.170000X0*%
%ADD39FreePoly0,180.000000*%
%ADD40FreePoly1,180.000000*%
%ADD41FreePoly2,180.000000*%
%ADD42FreePoly3,180.000000*%
%ADD43RoundRect,0.250000X-0.650000X0.325000X-0.650000X-0.325000X0.650000X-0.325000X0.650000X0.325000X0*%
%ADD44RoundRect,0.218750X-0.218750X-0.256250X0.218750X-0.256250X0.218750X0.256250X-0.218750X0.256250X0*%
%ADD45R,0.900000X0.800000*%
%ADD46R,1.140000X0.300000*%
%ADD47RoundRect,0.075000X0.350000X0.075000X-0.350000X0.075000X-0.350000X-0.075000X0.350000X-0.075000X0*%
%ADD48RoundRect,0.075000X-0.075000X0.350000X-0.075000X-0.350000X0.075000X-0.350000X0.075000X0.350000X0*%
%ADD49R,1.000000X0.700000*%
%ADD50R,0.600000X0.700000*%
%ADD51R,2.400000X0.600000*%
%ADD52R,1.700000X1.900000*%
%ADD53R,1.600000X1.440000*%
G04 APERTURE END LIST*
D10*
X71180907Y-56383442D02*
X72480907Y-56383442D01*
X72480907Y-57083442D01*
X70180907Y-57083442D01*
X70180907Y-55383442D01*
X71180907Y-55383442D01*
X71180907Y-56383442D01*
G36*
X71180907Y-56383442D02*
G01*
X72480907Y-56383442D01*
X72480907Y-57083442D01*
X70180907Y-57083442D01*
X70180907Y-55383442D01*
X71180907Y-55383442D01*
X71180907Y-56383442D01*
G37*
X72480907Y-53083442D02*
X71180907Y-53083442D01*
X71180907Y-54083442D01*
X70180907Y-54083442D01*
X70180907Y-52383442D01*
X72480907Y-52383442D01*
X72480907Y-53083442D01*
G36*
X72480907Y-53083442D02*
G01*
X71180907Y-53083442D01*
X71180907Y-54083442D01*
X70180907Y-54083442D01*
X70180907Y-52383442D01*
X72480907Y-52383442D01*
X72480907Y-53083442D01*
G37*
X69280907Y-57083442D02*
X66980907Y-57083442D01*
X66980907Y-56383442D01*
X68280907Y-56383442D01*
X68280907Y-55383442D01*
X69280907Y-55383442D01*
X69280907Y-57083442D01*
G36*
X69280907Y-57083442D02*
G01*
X66980907Y-57083442D01*
X66980907Y-56383442D01*
X68280907Y-56383442D01*
X68280907Y-55383442D01*
X69280907Y-55383442D01*
X69280907Y-57083442D01*
G37*
X69280907Y-54083442D02*
X68280907Y-54083442D01*
X68280907Y-53083442D01*
X66980907Y-53083442D01*
X66980907Y-52383442D01*
X69280907Y-52383442D01*
X69280907Y-54083442D01*
G36*
X69280907Y-54083442D02*
G01*
X68280907Y-54083442D01*
X68280907Y-53083442D01*
X66980907Y-53083442D01*
X66980907Y-52383442D01*
X69280907Y-52383442D01*
X69280907Y-54083442D01*
G37*
D11*
X116078167Y-84381506D03*
X116078167Y-82882906D03*
D12*
X124377222Y-90360306D03*
X124877348Y-90360306D03*
X125377474Y-90360306D03*
X125877600Y-90360306D03*
X126377726Y-90360306D03*
X126877852Y-90360306D03*
X127377978Y-90360306D03*
X127878104Y-90360306D03*
X128378230Y-90360306D03*
X128878356Y-90360306D03*
X129378482Y-90360306D03*
X129878608Y-90360306D03*
X130378734Y-90360306D03*
X130878860Y-90360306D03*
X131378986Y-90360306D03*
X131879112Y-90360306D03*
D13*
X133881267Y-88358151D03*
X133881267Y-87858025D03*
X133881267Y-87357899D03*
X133881267Y-86857773D03*
X133881267Y-86357647D03*
X133881267Y-85857521D03*
X133881267Y-85357395D03*
X133881267Y-84857269D03*
X133881267Y-84357143D03*
X133881267Y-83857017D03*
X133881267Y-83356891D03*
X133881267Y-82856765D03*
X133881267Y-82356639D03*
X133881267Y-81856513D03*
X133881267Y-81356387D03*
X133881267Y-80856261D03*
D12*
X131879112Y-78854106D03*
X131378986Y-78854106D03*
X130878860Y-78854106D03*
X130378734Y-78854106D03*
X129878608Y-78854106D03*
X129378482Y-78854106D03*
X128878356Y-78854106D03*
X128378230Y-78854106D03*
X127878104Y-78854106D03*
X127377978Y-78854106D03*
X126877852Y-78854106D03*
X126377726Y-78854106D03*
X125877600Y-78854106D03*
X125377474Y-78854106D03*
X124877348Y-78854106D03*
X124377222Y-78854106D03*
D13*
X122375067Y-80856261D03*
X122375067Y-81356387D03*
X122375067Y-81856513D03*
X122375067Y-82356639D03*
X122375067Y-82856765D03*
X122375067Y-83356891D03*
X122375067Y-83857017D03*
X122375067Y-84357143D03*
X122375067Y-84857269D03*
X122375067Y-85357395D03*
X122375067Y-85857521D03*
X122375067Y-86357647D03*
X122375067Y-86857773D03*
X122375067Y-87357899D03*
X122375067Y-87858025D03*
X122375067Y-88358151D03*
D14*
X84837274Y-59714302D03*
X84837274Y-61264302D03*
D15*
X120453167Y-77694706D03*
X120453167Y-79344706D03*
D16*
X97625000Y-87062500D03*
X98275000Y-87062500D03*
X98925000Y-87062500D03*
X99575000Y-87062500D03*
X100225000Y-87062500D03*
X100875000Y-87062500D03*
X101525000Y-87062500D03*
X102175000Y-87062500D03*
X102825000Y-87062500D03*
X103475000Y-87062500D03*
X103475000Y-81337500D03*
X102825000Y-81337500D03*
X102175000Y-81337500D03*
X101525000Y-81337500D03*
X100875000Y-81337500D03*
X100225000Y-81337500D03*
X99575000Y-81337500D03*
X98925000Y-81337500D03*
X98275000Y-81337500D03*
X97625000Y-81337500D03*
D17*
X161400000Y-78000000D03*
X158600000Y-78000000D03*
D18*
X153403167Y-72157206D03*
X153403167Y-70257206D03*
X151528167Y-71207206D03*
D19*
X127753167Y-94707206D03*
X126203167Y-94707206D03*
D14*
X114228167Y-83982206D03*
X114228167Y-85532206D03*
D20*
X115153167Y-49557206D03*
X116703167Y-49557206D03*
D21*
X155465667Y-61532206D03*
X155465667Y-59882206D03*
D14*
X96328167Y-48782206D03*
X96328167Y-50332206D03*
D20*
X129553167Y-94707206D03*
X131103167Y-94707206D03*
D22*
X86353167Y-71994706D03*
X86353167Y-73819706D03*
D18*
X153403167Y-66957206D03*
X153403167Y-65057206D03*
X151528167Y-66007206D03*
D15*
X149465667Y-53632206D03*
X149465667Y-55282206D03*
D23*
X112153167Y-48957206D03*
X110503167Y-48957206D03*
D20*
X103405000Y-90825000D03*
X104955000Y-90825000D03*
D14*
X86892776Y-59723603D03*
X86892776Y-61273603D03*
D24*
X80300000Y-73575000D03*
X80300000Y-72000000D03*
D20*
X111053167Y-47257206D03*
X112603167Y-47257206D03*
D25*
X86068661Y-56412206D03*
X86068661Y-54862206D03*
D26*
X74920000Y-53393603D03*
X74920000Y-56343603D03*
D25*
X100628167Y-53732206D03*
X100628167Y-52182206D03*
D20*
X123153167Y-92407206D03*
X124703167Y-92407206D03*
D25*
X155760000Y-94025000D03*
X155760000Y-92475000D03*
D18*
X153340667Y-56207206D03*
X153340667Y-54307206D03*
X151465667Y-55257206D03*
D20*
X108653167Y-51877206D03*
X110203167Y-51877206D03*
D27*
X96390667Y-52107206D03*
X96390667Y-53057206D03*
X96390667Y-54007206D03*
X98665667Y-54007206D03*
X98665667Y-52107206D03*
D15*
X149565667Y-58832206D03*
X149565667Y-60482206D03*
D21*
X155365667Y-56082206D03*
X155365667Y-54432206D03*
D23*
X114053167Y-45557206D03*
X112403167Y-45557206D03*
D24*
X84000000Y-73562500D03*
X84000000Y-71987500D03*
D28*
X129690000Y-75120000D03*
X129690000Y-76140000D03*
D23*
X134853167Y-92607206D03*
X133203167Y-92607206D03*
D29*
X86625000Y-87255000D03*
X86625000Y-85985000D03*
X86625000Y-84715000D03*
X86625000Y-83445000D03*
X81325000Y-83445000D03*
X81325000Y-84715000D03*
X81325000Y-85985000D03*
X81325000Y-87255000D03*
D30*
X66295000Y-64837206D03*
X69245000Y-64837206D03*
D15*
X82100000Y-75250000D03*
X82100000Y-76900000D03*
D21*
X155465667Y-71982206D03*
X155465667Y-70332206D03*
D28*
X132790000Y-75080000D03*
X132790000Y-76100000D03*
D31*
X89220000Y-59268603D03*
X89220000Y-61448603D03*
D32*
X89453167Y-78532206D03*
X89453167Y-75732206D03*
D22*
X89453167Y-72019706D03*
X89453167Y-73844706D03*
D33*
X89784267Y-54626691D03*
X88834267Y-54626691D03*
X87884267Y-54626691D03*
X87884267Y-56901691D03*
X88834267Y-56901691D03*
X89784267Y-56901691D03*
D34*
X133203167Y-90907206D03*
X134853167Y-90907206D03*
D21*
X117428167Y-54382206D03*
X117428167Y-52732206D03*
D32*
X86353167Y-78532206D03*
X86353167Y-75732206D03*
D15*
X149465667Y-64382206D03*
X149465667Y-66032206D03*
D35*
X61670000Y-59587206D03*
X64470000Y-59587206D03*
D36*
X73720000Y-60018603D03*
X73720000Y-64218603D03*
D24*
X82100000Y-73562500D03*
X82100000Y-71987500D03*
D37*
X99590000Y-79220000D03*
X99590000Y-78200000D03*
D34*
X113903167Y-60157206D03*
X115553167Y-60157206D03*
D38*
X101665000Y-79860000D03*
X102625000Y-79860000D03*
D37*
X101720000Y-78960000D03*
X101720000Y-77940000D03*
D20*
X111553167Y-56757206D03*
X113103167Y-56757206D03*
D15*
X149403167Y-48382206D03*
X149403167Y-50032206D03*
D19*
X101555000Y-90825000D03*
X100005000Y-90825000D03*
D25*
X94950000Y-81275000D03*
X94950000Y-79725000D03*
D34*
X112903167Y-58457206D03*
X114553167Y-58457206D03*
D39*
X68855907Y-55808442D03*
D40*
X70605907Y-55808442D03*
D41*
X70605907Y-53658442D03*
D42*
X68855907Y-53658442D03*
D14*
X91659846Y-57209523D03*
X91659846Y-58759523D03*
D43*
X64810409Y-53755792D03*
X64810409Y-56705792D03*
D44*
X75932500Y-51448603D03*
X77507500Y-51448603D03*
D21*
X118703167Y-79332206D03*
X118703167Y-77682206D03*
D15*
X84050000Y-75250000D03*
X84050000Y-76900000D03*
D21*
X155465667Y-66832206D03*
X155465667Y-65182206D03*
D22*
X64850000Y-84352500D03*
X64850000Y-86177500D03*
D45*
X67025000Y-84365000D03*
X67025000Y-86265000D03*
X69125000Y-85315000D03*
D11*
X112528167Y-85456506D03*
X112528167Y-83957906D03*
D18*
X153403167Y-61557206D03*
X153403167Y-59657206D03*
X151528167Y-60607206D03*
D28*
X130740000Y-75090000D03*
X130740000Y-76110000D03*
D18*
X153340667Y-50957206D03*
X153340667Y-49057206D03*
X151465667Y-50007206D03*
D15*
X110728167Y-82432206D03*
X110728167Y-84082206D03*
X157460000Y-92425000D03*
X157460000Y-94075000D03*
D46*
X159690000Y-91460000D03*
X159690000Y-90660000D03*
X159690000Y-89360000D03*
X159690000Y-88360000D03*
X159690000Y-87860000D03*
X159690000Y-86860000D03*
X159690000Y-85560000D03*
X159690000Y-84760000D03*
X159690000Y-85060000D03*
X159690000Y-85860000D03*
X159690000Y-86360000D03*
X159690000Y-87360000D03*
X159690000Y-88860000D03*
X159690000Y-89860000D03*
X159690000Y-90360000D03*
X159690000Y-91160000D03*
D47*
X115778167Y-54407206D03*
X115778167Y-53907206D03*
X115778167Y-53407206D03*
X115778167Y-52907206D03*
X115778167Y-52407206D03*
X115778167Y-51907206D03*
D48*
X115078167Y-51207206D03*
X114578167Y-51207206D03*
X114078167Y-51207206D03*
X113578167Y-51207206D03*
X113078167Y-51207206D03*
X112578167Y-51207206D03*
D47*
X111878167Y-51907206D03*
X111878167Y-52407206D03*
X111878167Y-52907206D03*
X111878167Y-53407206D03*
X111878167Y-53907206D03*
X111878167Y-54407206D03*
D48*
X112578167Y-55107206D03*
X113078167Y-55107206D03*
X113578167Y-55107206D03*
X114078167Y-55107206D03*
X114578167Y-55107206D03*
X115078167Y-55107206D03*
D49*
X154790000Y-88660000D03*
D50*
X156490000Y-88660000D03*
X156490000Y-86660000D03*
X154590000Y-86660000D03*
D14*
X88475000Y-84600000D03*
X88475000Y-86150000D03*
D15*
X80300000Y-75262500D03*
X80300000Y-76912500D03*
X149465667Y-69532206D03*
X149465667Y-71182206D03*
D14*
X117828167Y-82857206D03*
X117828167Y-84407206D03*
D51*
X79853167Y-58057206D03*
D52*
X80803167Y-59507206D03*
X78903167Y-59507206D03*
X80803167Y-61607206D03*
X78903167Y-61607206D03*
D53*
X78788167Y-63987206D03*
X80918167Y-63987206D03*
D21*
X155403167Y-50932206D03*
X155403167Y-49282206D03*
M02*
