G04 #@! TF.GenerationSoftware,KiCad,Pcbnew,7.0.7*
G04 #@! TF.CreationDate,2023-12-18T21:05:11-05:00*
G04 #@! TF.ProjectId,motor_board_pcb,6d6f746f-725f-4626-9f61-72645f706362,rev?*
G04 #@! TF.SameCoordinates,Original*
G04 #@! TF.FileFunction,Paste,Bot*
G04 #@! TF.FilePolarity,Positive*
%FSLAX46Y46*%
G04 Gerber Fmt 4.6, Leading zero omitted, Abs format (unit mm)*
G04 Created by KiCad (PCBNEW 7.0.7) date 2023-12-18 21:05:11*
%MOMM*%
%LPD*%
G01*
G04 APERTURE LIST*
G04 Aperture macros list*
%AMRoundRect*
0 Rectangle with rounded corners*
0 $1 Rounding radius*
0 $2 $3 $4 $5 $6 $7 $8 $9 X,Y pos of 4 corners*
0 Add a 4 corners polygon primitive as box body*
4,1,4,$2,$3,$4,$5,$6,$7,$8,$9,$2,$3,0*
0 Add four circle primitives for the rounded corners*
1,1,$1+$1,$2,$3*
1,1,$1+$1,$4,$5*
1,1,$1+$1,$6,$7*
1,1,$1+$1,$8,$9*
0 Add four rect primitives between the rounded corners*
20,1,$1+$1,$2,$3,$4,$5,0*
20,1,$1+$1,$4,$5,$6,$7,0*
20,1,$1+$1,$6,$7,$8,$9,0*
20,1,$1+$1,$8,$9,$2,$3,0*%
G04 Aperture macros list end*
%ADD10R,1.200000X1.200000*%
%ADD11R,1.500000X1.600000*%
%ADD12RoundRect,0.225000X0.250000X-0.225000X0.250000X0.225000X-0.250000X0.225000X-0.250000X-0.225000X0*%
%ADD13RoundRect,0.200000X0.275000X-0.200000X0.275000X0.200000X-0.275000X0.200000X-0.275000X-0.200000X0*%
%ADD14RoundRect,0.225000X-0.225000X-0.250000X0.225000X-0.250000X0.225000X0.250000X-0.225000X0.250000X0*%
%ADD15RoundRect,0.225000X0.225000X0.250000X-0.225000X0.250000X-0.225000X-0.250000X0.225000X-0.250000X0*%
%ADD16RoundRect,0.140000X-0.140000X-0.170000X0.140000X-0.170000X0.140000X0.170000X-0.140000X0.170000X0*%
%ADD17RoundRect,0.200000X0.200000X0.275000X-0.200000X0.275000X-0.200000X-0.275000X0.200000X-0.275000X0*%
%ADD18RoundRect,0.200000X-0.200000X-0.275000X0.200000X-0.275000X0.200000X0.275000X-0.200000X0.275000X0*%
%ADD19RoundRect,0.225000X-0.250000X0.225000X-0.250000X-0.225000X0.250000X-0.225000X0.250000X0.225000X0*%
%ADD20RoundRect,0.140000X0.140000X0.170000X-0.140000X0.170000X-0.140000X-0.170000X0.140000X-0.170000X0*%
G04 APERTURE END LIST*
D10*
X144005335Y-74750000D03*
D11*
X147255335Y-73750000D03*
D10*
X144005335Y-72750000D03*
D12*
X164500000Y-86475000D03*
X164500000Y-84925000D03*
D13*
X161500000Y-76325000D03*
X161500000Y-74675000D03*
D14*
X136275000Y-64050000D03*
X137825000Y-64050000D03*
D15*
X146175000Y-64000000D03*
X144625000Y-64000000D03*
D16*
X137120000Y-65400000D03*
X138080000Y-65400000D03*
D17*
X161131900Y-91479811D03*
X159481900Y-91479811D03*
D18*
X158075000Y-94900000D03*
X159725000Y-94900000D03*
D17*
X146225000Y-66700000D03*
X144575000Y-66700000D03*
D18*
X172115000Y-62750000D03*
X173765000Y-62750000D03*
D13*
X145206900Y-91443784D03*
X145206900Y-89793784D03*
X163200000Y-77725000D03*
X163200000Y-76075000D03*
D18*
X136225000Y-66750000D03*
X137875000Y-66750000D03*
X158075000Y-96500000D03*
X159725000Y-96500000D03*
D13*
X146906900Y-91543784D03*
X146906900Y-89893784D03*
D17*
X169515000Y-62780000D03*
X167865000Y-62780000D03*
D19*
X171100000Y-82825000D03*
X171100000Y-84375000D03*
D12*
X167750000Y-83775000D03*
X167750000Y-82225000D03*
D20*
X145330000Y-65350000D03*
X144370000Y-65350000D03*
D18*
X159481900Y-93079811D03*
X161131900Y-93079811D03*
D19*
X171300000Y-86325000D03*
X171300000Y-87875000D03*
D12*
X169500000Y-83775000D03*
X169500000Y-82225000D03*
M02*
