G04 #@! TF.GenerationSoftware,KiCad,Pcbnew,7.0.7*
G04 #@! TF.CreationDate,2023-12-18T21:05:11-05:00*
G04 #@! TF.ProjectId,motor_board_pcb,6d6f746f-725f-4626-9f61-72645f706362,rev?*
G04 #@! TF.SameCoordinates,Original*
G04 #@! TF.FileFunction,Soldermask,Bot*
G04 #@! TF.FilePolarity,Negative*
%FSLAX46Y46*%
G04 Gerber Fmt 4.6, Leading zero omitted, Abs format (unit mm)*
G04 Created by KiCad (PCBNEW 7.0.7) date 2023-12-18 21:05:11*
%MOMM*%
%LPD*%
G01*
G04 APERTURE LIST*
G04 Aperture macros list*
%AMRoundRect*
0 Rectangle with rounded corners*
0 $1 Rounding radius*
0 $2 $3 $4 $5 $6 $7 $8 $9 X,Y pos of 4 corners*
0 Add a 4 corners polygon primitive as box body*
4,1,4,$2,$3,$4,$5,$6,$7,$8,$9,$2,$3,0*
0 Add four circle primitives for the rounded corners*
1,1,$1+$1,$2,$3*
1,1,$1+$1,$4,$5*
1,1,$1+$1,$6,$7*
1,1,$1+$1,$8,$9*
0 Add four rect primitives between the rounded corners*
20,1,$1+$1,$2,$3,$4,$5,0*
20,1,$1+$1,$4,$5,$6,$7,0*
20,1,$1+$1,$6,$7,$8,$9,0*
20,1,$1+$1,$8,$9,$2,$3,0*%
G04 Aperture macros list end*
%ADD10RoundRect,0.050000X0.850000X0.850000X-0.850000X0.850000X-0.850000X-0.850000X0.850000X-0.850000X0*%
%ADD11O,1.800000X1.800000*%
%ADD12C,1.600000*%
%ADD13C,2.100000*%
%ADD14RoundRect,0.050000X-0.850000X0.850000X-0.850000X-0.850000X0.850000X-0.850000X0.850000X0.850000X0*%
%ADD15O,1.000000X2.100000*%
%ADD16RoundRect,0.050000X0.850000X-0.850000X0.850000X0.850000X-0.850000X0.850000X-0.850000X-0.850000X0*%
%ADD17RoundRect,0.102000X-0.600000X-0.600000X0.600000X-0.600000X0.600000X0.600000X-0.600000X0.600000X0*%
%ADD18RoundRect,0.102000X0.750000X-0.800000X0.750000X0.800000X-0.750000X0.800000X-0.750000X-0.800000X0*%
%ADD19RoundRect,0.275000X0.250000X-0.225000X0.250000X0.225000X-0.250000X0.225000X-0.250000X-0.225000X0*%
%ADD20RoundRect,0.250000X0.275000X-0.200000X0.275000X0.200000X-0.275000X0.200000X-0.275000X-0.200000X0*%
%ADD21RoundRect,0.275000X-0.225000X-0.250000X0.225000X-0.250000X0.225000X0.250000X-0.225000X0.250000X0*%
%ADD22RoundRect,0.275000X0.225000X0.250000X-0.225000X0.250000X-0.225000X-0.250000X0.225000X-0.250000X0*%
%ADD23RoundRect,0.190000X-0.140000X-0.170000X0.140000X-0.170000X0.140000X0.170000X-0.140000X0.170000X0*%
%ADD24RoundRect,0.250000X0.200000X0.275000X-0.200000X0.275000X-0.200000X-0.275000X0.200000X-0.275000X0*%
%ADD25RoundRect,0.250000X-0.200000X-0.275000X0.200000X-0.275000X0.200000X0.275000X-0.200000X0.275000X0*%
%ADD26RoundRect,0.275000X-0.250000X0.225000X-0.250000X-0.225000X0.250000X-0.225000X0.250000X0.225000X0*%
%ADD27RoundRect,0.190000X0.140000X0.170000X-0.140000X0.170000X-0.140000X-0.170000X0.140000X-0.170000X0*%
G04 APERTURE END LIST*
D10*
X185290000Y-77075000D03*
D11*
X185290000Y-74535000D03*
D12*
X140500000Y-99400000D03*
X135620000Y-99400000D03*
D13*
X94250000Y-101000000D03*
D10*
X94500000Y-65525000D03*
D11*
X94500000Y-62985000D03*
D14*
X182550000Y-101000000D03*
D11*
X180010000Y-101000000D03*
X177470000Y-101000000D03*
X174930000Y-101000000D03*
D13*
X185500000Y-101000000D03*
X185250000Y-59750000D03*
X94250000Y-59750000D03*
D12*
X184100000Y-82650000D03*
X184100000Y-87530000D03*
D15*
X175365000Y-64180000D03*
X166715000Y-64180000D03*
X175365000Y-60000000D03*
X166715000Y-60000000D03*
D14*
X162650000Y-101000000D03*
D11*
X160110000Y-101000000D03*
X157570000Y-101000000D03*
X155030000Y-101000000D03*
X152490000Y-101000000D03*
X149950000Y-101000000D03*
D10*
X95272339Y-91588648D03*
D11*
X95272339Y-89048648D03*
D16*
X154225000Y-60100000D03*
D11*
X156765000Y-60100000D03*
X159305000Y-60100000D03*
D16*
X137400000Y-60100000D03*
D11*
X139940000Y-60100000D03*
X142480000Y-60100000D03*
X145020000Y-60100000D03*
D17*
X144005335Y-74750000D03*
D18*
X147255335Y-73750000D03*
D17*
X144005335Y-72750000D03*
D19*
X164500000Y-86475000D03*
X164500000Y-84925000D03*
D20*
X161500000Y-76325000D03*
X161500000Y-74675000D03*
D21*
X136275000Y-64050000D03*
X137825000Y-64050000D03*
D22*
X146175000Y-64000000D03*
X144625000Y-64000000D03*
D23*
X137120000Y-65400000D03*
X138080000Y-65400000D03*
D24*
X161131900Y-91479811D03*
X159481900Y-91479811D03*
D25*
X158075000Y-94900000D03*
X159725000Y-94900000D03*
D24*
X146225000Y-66700000D03*
X144575000Y-66700000D03*
D25*
X172115000Y-62750000D03*
X173765000Y-62750000D03*
D20*
X145206900Y-91443784D03*
X145206900Y-89793784D03*
X163200000Y-77725000D03*
X163200000Y-76075000D03*
D25*
X136225000Y-66750000D03*
X137875000Y-66750000D03*
X158075000Y-96500000D03*
X159725000Y-96500000D03*
D20*
X146906900Y-91543784D03*
X146906900Y-89893784D03*
D24*
X169515000Y-62780000D03*
X167865000Y-62780000D03*
D26*
X171100000Y-82825000D03*
X171100000Y-84375000D03*
D19*
X167750000Y-83775000D03*
X167750000Y-82225000D03*
D27*
X145330000Y-65350000D03*
X144370000Y-65350000D03*
D25*
X159481900Y-93079811D03*
X161131900Y-93079811D03*
D26*
X171300000Y-86325000D03*
X171300000Y-87875000D03*
D19*
X169500000Y-83775000D03*
X169500000Y-82225000D03*
M02*
