G04 #@! TF.GenerationSoftware,KiCad,Pcbnew,7.0.7*
G04 #@! TF.CreationDate,2023-12-18T21:05:11-05:00*
G04 #@! TF.ProjectId,motor_board_pcb,6d6f746f-725f-4626-9f61-72645f706362,rev?*
G04 #@! TF.SameCoordinates,Original*
G04 #@! TF.FileFunction,Paste,Top*
G04 #@! TF.FilePolarity,Positive*
%FSLAX46Y46*%
G04 Gerber Fmt 4.6, Leading zero omitted, Abs format (unit mm)*
G04 Created by KiCad (PCBNEW 7.0.7) date 2023-12-18 21:05:11*
%MOMM*%
%LPD*%
G01*
G04 APERTURE LIST*
G04 Aperture macros list*
%AMRoundRect*
0 Rectangle with rounded corners*
0 $1 Rounding radius*
0 $2 $3 $4 $5 $6 $7 $8 $9 X,Y pos of 4 corners*
0 Add a 4 corners polygon primitive as box body*
4,1,4,$2,$3,$4,$5,$6,$7,$8,$9,$2,$3,0*
0 Add four circle primitives for the rounded corners*
1,1,$1+$1,$2,$3*
1,1,$1+$1,$4,$5*
1,1,$1+$1,$6,$7*
1,1,$1+$1,$8,$9*
0 Add four rect primitives between the rounded corners*
20,1,$1+$1,$2,$3,$4,$5,0*
20,1,$1+$1,$4,$5,$6,$7,0*
20,1,$1+$1,$6,$7,$8,$9,0*
20,1,$1+$1,$8,$9,$2,$3,0*%
%AMFreePoly0*
4,1,17,1.875035,1.275035,1.875050,1.275000,1.875050,0.575000,1.875035,0.574965,1.875000,0.574950,0.575050,0.574950,0.575050,-0.425000,0.575035,-0.425035,0.575000,-0.425050,-0.425000,-0.425050,-0.425035,-0.425035,-0.425050,-0.425000,-0.425050,1.275000,-0.425035,1.275035,-0.425000,1.275050,1.875000,1.275050,1.875035,1.275035,1.875035,1.275035,$1*%
%AMFreePoly1*
4,1,17,0.425035,1.275035,0.425050,1.275000,0.425050,-0.425000,0.425035,-0.425035,0.425000,-0.425050,-0.575000,-0.425050,-0.575035,-0.425035,-0.575050,-0.425000,-0.575050,0.574950,-1.875000,0.574950,-1.875035,0.574965,-1.875050,0.575000,-1.875050,1.275000,-1.875035,1.275035,-1.875000,1.275050,0.425000,1.275050,0.425035,1.275035,0.425035,1.275035,$1*%
%AMFreePoly2*
4,1,17,0.425035,0.425035,0.425050,0.425000,0.425050,-1.275000,0.425035,-1.275035,0.425000,-1.275050,-1.875000,-1.275050,-1.875035,-1.275035,-1.875050,-1.275000,-1.875050,-0.575000,-1.875035,-0.574965,-1.875000,-0.574950,-0.575050,-0.574950,-0.575050,0.425000,-0.575035,0.425035,-0.575000,0.425050,0.425000,0.425050,0.425035,0.425035,0.425035,0.425035,$1*%
%AMFreePoly3*
4,1,17,0.575035,0.425035,0.575050,0.425000,0.575050,-0.574950,1.875000,-0.574950,1.875035,-0.574965,1.875050,-0.575000,1.875050,-1.275000,1.875035,-1.275035,1.875000,-1.275050,-0.425000,-1.275050,-0.425035,-1.275035,-0.425050,-1.275000,-0.425050,0.425000,-0.425035,0.425035,-0.425000,0.425050,0.575000,0.425050,0.575035,0.425035,0.575035,0.425035,$1*%
G04 Aperture macros list end*
%ADD10C,0.010000*%
%ADD11C,0.000100*%
%ADD12RoundRect,0.200000X0.200000X0.275000X-0.200000X0.275000X-0.200000X-0.275000X0.200000X-0.275000X0*%
%ADD13RoundRect,0.225000X-0.225000X-0.250000X0.225000X-0.250000X0.225000X0.250000X-0.225000X0.250000X0*%
%ADD14RoundRect,0.200000X-0.200000X-0.275000X0.200000X-0.275000X0.200000X0.275000X-0.200000X0.275000X0*%
%ADD15RoundRect,0.218750X0.256250X-0.218750X0.256250X0.218750X-0.256250X0.218750X-0.256250X-0.218750X0*%
%ADD16RoundRect,0.237500X0.250000X0.237500X-0.250000X0.237500X-0.250000X-0.237500X0.250000X-0.237500X0*%
%ADD17R,0.965200X0.939800*%
%ADD18RoundRect,0.100000X0.100000X-0.637500X0.100000X0.637500X-0.100000X0.637500X-0.100000X-0.637500X0*%
%ADD19RoundRect,0.225000X0.250000X-0.225000X0.250000X0.225000X-0.250000X0.225000X-0.250000X-0.225000X0*%
%ADD20RoundRect,0.135000X-0.135000X-0.185000X0.135000X-0.185000X0.135000X0.185000X-0.135000X0.185000X0*%
%ADD21RoundRect,0.237500X-0.237500X0.250000X-0.237500X-0.250000X0.237500X-0.250000X0.237500X0.250000X0*%
%ADD22RoundRect,0.225000X-0.250000X0.225000X-0.250000X-0.225000X0.250000X-0.225000X0.250000X0.225000X0*%
%ADD23RoundRect,0.008100X-0.396900X-0.126900X0.396900X-0.126900X0.396900X0.126900X-0.396900X0.126900X0*%
%ADD24RoundRect,0.027000X-0.108000X-0.378000X0.108000X-0.378000X0.108000X0.378000X-0.108000X0.378000X0*%
%ADD25RoundRect,0.140000X0.140000X0.170000X-0.140000X0.170000X-0.140000X-0.170000X0.140000X-0.170000X0*%
%ADD26R,0.900000X0.800000*%
%ADD27R,1.300000X0.600000*%
%ADD28R,0.700000X1.000000*%
%ADD29R,0.700000X0.600000*%
%ADD30RoundRect,0.250000X-0.375000X-0.625000X0.375000X-0.625000X0.375000X0.625000X-0.375000X0.625000X0*%
%ADD31RoundRect,0.200000X0.275000X-0.200000X0.275000X0.200000X-0.275000X0.200000X-0.275000X-0.200000X0*%
%ADD32RoundRect,0.250000X-0.325000X-1.100000X0.325000X-1.100000X0.325000X1.100000X-0.325000X1.100000X0*%
%ADD33R,1.200000X1.200000*%
%ADD34RoundRect,0.140000X-0.170000X0.140000X-0.170000X-0.140000X0.170000X-0.140000X0.170000X0.140000X0*%
%ADD35FreePoly0,180.000000*%
%ADD36FreePoly1,180.000000*%
%ADD37FreePoly2,180.000000*%
%ADD38FreePoly3,180.000000*%
%ADD39RoundRect,0.135000X0.135000X0.185000X-0.135000X0.185000X-0.135000X-0.185000X0.135000X-0.185000X0*%
%ADD40RoundRect,0.225000X0.225000X0.250000X-0.225000X0.250000X-0.225000X-0.250000X0.225000X-0.250000X0*%
%ADD41R,5.100000X1.900000*%
%ADD42R,0.300000X1.140000*%
%ADD43RoundRect,0.250000X-0.650000X0.325000X-0.650000X-0.325000X0.650000X-0.325000X0.650000X0.325000X0*%
%ADD44R,1.397000X0.279400*%
%ADD45R,0.279400X1.397000*%
%ADD46RoundRect,0.200000X-0.275000X0.200000X-0.275000X-0.200000X0.275000X-0.200000X0.275000X0.200000X0*%
%ADD47RoundRect,0.218750X-0.218750X-0.256250X0.218750X-0.256250X0.218750X0.256250X-0.218750X0.256250X0*%
%ADD48RoundRect,0.150000X-0.150000X0.512500X-0.150000X-0.512500X0.150000X-0.512500X0.150000X0.512500X0*%
%ADD49RoundRect,0.250000X-1.100000X0.325000X-1.100000X-0.325000X1.100000X-0.325000X1.100000X0.325000X0*%
%ADD50R,2.220000X1.240000*%
%ADD51R,2.400000X0.600000*%
%ADD52R,1.700000X1.900000*%
%ADD53R,1.600000X1.440000*%
%ADD54R,0.939800X0.965200*%
G04 APERTURE END LIST*
D10*
X142370000Y-69670000D02*
X140030000Y-69670000D01*
X140030000Y-67330000D01*
X142370000Y-67330000D01*
X142370000Y-69670000D01*
G36*
X142370000Y-69670000D02*
G01*
X140030000Y-69670000D01*
X140030000Y-67330000D01*
X142370000Y-67330000D01*
X142370000Y-69670000D01*
G37*
D11*
X104327740Y-65476236D02*
X105627740Y-65476236D01*
X105627740Y-66176236D01*
X103327740Y-66176236D01*
X103327740Y-64476236D01*
X104327740Y-64476236D01*
X104327740Y-65476236D01*
G36*
X104327740Y-65476236D02*
G01*
X105627740Y-65476236D01*
X105627740Y-66176236D01*
X103327740Y-66176236D01*
X103327740Y-64476236D01*
X104327740Y-64476236D01*
X104327740Y-65476236D01*
G37*
X105627740Y-62176236D02*
X104327740Y-62176236D01*
X104327740Y-63176236D01*
X103327740Y-63176236D01*
X103327740Y-61476236D01*
X105627740Y-61476236D01*
X105627740Y-62176236D01*
G36*
X105627740Y-62176236D02*
G01*
X104327740Y-62176236D01*
X104327740Y-63176236D01*
X103327740Y-63176236D01*
X103327740Y-61476236D01*
X105627740Y-61476236D01*
X105627740Y-62176236D01*
G37*
X102427740Y-66176236D02*
X100127740Y-66176236D01*
X100127740Y-65476236D01*
X101427740Y-65476236D01*
X101427740Y-64476236D01*
X102427740Y-64476236D01*
X102427740Y-66176236D01*
G36*
X102427740Y-66176236D02*
G01*
X100127740Y-66176236D01*
X100127740Y-65476236D01*
X101427740Y-65476236D01*
X101427740Y-64476236D01*
X102427740Y-64476236D01*
X102427740Y-66176236D01*
G37*
X102427740Y-63176236D02*
X101427740Y-63176236D01*
X101427740Y-62176236D01*
X100127740Y-62176236D01*
X100127740Y-61476236D01*
X102427740Y-61476236D01*
X102427740Y-63176236D01*
G36*
X102427740Y-63176236D02*
G01*
X101427740Y-63176236D01*
X101427740Y-62176236D01*
X100127740Y-62176236D01*
X100127740Y-61476236D01*
X102427740Y-61476236D01*
X102427740Y-63176236D01*
G37*
D12*
X150625000Y-65900000D03*
X148975000Y-65900000D03*
D13*
X137525000Y-72953752D03*
X139075000Y-72953752D03*
D14*
X141125000Y-74600000D03*
X142775000Y-74600000D03*
D15*
X148800000Y-91456570D03*
X148800000Y-89881570D03*
D16*
X126002520Y-79272598D03*
X124177520Y-79272598D03*
D17*
X169957600Y-97079811D03*
X171456200Y-97079811D03*
D18*
X133225000Y-90862500D03*
X133875000Y-90862500D03*
X134525000Y-90862500D03*
X135175000Y-90862500D03*
X135825000Y-90862500D03*
X136475000Y-90862500D03*
X137125000Y-90862500D03*
X137775000Y-90862500D03*
X138425000Y-90862500D03*
X139075000Y-90862500D03*
X139075000Y-85137500D03*
X138425000Y-85137500D03*
X137775000Y-85137500D03*
X137125000Y-85137500D03*
X136475000Y-85137500D03*
X135825000Y-85137500D03*
X135175000Y-85137500D03*
X134525000Y-85137500D03*
X133875000Y-85137500D03*
X133225000Y-85137500D03*
D19*
X175100000Y-89075000D03*
X175100000Y-87525000D03*
D20*
X157640000Y-82800000D03*
X158660000Y-82800000D03*
D21*
X100100000Y-89347500D03*
X100100000Y-91172500D03*
D22*
X131638400Y-85487500D03*
X131638400Y-87037500D03*
D13*
X138993986Y-95700000D03*
X140543986Y-95700000D03*
D14*
X175320924Y-68980000D03*
X176970924Y-68980000D03*
D22*
X180535184Y-85951482D03*
X180535184Y-87501482D03*
D19*
X119215494Y-65505000D03*
X119215494Y-63955000D03*
D14*
X162781900Y-77679811D03*
X164431900Y-77679811D03*
D23*
X138750000Y-67000000D03*
X138750000Y-67500000D03*
X138750000Y-68000000D03*
X138750000Y-68500000D03*
X138750000Y-69000000D03*
X138750000Y-69500000D03*
X138750000Y-70000000D03*
D24*
X139700000Y-70950000D03*
X140200000Y-70950000D03*
X140700000Y-70950000D03*
X141200000Y-70950000D03*
X141700000Y-70950000D03*
X142200000Y-70950000D03*
X142700000Y-70950000D03*
D23*
X143650000Y-70000000D03*
X143650000Y-69500000D03*
X143650000Y-69000000D03*
X143650000Y-68500000D03*
X143650000Y-68000000D03*
X143650000Y-67500000D03*
X143650000Y-67000000D03*
D24*
X142700000Y-66050000D03*
X142200000Y-66050000D03*
X141700000Y-66050000D03*
X141200000Y-66050000D03*
X140700000Y-66050000D03*
X140200000Y-66050000D03*
X139700000Y-66050000D03*
D14*
X148975000Y-67600000D03*
X150625000Y-67600000D03*
D25*
X134600000Y-69900000D03*
X133640000Y-69900000D03*
D19*
X167300000Y-96075000D03*
X167300000Y-94525000D03*
D26*
X101730000Y-89320000D03*
X101730000Y-91220000D03*
X103830000Y-90270000D03*
D15*
X150600000Y-91425067D03*
X150600000Y-89850067D03*
D14*
X134353723Y-71288741D03*
X136003723Y-71288741D03*
D22*
X117984107Y-68807096D03*
X117984107Y-70357096D03*
D27*
X124700000Y-92205000D03*
X124700000Y-90935000D03*
X124700000Y-89665000D03*
X124700000Y-88395000D03*
X119400000Y-88395000D03*
X119400000Y-89665000D03*
X119400000Y-90935000D03*
X119400000Y-92205000D03*
D28*
X171550000Y-69800000D03*
D29*
X171550000Y-68100000D03*
X169550000Y-68100000D03*
X169550000Y-70000000D03*
D30*
X119500000Y-79550000D03*
X122300000Y-79550000D03*
D15*
X147000000Y-91456284D03*
X147000000Y-89881284D03*
D31*
X134400000Y-67725000D03*
X134400000Y-66075000D03*
D32*
X99441833Y-73930000D03*
X102391833Y-73930000D03*
D12*
X142775000Y-76210000D03*
X141125000Y-76210000D03*
D33*
X182190000Y-74500000D03*
X179390000Y-74500000D03*
D34*
X145028656Y-70370000D03*
X145028656Y-71330000D03*
D20*
X157590000Y-81200000D03*
X158610000Y-81200000D03*
D12*
X139275000Y-77850000D03*
X137625000Y-77850000D03*
D14*
X169881900Y-98829811D03*
X171531900Y-98829811D03*
D20*
X157640000Y-83870000D03*
X158660000Y-83870000D03*
D35*
X102002740Y-64901236D03*
D36*
X103752740Y-64901236D03*
D37*
X103752740Y-62751236D03*
D38*
X102002740Y-62751236D03*
D30*
X119402584Y-76659891D03*
X122202584Y-76659891D03*
D16*
X125909769Y-76382488D03*
X124084769Y-76382488D03*
D14*
X148975000Y-69300000D03*
X150625000Y-69300000D03*
D39*
X138250000Y-82050000D03*
X137230000Y-82050000D03*
D40*
X171481900Y-95329811D03*
X169931900Y-95329811D03*
D41*
X106866833Y-69111397D03*
X106866833Y-73311397D03*
D42*
X174390000Y-64770000D03*
X173590000Y-64770000D03*
X172290000Y-64770000D03*
X171290000Y-64770000D03*
X170790000Y-64770000D03*
X169790000Y-64770000D03*
X168490000Y-64770000D03*
X167690000Y-64770000D03*
X167990000Y-64770000D03*
X168790000Y-64770000D03*
X169290000Y-64770000D03*
X170290000Y-64770000D03*
X171790000Y-64770000D03*
X172790000Y-64770000D03*
X173290000Y-64770000D03*
X174090000Y-64770000D03*
D31*
X139050000Y-76175000D03*
X139050000Y-74525000D03*
D12*
X142775000Y-77850000D03*
X141125000Y-77850000D03*
D15*
X145175108Y-91434821D03*
X145175108Y-89859821D03*
D43*
X97957242Y-62848586D03*
X97957242Y-65798586D03*
D40*
X137200000Y-95700000D03*
X135650000Y-95700000D03*
D44*
X173300000Y-89400756D03*
X173300000Y-88900630D03*
X173300000Y-88400504D03*
X173300000Y-87900378D03*
X173300000Y-87400252D03*
X173300000Y-86900126D03*
X173300000Y-86400000D03*
X173300000Y-85899874D03*
X173300000Y-85399748D03*
X173300000Y-84899622D03*
X173300000Y-84399496D03*
X173300000Y-83899370D03*
X173300000Y-83399244D03*
X173300000Y-82899118D03*
X173300000Y-82398992D03*
X173300000Y-81898866D03*
D45*
X171297845Y-79896711D03*
X170797719Y-79896711D03*
X170297593Y-79896711D03*
X169797467Y-79896711D03*
X169297341Y-79896711D03*
X168797215Y-79896711D03*
X168297089Y-79896711D03*
X167796963Y-79896711D03*
X167296837Y-79896711D03*
X166796711Y-79896711D03*
X166296585Y-79896711D03*
X165796459Y-79896711D03*
X165296333Y-79896711D03*
X164796207Y-79896711D03*
X164296081Y-79896711D03*
X163795955Y-79896711D03*
D44*
X161793800Y-81898866D03*
X161793800Y-82398992D03*
X161793800Y-82899118D03*
X161793800Y-83399244D03*
X161793800Y-83899370D03*
X161793800Y-84399496D03*
X161793800Y-84899622D03*
X161793800Y-85399748D03*
X161793800Y-85899874D03*
X161793800Y-86400000D03*
X161793800Y-86900126D03*
X161793800Y-87400252D03*
X161793800Y-87900378D03*
X161793800Y-88400504D03*
X161793800Y-88900630D03*
X161793800Y-89400756D03*
D45*
X163795955Y-91402911D03*
X164296081Y-91402911D03*
X164796207Y-91402911D03*
X165296333Y-91402911D03*
X165796459Y-91402911D03*
X166296585Y-91402911D03*
X166796711Y-91402911D03*
X167296837Y-91402911D03*
X167796963Y-91402911D03*
X168297089Y-91402911D03*
X168797215Y-91402911D03*
X169297341Y-91402911D03*
X169797467Y-91402911D03*
X170297593Y-91402911D03*
X170797719Y-91402911D03*
X171297845Y-91402911D03*
D40*
X176920924Y-67230000D03*
X175370924Y-67230000D03*
D46*
X175300000Y-80675000D03*
X175300000Y-82325000D03*
D47*
X109079333Y-60730000D03*
X110654333Y-60730000D03*
D48*
X122931100Y-63719485D03*
X121981100Y-63719485D03*
X121031100Y-63719485D03*
X121031100Y-65994485D03*
X121981100Y-65994485D03*
X122931100Y-65994485D03*
D22*
X124806679Y-66302317D03*
X124806679Y-67852317D03*
X120039609Y-68816397D03*
X120039609Y-70366397D03*
D49*
X108066833Y-62486397D03*
X108066833Y-65436397D03*
D46*
X175300000Y-77675000D03*
X175300000Y-79325000D03*
D22*
X127100000Y-89540000D03*
X127100000Y-91090000D03*
D19*
X180561424Y-84155930D03*
X180561424Y-82605930D03*
D50*
X122366833Y-68361397D03*
X122366833Y-70541397D03*
D51*
X113000000Y-67150000D03*
D52*
X113950000Y-68600000D03*
X112050000Y-68600000D03*
X113950000Y-70700000D03*
X112050000Y-70700000D03*
D53*
X111935000Y-73080000D03*
X114065000Y-73080000D03*
D25*
X136580000Y-68980000D03*
X135620000Y-68980000D03*
D54*
X165600000Y-94550700D03*
X165600000Y-96049300D03*
D14*
X142475000Y-72860000D03*
X144125000Y-72860000D03*
D12*
X136025000Y-72950000D03*
X134375000Y-72950000D03*
D30*
X94816833Y-68680000D03*
X97616833Y-68680000D03*
M02*
