M48
; DRILL file {KiCad 7.0.7} date Mon Dec 18 21:06:20 2023
; FORMAT={-:-/ absolute / metric / decimal}
; #@! TF.CreationDate,2023-12-18T21:06:20-05:00
; #@! TF.GenerationSoftware,Kicad,Pcbnew,7.0.7
; #@! TF.FileFunction,Plated,1,2,PTH
FMAT,2
METRIC
; #@! TA.AperFunction,Plated,PTH,ViaDrill
T1C0.300
; #@! TA.AperFunction,Plated,PTH,ViaDrill
T2C0.400
; #@! TA.AperFunction,Plated,PTH,ComponentDrill
T3C0.600
; #@! TA.AperFunction,Plated,PTH,ComponentDrill
T4C0.800
; #@! TA.AperFunction,Plated,PTH,ComponentDrill
T5C1.000
%
G90
G05
T1
X132.8Y-69.9
X133.17Y-71.32
X134.4Y-68.9
X135.75Y-81.65
X135.85Y-83.9
X136.25Y-67.65
X137.45Y-74.1
X137.65Y-76.25
X140.05Y-65.17
X140.2Y-67.5
X140.2Y-68.5
X140.2Y-69.5
X141.2Y-67.5
X141.2Y-68.5
X141.2Y-69.5
X141.53Y-72.86
X142.2Y-67.5
X142.2Y-68.5
X142.2Y-69.5
X142.35Y-65.21
X143.85Y-76.22
X143.88Y-77.86
X145.138Y-82.993
X145.15Y-84.75
X145.2Y-92.589
X145.91Y-71.35
X145.95Y-68.15
X147.0Y-92.6
X147.113Y-81.232
X147.15Y-84.65
X147.25Y-68.55
X149.15Y-82.05
X149.159Y-84.647
X150.608Y-64.75
X151.8Y-78.3
X151.8Y-84.8
X151.95Y-94.9
X151.95Y-96.5
X153.0Y-78.3
X153.0Y-84.8
X158.0Y-73.9
X159.5Y-85.2
X159.62Y-73.89
X160.8Y-94.9
X160.8Y-96.5
X161.5Y-73.7
X162.657Y-91.43
X164.2Y-81.4
X164.4Y-75.254
X165.0Y-81.4
X167.3Y-97.2
X167.5Y-66.0
X168.057Y-92.78
X168.6Y-65.75
X168.69Y-69.97
X169.48Y-63.704
X169.757Y-89.98
X169.757Y-93.43
X169.8Y-81.2
X171.3Y-81.2
X172.0Y-84.4
X172.1Y-87.9
X172.19Y-63.69
X172.38Y-69.8
X172.557Y-95.33
X173.41Y-61.84
X174.248Y-65.954
X174.7Y-86.1
X175.1Y-90.2
X175.3Y-83.2
X175.32Y-69.81
X177.42Y-61.89
X177.87Y-67.24
X177.87Y-69.0
X179.4Y-84.4
X179.4Y-85.75
T2
X95.5Y-72.5
X95.5Y-75.0
X95.5Y-77.5
X95.5Y-80.0
X95.5Y-82.5
X95.5Y-85.0
X95.5Y-98.0
X95.527Y-95.543
X97.967Y-73.949
X98.0Y-77.5
X98.0Y-80.0
X98.0Y-82.5
X98.0Y-85.0
X98.0Y-87.5
X98.0Y-93.0
X98.0Y-98.0
X98.0Y-100.5
X98.027Y-95.543
X100.473Y-79.957
X100.5Y-77.5
X100.5Y-82.5
X100.5Y-85.0
X100.5Y-87.5
X100.5Y-93.0
X100.5Y-98.0
X100.5Y-100.5
X100.527Y-95.543
X103.0Y-77.5
X103.0Y-80.0
X103.0Y-82.5
X103.0Y-85.0
X103.0Y-87.5
X103.0Y-93.0
X103.0Y-100.5
X103.027Y-95.543
X103.027Y-98.043
X104.217Y-59.98
X104.91Y-90.27
X105.5Y-77.5
X105.5Y-80.0
X105.5Y-82.5
X105.5Y-85.0
X105.5Y-87.5
X105.5Y-93.0
X105.5Y-100.5
X105.527Y-95.543
X105.527Y-98.043
X105.617Y-59.98
X107.117Y-59.98
X107.117Y-61.08
X107.973Y-79.957
X108.0Y-77.5
X108.0Y-82.5
X108.0Y-85.0
X108.0Y-87.5
X108.0Y-93.0
X108.0Y-98.0
X108.0Y-100.5
X108.027Y-95.543
X110.5Y-77.5
X110.5Y-80.0
X110.5Y-82.5
X110.5Y-85.0
X110.5Y-87.5
X110.5Y-93.0
X110.5Y-100.5
X110.527Y-95.543
X110.527Y-98.043
X111.367Y-63.48
X111.367Y-66.23
X113.0Y-77.5
X113.0Y-80.0
X113.0Y-82.5
X113.0Y-85.0
X113.0Y-87.5
X113.0Y-93.0
X113.0Y-100.5
X113.027Y-95.543
X113.027Y-98.043
X113.867Y-61.23
X113.867Y-63.48
X113.867Y-66.23
X115.473Y-79.957
X115.5Y-77.5
X115.5Y-82.5
X115.5Y-85.0
X115.5Y-87.5
X115.5Y-93.0
X115.5Y-98.0
X115.5Y-100.5
X115.527Y-95.543
X116.367Y-61.23
X116.367Y-63.48
X117.711Y-67.28
X117.717Y-65.78
X118.0Y-95.5
X118.0Y-98.0
X118.0Y-100.5
X118.867Y-61.23
X119.367Y-67.28
X119.4Y-93.265
X120.5Y-95.5
X120.5Y-98.0
X120.5Y-100.5
X121.117Y-61.23
X123.0Y-95.5
X123.0Y-98.0
X123.0Y-100.5
X124.7Y-87.35
X124.7Y-93.265
X125.0Y-61.25
X125.5Y-95.5
X125.5Y-98.0
X125.5Y-100.5
X125.9Y-90.935
X127.75Y-66.5
X127.75Y-71.5
X127.75Y-76.5
X127.777Y-61.25
X127.777Y-64.043
X127.777Y-69.043
X127.777Y-74.043
X128.0Y-95.5
X128.0Y-98.0
X128.0Y-100.5
X129.0Y-85.5
X129.0Y-89.45
X130.25Y-66.5
X130.25Y-71.5
X130.25Y-76.5
X130.277Y-61.25
X130.277Y-64.043
X130.277Y-69.043
X130.277Y-74.043
X130.5Y-95.5
X130.5Y-98.0
X130.5Y-100.5
X131.625Y-88.312
X132.75Y-64.0
X132.75Y-66.5
X132.75Y-74.0
X132.75Y-76.5
X132.777Y-61.25
X137.232Y-94.468
X138.982Y-94.518
X139.05Y-89.1
X139.09Y-64.05
X139.1Y-65.35
X143.28Y-64.0
X143.3Y-65.35
X148.0Y-60.0
X148.0Y-62.5
X148.0Y-65.0
X150.5Y-60.0
X150.5Y-62.5
X152.8Y-98.1
X153.0Y-62.5
X153.0Y-65.0
X154.53Y-79.51
X154.53Y-89.72
X159.75Y-65.25
X159.777Y-62.793
X159.777Y-67.793
X159.777Y-70.293
X161.5Y-77.625
X162.5Y-65.25
X162.527Y-60.293
X162.527Y-62.793
X162.527Y-67.793
X162.527Y-70.293
X162.6Y-98.1
X163.3Y-84.9
X165.0Y-65.25
X165.027Y-60.293
X165.027Y-62.793
X165.027Y-67.793
X165.027Y-70.293
X168.0Y-81.25
X169.5Y-72.0
X169.5Y-74.0
X169.5Y-76.0
X169.5Y-78.0
X171.5Y-72.0
X171.5Y-74.0
X171.5Y-76.0
X171.5Y-78.0
X174.0Y-77.674
X174.5Y-74.5
X174.527Y-72.043
X177.0Y-72.0
X181.25Y-61.5
X181.25Y-66.75
X181.277Y-64.293
X181.277Y-69.293
X181.277Y-71.793
X184.0Y-61.5
X184.0Y-66.75
X184.027Y-64.293
X184.027Y-69.293
X184.027Y-71.793
T4
X135.62Y-99.4
X140.5Y-99.4
X184.1Y-82.65
X184.1Y-87.53
T5
X94.5Y-62.985
X94.5Y-65.525
X95.272Y-89.049
X95.272Y-91.589
X137.4Y-60.1
X139.94Y-60.1
X142.48Y-60.1
X145.02Y-60.1
X149.95Y-101.0
X152.49Y-101.0
X154.225Y-60.1
X155.03Y-101.0
X156.765Y-60.1
X157.57Y-101.0
X159.305Y-60.1
X160.11Y-101.0
X162.65Y-101.0
X174.93Y-101.0
X177.47Y-101.0
X180.01Y-101.0
X182.55Y-101.0
X185.29Y-74.535
X185.29Y-77.075
T3
X166.715Y-60.55G85X166.715Y-59.45
G05
X166.715Y-64.73G85X166.715Y-63.63
G05
X175.365Y-60.55G85X175.365Y-59.45
G05
X175.365Y-64.73G85X175.365Y-63.63
G05
T0
M30
